<svg width="68" height="68" viewBox="0 0 68 68" fill="none" xmlns="http://www.w3.org/2000/svg">
<rect x="0.355957" y="0.910767" width="66.8475" height="66.8475" rx="3.84373" fill="white"/>
<path d="M34.1474 59.4023C47.7889 59.4023 58.8475 48.3437 58.8475 34.7022C58.8475 21.0607 47.7889 10.0021 34.1474 10.0021C20.5059 10.0021 9.44727 21.0607 9.44727 34.7022C9.44727 48.3437 20.5059 59.4023 34.1474 59.4023Z" fill="#1977F3"/>
<path d="M43.762 41.8438L44.8561 34.7022H38.0064V30.0686C38.0064 28.1165 38.9616 26.2095 42.0322 26.2095H45.1479V20.1309C45.1479 20.1309 42.3205 19.648 39.6181 19.648C33.9771 19.648 30.2882 23.066 30.2882 29.2592V34.7022H24.0151V41.8438H30.2882V59.1037C31.5456 59.3016 32.8343 59.4024 34.1473 59.4024C35.4603 59.4024 36.749 59.2982 38.0064 59.1037V41.8438H43.762Z" fill="white"/>
</svg>
