<svg width="67" height="68" viewBox="0 0 67 68" fill="none" xmlns="http://www.w3.org/2000/svg">
<rect x="0.0339355" y="0.712646" width="66.8475" height="66.8475" rx="3.84373" fill="white"/>
<path d="M33.8254 59.2042C47.4669 59.2042 58.5255 48.1455 58.5255 34.504C58.5255 20.8625 47.4669 9.80389 33.8254 9.80389C20.1839 9.80389 9.12524 20.8625 9.12524 34.504C9.12524 48.1455 20.1839 59.2042 33.8254 59.2042Z" fill="#1977F3"/>
<path d="M43.44 41.6456L44.5342 34.504H37.6844V29.8704C37.6844 27.9183 38.6396 26.0113 41.7102 26.0113H44.826V19.9326C44.826 19.9326 41.9985 19.4498 39.2961 19.4498C33.6551 19.4498 29.9663 22.8678 29.9663 29.061V34.504H23.6931V41.6456H29.9663V58.9054C31.2237 59.1034 32.5124 59.2042 33.8253 59.2042C35.1383 59.2042 36.427 59.1 37.6844 58.9054V41.6456H43.44Z" fill="white"/>
</svg>
