<svg width="68" height="68" viewBox="0 0 68 68" fill="none" xmlns="http://www.w3.org/2000/svg">
<rect x="0.915283" y="0.844971" width="66.8475" height="66.8475" rx="3.84373" fill="white"/>
<path d="M51.6151 47.0317L41.6 41.246C40.193 40.436 38.3938 40.9177 37.5794 42.3247C37.2639 42.879 37.1403 43.4887 37.2 44.0813V55.3883C37.2 57.0042 38.5131 58.3174 40.1333 58.3174C41.7492 58.3174 43.0624 57.0042 43.0624 55.3883V48.8864L48.6732 52.1267C50.0802 52.941 51.8837 52.455 52.6938 51.048C53.5081 49.641 53.0264 47.8418 51.6151 47.0317Z" fill="#29B5E8"/>
<path d="M26.7073 34.6332C26.7243 33.5886 26.1743 32.6165 25.2704 32.0921L15.2553 26.3107C14.8204 26.0592 14.3216 25.927 13.8228 25.927C12.7952 25.927 11.8402 26.477 11.3286 27.3638C10.5355 28.7367 11.0088 30.4976 12.3817 31.2906L18.1545 34.6204L12.3817 37.9545C11.7165 38.3383 11.239 38.9565 11.0429 39.6983C10.8425 40.4402 10.9448 41.2162 11.3286 41.8813C11.8402 42.7681 12.7952 43.3181 13.8185 43.3181C14.3216 43.3181 14.8204 43.1859 15.2553 42.9344L25.2704 37.153C26.1658 36.6328 26.7158 35.6693 26.7073 34.6332Z" fill="#29B5E8"/>
<path d="M17.5278 22.2134L27.543 27.9949C28.7112 28.6728 30.1523 28.4511 31.0732 27.5514C31.6573 27.0142 32.0197 26.2468 32.0197 25.3941V13.8057C32.0197 12.1855 30.7065 10.8723 29.0906 10.8723C27.4705 10.8723 26.1573 12.1855 26.1573 13.8057V20.4014L20.4697 17.1185C19.0627 16.3041 17.2635 16.7859 16.4491 18.1929C15.6348 19.5999 16.1208 21.3991 17.5278 22.2134Z" fill="#29B5E8"/>
<path d="M40.0479 35.1022C40.0479 35.3239 39.92 35.6309 39.7622 35.7929L35.7928 39.7623C35.6351 39.92 35.3238 40.0479 35.1021 40.0479H34.0917C33.87 40.0479 33.5587 39.92 33.401 39.7623L29.4273 35.7929C29.2696 35.6309 29.1417 35.3239 29.1417 35.1022V34.0917C29.1417 33.8658 29.2696 33.5588 29.4273 33.401L33.401 29.4274C33.5587 29.2696 33.87 29.1417 34.0917 29.1417H35.1021C35.3238 29.1417 35.6351 29.2696 35.7928 29.4274L39.7622 33.401C39.92 33.5588 40.0479 33.8658 40.0479 34.0917V35.1022ZM36.5049 34.6162V34.5735C36.5049 34.4115 36.4111 34.1855 36.2959 34.0662L35.1235 32.8979C35.0083 32.7786 34.7824 32.6848 34.6161 32.6848H34.5735C34.4114 32.6848 34.1855 32.7786 34.0661 32.8979L32.8979 34.0662C32.7828 34.1813 32.689 34.4072 32.689 34.5735V34.6162C32.689 34.7824 32.7828 35.0084 32.8979 35.1235L34.0661 36.296C34.1855 36.4111 34.4114 36.5049 34.5735 36.5049H34.6161C34.7824 36.5049 35.0083 36.4111 35.1235 36.296L36.2959 35.1235C36.4111 35.0084 36.5049 34.7824 36.5049 34.6162Z" fill="#29B5E8"/>
<path d="M41.5998 27.9949L51.615 22.2134C53.022 21.4034 53.508 19.5999 52.6937 18.1929C51.8793 16.7859 50.0801 16.3041 48.6731 17.1185L43.0622 20.3588V13.8057C43.0622 12.1855 41.7491 10.8723 40.1332 10.8723C38.513 10.8723 37.1998 12.1855 37.1998 13.8057V25.1638C37.1444 25.7522 37.2595 26.3662 37.5793 26.9204C38.3936 28.3274 40.1929 28.8092 41.5998 27.9949Z" fill="#29B5E8"/>
<path d="M29.5511 40.905C28.886 40.7771 28.174 40.8836 27.543 41.246L17.5278 47.0317C16.1208 47.8418 15.6348 49.641 16.4491 51.048C17.2635 52.4592 19.0627 52.941 20.4697 52.1267L26.1573 48.8437V55.3883C26.1573 57.0042 27.4705 58.3174 29.0906 58.3174C30.7065 58.3174 32.0197 57.0042 32.0197 55.3883V43.7999C32.0197 42.3375 30.9496 41.1267 29.5511 40.905Z" fill="#29B5E8"/>
<path d="M57.8738 27.3297C57.0638 25.9185 55.2603 25.4367 53.8533 26.251L43.8382 32.0324C42.8788 32.5867 42.3502 33.6014 42.3672 34.6332C42.3587 35.6607 42.8874 36.6627 43.8382 37.2084L53.8533 42.9941C55.2603 43.8042 57.0595 43.3224 57.8738 41.9154C58.6882 40.5084 58.2021 38.7092 56.7951 37.8949L51.1246 34.6204L56.7951 31.346C58.2064 30.5359 58.6882 28.7367 57.8738 27.3297Z" fill="#29B5E8"/>
</svg>
