<svg width="67" height="68" viewBox="0 0 67 68" fill="none" xmlns="http://www.w3.org/2000/svg">
<rect x="0.0339355" y="0.911011" width="66.8475" height="66.8475" rx="3.84373" fill="white"/>
<path fill-rule="evenodd" clip-rule="evenodd" d="M6.57654 48.2223H34.0983L61.0322 21.2837H6.57654V48.2223" fill="url(#paint0_linear_1574_27034)"/>
<path fill-rule="evenodd" clip-rule="evenodd" d="M38.8933 26.6709H33.5152L33.5331 39.3201L28.85 26.6661H24.2064L20.2087 37.2338C19.7837 34.5448 17.0036 33.6169 14.8162 32.9219C13.3717 32.4579 11.8385 31.7755 11.8541 31.0212C11.8661 30.4022 12.6742 29.8281 14.2804 29.9137C15.3579 29.9718 16.3098 30.0586 18.2033 30.9733L20.065 27.7287C18.3385 26.8499 15.9512 26.2949 13.9936 26.2932H13.9817C11.6991 26.2932 9.79839 27.0325 8.62027 28.2507C7.79894 29.1008 7.35595 30.1819 7.33799 31.3774C7.30806 33.0224 7.91088 34.1886 9.1776 35.1207C10.248 35.9049 11.617 36.4137 12.8233 36.7873C14.3109 37.2482 15.5261 37.6493 15.5112 38.503C15.4992 38.8142 15.3819 39.1052 15.158 39.3399C14.7868 39.723 14.2181 39.8667 13.4309 39.8822C11.9122 39.9145 10.7867 39.6757 8.99322 38.6155L7.33679 41.902C9.12851 42.9209 11.0304 43.4321 13.1915 43.4321L13.6776 43.4285C15.5585 43.3944 17.085 42.9436 18.2978 41.9679C18.3673 41.9122 18.4295 41.8559 18.4942 41.799L18.2907 42.8479L22.8283 42.8335L23.6425 40.749C24.4985 41.0412 25.4719 41.2028 26.5052 41.2028C27.5121 41.2028 28.4591 41.0496 29.299 40.7742L29.8665 42.8335L38.008 42.8413L38.0277 38.0893H39.7602C43.9476 38.0893 46.423 35.9581 46.423 32.3843C46.4216 28.4039 44.0153 26.6703 38.8933 26.6703L38.8933 26.6709ZM26.5051 37.4835C25.8796 37.4835 25.2929 37.3745 24.7882 37.183L26.486 31.8222H26.5189L28.1891 37.1979C27.6862 37.3775 27.1134 37.4835 26.5045 37.4835H26.5051ZM39.2082 34.4035H38.0265V30.0831H39.2088C40.7832 30.0831 42.0404 30.6075 42.0404 32.2155C42.039 33.8797 40.7832 34.4035 39.2088 34.4035" fill="white"/>
<defs>
<linearGradient id="paint0_linear_1574_27034" x1="33.8043" y1="21.2837" x2="33.8043" y2="48.2229" gradientUnits="userSpaceOnUse">
<stop stop-color="#00AEEF"/>
<stop offset="0.212" stop-color="#0097DC"/>
<stop offset="0.519" stop-color="#007CC5"/>
<stop offset="0.792" stop-color="#006CB8"/>
<stop offset="1" stop-color="#0066B3"/>
</linearGradient>
</defs>
</svg>
