<svg width="68" height="68" viewBox="0 0 68 68" fill="none" xmlns="http://www.w3.org/2000/svg">
<rect x="0.237305" y="0.778809" width="66.8475" height="66.8475" rx="3.84373" fill="white"/>
<path d="M26.9232 14.0869H39.5577L26.4418 52.9479C26.307 53.3472 26.0504 53.6942 25.708 53.94C25.3657 54.1858 24.9549 54.3181 24.5334 54.3182H14.7006C14.3813 54.3182 14.0665 54.2422 13.7824 54.0965C13.4983 53.9507 13.2529 53.7394 13.0667 53.48C12.8804 53.2207 12.7586 52.9207 12.7113 52.6049C12.664 52.2891 12.6925 51.9665 12.7946 51.664L25.0143 15.4572C25.149 15.0577 25.4057 14.7106 25.7482 14.4647C26.0906 14.2187 26.5016 14.0864 26.9232 14.0864V14.0869Z" fill="url(#paint0_linear_1574_26945)"/>
<path d="M45.283 40.1522H25.2476C25.0614 40.152 24.8794 40.2079 24.7253 40.3126C24.5713 40.4173 24.4523 40.566 24.384 40.7393C24.3157 40.9126 24.3011 41.1024 24.3422 41.2841C24.3833 41.4658 24.4781 41.6309 24.6144 41.7579L37.4887 53.7742C37.8635 54.1239 38.357 54.3183 38.8696 54.3182H50.2144L45.283 40.1522Z" fill="#0078D4"/>
<path d="M26.9229 14.0869C26.4967 14.0852 26.0812 14.2199 25.7369 14.4713C25.3927 14.7226 25.1379 15.0774 25.0097 15.4839L12.8094 51.6309C12.7005 51.9346 12.6663 52.26 12.7097 52.5797C12.7531 52.8994 12.8729 53.2039 13.0589 53.4675C13.2449 53.7311 13.4917 53.946 13.7784 54.0941C14.065 54.2422 14.3831 54.319 14.7057 54.3181H24.7923C25.1679 54.251 25.5191 54.0854 25.8098 53.8382C26.1005 53.5909 26.3203 53.271 26.4469 52.911L28.8799 45.7407L37.5704 53.8465C37.9346 54.1477 38.3915 54.3143 38.8641 54.3181H50.1666L45.2095 40.1522L30.7587 40.1556L39.6031 14.0869H26.9229Z" fill="url(#paint1_linear_1574_26945)"/>
<path d="M43.0607 15.4551C42.9261 15.0562 42.6698 14.7096 42.3279 14.4642C41.986 14.2187 41.5756 14.0867 41.1547 14.0867H27.0737C27.4946 14.0867 27.9049 14.2188 28.2468 14.4642C28.5887 14.7097 28.8451 15.0563 28.9797 15.4551L41.1998 51.6633C41.302 51.9659 41.3306 52.2885 41.2833 52.6044C41.2361 52.9203 41.1143 53.2204 40.928 53.4798C40.7417 53.7393 40.4964 53.9507 40.2122 54.0965C39.928 54.2424 39.6132 54.3184 39.2938 54.3185H53.3753C53.6947 54.3184 54.0094 54.2422 54.2935 54.0964C54.5777 53.9505 54.823 53.7391 55.0092 53.4796C55.1954 53.2202 55.3171 52.9201 55.3644 52.6043C55.4116 52.2884 55.383 51.9658 55.2808 51.6633L43.0607 15.4551Z" fill="url(#paint2_linear_1574_26945)"/>
<defs>
<linearGradient id="paint0_linear_1574_26945" x1="31.5281" y1="17.0682" x2="18.4068" y2="55.8316" gradientUnits="userSpaceOnUse">
<stop stop-color="#114A8B"/>
<stop offset="1" stop-color="#0669BC"/>
</linearGradient>
<linearGradient id="paint1_linear_1574_26945" x1="35.6266" y1="35.1329" x2="32.5914" y2="36.1592" gradientUnits="userSpaceOnUse">
<stop stop-opacity="0.3"/>
<stop offset="0.071" stop-opacity="0.2"/>
<stop offset="0.321" stop-opacity="0.1"/>
<stop offset="0.623" stop-opacity="0.05"/>
<stop offset="1" stop-opacity="0"/>
</linearGradient>
<linearGradient id="paint2_linear_1574_26945" x1="33.9577" y1="15.9374" x2="48.3609" y2="54.3102" gradientUnits="userSpaceOnUse">
<stop stop-color="#3CCBF4"/>
<stop offset="1" stop-color="#2892DF"/>
</linearGradient>
</defs>
</svg>
