<svg width="67" height="68" viewBox="0 0 67 68" fill="none" xmlns="http://www.w3.org/2000/svg">
<rect x="0.118652" y="0.911011" width="66.8475" height="66.8475" rx="3.84373" fill="white"/>
<path d="M43.4447 28.5052H56.3948C57.6183 28.5052 58.6101 29.497 58.6101 30.7205V42.5164C58.6101 47.013 54.9649 50.6581 50.4683 50.6581H50.4298C45.9332 50.6588 42.2875 47.0141 42.2869 42.5175C42.2869 42.5171 42.2869 42.5167 42.2869 42.5163V29.663C42.2869 29.0236 42.8052 28.5052 43.4447 28.5052Z" fill="#5059C9"/>
<path d="M52.1974 26.1736C55.0951 26.1736 57.4441 23.8246 57.4441 20.9269C57.4441 18.0292 55.0951 15.6801 52.1974 15.6801C49.2997 15.6801 46.9506 18.0292 46.9506 20.9269C46.9506 23.8246 49.2997 26.1736 52.1974 26.1736Z" fill="#5059C9"/>
<path d="M35.8743 26.1735C40.0599 26.1735 43.453 22.7805 43.453 18.5949C43.453 14.4093 40.0599 11.0162 35.8743 11.0162C31.6887 11.0162 28.2957 14.4093 28.2957 18.5949C28.2957 22.7805 31.6887 26.1735 35.8743 26.1735Z" fill="#7B83EB"/>
<path d="M45.9794 28.5052H24.603C23.3941 28.5351 22.4377 29.5384 22.4658 30.7473V44.2012C22.297 51.4559 28.0366 57.4763 35.2912 57.6538C42.5458 57.4763 48.2854 51.4559 48.1166 44.2012V30.7473C48.1446 29.5384 47.1883 28.5351 45.9794 28.5052Z" fill="#7B83EB"/>
<path opacity="0.1" d="M36.4572 28.5052V47.3585C36.4514 48.2231 35.9275 48.9998 35.1281 49.329C34.8735 49.4367 34.5999 49.4921 34.3236 49.4922H23.4919C23.3404 49.1075 23.2004 48.7227 23.0838 48.3263C22.6757 46.9884 22.4674 45.5976 22.4659 44.1988V30.7438C22.4378 29.5368 23.3926 28.5351 24.5996 28.5052H36.4572Z" fill="black"/>
<path opacity="0.2" d="M35.2913 28.5052V48.5245C35.2913 48.8009 35.2357 49.0744 35.1281 49.329C34.7989 50.1284 34.0222 50.6524 33.1576 50.6581H24.0399C23.8417 50.2734 23.6552 49.8886 23.4919 49.4922C23.3287 49.0958 23.2004 48.7227 23.0838 48.3263C22.6757 46.9884 22.4674 45.5976 22.4659 44.1988V30.7438C22.4378 29.5368 23.3926 28.5351 24.5996 28.5052H35.2913Z" fill="black"/>
<path opacity="0.2" d="M35.2913 28.5052V46.1926C35.2824 47.3673 34.3323 48.3174 33.1576 48.3263H23.0838C22.6757 46.9884 22.4674 45.5976 22.4659 44.1988V30.7438C22.4378 29.5368 23.3926 28.5351 24.5996 28.5052H35.2913Z" fill="black"/>
<path opacity="0.2" d="M34.1253 28.5052V46.1926C34.1164 47.3673 33.1663 48.3174 31.9916 48.3263H23.0838C22.6757 46.9884 22.4674 45.5976 22.4659 44.1988V30.7438C22.4378 29.5368 23.3926 28.5351 24.5996 28.5052H34.1253Z" fill="black"/>
<path opacity="0.1" d="M36.4573 22.4775V26.1502C36.259 26.1619 36.0725 26.1736 35.8743 26.1736C35.6761 26.1736 35.4895 26.1619 35.2913 26.1502C34.8977 26.1241 34.5074 26.0617 34.1254 25.9637C31.7643 25.4045 29.8137 23.7487 28.8786 21.5098C28.7177 21.1338 28.5928 20.7434 28.5055 20.3438H34.3236C35.5001 20.3483 36.4528 21.3009 36.4573 22.4775Z" fill="black"/>
<path opacity="0.2" d="M35.2912 23.6432V26.15C34.8977 26.1239 34.5074 26.0614 34.1253 25.9635C31.7642 25.4043 29.8136 23.7485 28.8785 21.5096H33.1576C34.3341 21.514 35.2868 22.4667 35.2912 23.6432Z" fill="black"/>
<path opacity="0.2" d="M35.2912 23.6432V26.15C34.8977 26.1239 34.5074 26.0614 34.1253 25.9635C31.7642 25.4043 29.8136 23.7485 28.8785 21.5096H33.1576C34.3341 21.514 35.2868 22.4667 35.2912 23.6432Z" fill="black"/>
<path opacity="0.2" d="M34.1253 23.6432V25.9635C31.7642 25.4043 29.8136 23.7485 28.8785 21.5096H31.9916C33.1682 21.514 34.1208 22.4667 34.1253 23.6432Z" fill="black"/>
<path d="M10.6117 21.5096H31.9881C33.1684 21.5096 34.1252 22.4664 34.1252 23.6467V45.0231C34.1252 46.2035 33.1684 47.1603 31.9881 47.1603H10.6117C9.43132 47.1603 8.47449 46.2035 8.47449 45.0231V23.6467C8.47449 22.4664 9.43134 21.5096 10.6117 21.5096Z" fill="url(#paint0_linear_1574_27006)"/>
<path d="M26.9246 29.646H22.6514V41.2822H19.9289V29.646H15.6755V27.3888H26.9246V29.646Z" fill="white"/>
<defs>
<linearGradient id="paint0_linear_1574_27006" x1="12.9305" y1="19.8396" x2="29.6692" y2="48.8303" gradientUnits="userSpaceOnUse">
<stop stop-color="#5A62C3"/>
<stop offset="0.5" stop-color="#4D55BD"/>
<stop offset="1" stop-color="#3940AB"/>
</linearGradient>
</defs>
</svg>
