<svg width="120" height="121" viewBox="0 0 120 121" fill="none" xmlns="http://www.w3.org/2000/svg">
<path fill-rule="evenodd" clip-rule="evenodd" d="M44.1721 16.798C44.1721 15.9696 44.8437 15.298 45.6721 15.298H49.3182C50.1466 15.298 50.8182 15.9696 50.8182 16.798C50.8182 17.6264 50.1466 18.298 49.3182 18.298H47.1721V20.444C47.1721 21.2725 46.5006 21.944 45.6721 21.944C44.8437 21.944 44.1721 21.2725 44.1721 20.444V16.798ZM55.1102 16.798C55.1102 15.9696 55.7818 15.298 56.6102 15.298H63.9023C64.7307 15.298 65.4023 15.9696 65.4023 16.798C65.4023 17.6264 64.7307 18.298 63.9023 18.298H56.6102C55.7818 18.298 55.1102 17.6264 55.1102 16.798ZM69.6944 16.798C69.6944 15.9696 70.3659 15.298 71.1944 15.298H78.4864C79.3148 15.298 79.9864 15.9696 79.9864 16.798C79.9864 17.6264 79.3148 18.298 78.4864 18.298H71.1944C70.3659 18.298 69.6944 17.6264 69.6944 16.798ZM84.2785 16.798C84.2785 15.9696 84.9501 15.298 85.7785 15.298H93.0705C93.899 15.298 94.5705 15.9696 94.5705 16.798C94.5705 17.6264 93.899 18.298 93.0705 18.298H85.7785C84.9501 18.298 84.2785 17.6264 84.2785 16.798ZM98.8626 16.798C98.8626 15.9696 99.5342 15.298 100.363 15.298H104.009C104.837 15.298 105.509 15.9696 105.509 16.798V20.444C105.509 21.2725 104.837 21.944 104.009 21.944C103.18 21.944 102.509 21.2725 102.509 20.444V18.298H100.363C99.5342 18.298 98.8626 17.6264 98.8626 16.798ZM104.009 26.2361C104.837 26.2361 105.509 26.9077 105.509 27.7361V35.0282C105.509 35.8566 104.837 36.5282 104.009 36.5282C103.18 36.5282 102.509 35.8566 102.509 35.0282V27.7361C102.509 26.9077 103.18 26.2361 104.009 26.2361ZM45.6721 26.2361C46.5006 26.2361 47.1721 26.9077 47.1721 27.7361V35.0282C47.1721 35.8566 46.5006 36.5282 45.6721 36.5282C44.8437 36.5282 44.1721 35.8566 44.1721 35.0282V27.7361C44.1721 26.9077 44.8437 26.2361 45.6721 26.2361ZM45.6721 40.8202C46.5006 40.8202 47.1721 41.4918 47.1721 42.3202V49.6123C47.1721 50.4407 46.5006 51.1123 45.6721 51.1123C44.8437 51.1123 44.1721 50.4407 44.1721 49.6123V42.3202C44.1721 41.4918 44.8437 40.8202 45.6721 40.8202ZM104.009 40.8202C104.837 40.8202 105.509 41.4918 105.509 42.3202V49.6123C105.509 50.4407 104.837 51.1123 104.009 51.1123C103.18 51.1123 102.509 50.4407 102.509 49.6123V42.3202C102.509 41.4918 103.18 40.8202 104.009 40.8202ZM104.009 55.4044C104.837 55.4044 105.509 56.0759 105.509 56.9044V64.1964C105.509 65.0249 104.837 65.6964 104.009 65.6964C103.18 65.6964 102.509 65.0249 102.509 64.1964V56.9044C102.509 56.0759 103.18 55.4044 104.009 55.4044ZM45.6721 55.4044C46.5006 55.4044 47.1721 56.0759 47.1721 56.9044V64.1964C47.1721 65.0249 46.5006 65.6964 45.6721 65.6964C44.8437 65.6964 44.1721 65.0249 44.1721 64.1964V56.9044C44.1721 56.0759 44.8437 55.4044 45.6721 55.4044ZM45.6721 69.9885C46.5006 69.9885 47.1721 70.6601 47.1721 71.4885V73.6345H49.3182C50.1466 73.6345 50.8182 74.3061 50.8182 75.1345C50.8182 75.963 50.1466 76.6345 49.3182 76.6345H45.6721C44.8437 76.6345 44.1721 75.963 44.1721 75.1345V71.4885C44.1721 70.6601 44.8437 69.9885 45.6721 69.9885ZM104.009 69.9885C104.837 69.9885 105.509 70.6601 105.509 71.4885V75.1345C105.509 75.963 104.837 76.6345 104.009 76.6345H100.363C99.5342 76.6345 98.8626 75.963 98.8626 75.1345C98.8626 74.3061 99.5342 73.6345 100.363 73.6345H102.509V71.4885C102.509 70.6601 103.18 69.9885 104.009 69.9885ZM55.1102 75.1345C55.1102 74.3061 55.7818 73.6345 56.6102 73.6345H63.9023C64.7307 73.6345 65.4023 74.3061 65.4023 75.1345C65.4023 75.963 64.7307 76.6345 63.9023 76.6345H56.6102C55.7818 76.6345 55.1102 75.963 55.1102 75.1345ZM69.6944 75.1345C69.6944 74.3061 70.3659 73.6345 71.1944 73.6345H78.4864C79.3148 73.6345 79.9864 74.3061 79.9864 75.1345C79.9864 75.963 79.3148 76.6345 78.4864 76.6345H71.1944C70.3659 76.6345 69.6944 75.963 69.6944 75.1345ZM84.2785 75.1345C84.2785 74.3061 84.9501 73.6345 85.7785 73.6345H93.0705C93.899 73.6345 94.5705 74.3061 94.5705 75.1345C94.5705 75.963 93.899 76.6345 93.0705 76.6345H85.7785C84.9501 76.6345 84.2785 75.963 84.2785 75.1345Z" fill="url(#paint0_linear_1574_27135)"/>
<path fill-rule="evenodd" clip-rule="evenodd" d="M15.0041 45.966C15.0041 45.1375 15.6756 44.466 16.5041 44.466H74.8406C75.669 44.466 76.3406 45.1375 76.3406 45.966V104.302C76.3406 105.131 75.669 105.802 74.8406 105.802H16.5041C15.6756 105.802 15.0041 105.131 15.0041 104.302V45.966ZM18.0041 47.466V102.802H73.3406V47.466H18.0041Z" fill="url(#paint1_linear_1574_27135)"/>
<path fill-rule="evenodd" clip-rule="evenodd" d="M104.578 15.4122C105.139 15.6444 105.504 16.1913 105.504 16.798V75.1318C105.504 75.5296 105.346 75.9111 105.065 76.1924L75.8968 105.361C75.4678 105.79 74.8226 105.918 74.2621 105.686C73.7016 105.454 73.3361 104.907 73.3361 104.3V45.9663C73.3361 45.5684 73.4941 45.1869 73.7754 44.9056L102.944 15.7374C103.373 15.3084 104.018 15.18 104.578 15.4122ZM76.3361 46.5876V100.679L102.504 74.5105V20.4193L76.3361 46.5876Z" fill="url(#paint2_linear_1574_27135)"/>
<path fill-rule="evenodd" clip-rule="evenodd" d="M44.6114 15.7374C44.8927 15.4561 45.2743 15.298 45.6721 15.298L104.006 15.2981C104.613 15.2981 105.159 15.6635 105.392 16.224C105.624 16.7846 105.495 17.4297 105.066 17.8587L75.8983 47.027C75.6169 47.3083 75.2354 47.4663 74.8376 47.4663H16.5039C15.8972 47.4663 15.3502 47.1009 15.118 46.5403C14.8859 45.9798 15.0142 45.3347 15.4432 44.9057L44.6114 15.7374ZM46.2934 18.2981L20.1252 44.4663H74.2163L100.385 18.2981H46.2934Z" fill="url(#paint3_linear_1574_27135)"/>
<path fill-rule="evenodd" clip-rule="evenodd" d="M15.4393 105.36C14.8535 104.774 14.8535 103.825 15.4393 103.239L17.87 100.808C17.8722 100.806 17.8745 100.804 17.8768 100.801C18.4632 100.222 19.4078 100.225 19.9913 100.808C20.5771 101.394 20.5771 102.344 19.9913 102.929L17.5606 105.36C16.9748 105.946 16.0251 105.946 15.4393 105.36ZM22.7313 98.0681C22.1455 97.4823 22.1455 96.5326 22.7313 95.9468L27.5926 91.0854C28.1784 90.4996 29.1282 90.4996 29.714 91.0854C30.2997 91.6712 30.2997 92.621 29.714 93.2068L24.8526 98.0681C24.2668 98.6539 23.3171 98.6539 22.7313 98.0681ZM32.454 88.3454C31.8682 87.7596 31.8682 86.8099 32.454 86.2241L37.3153 81.3627C37.9011 80.777 38.8509 80.777 39.4366 81.3627C40.0224 81.9485 40.0224 82.8983 39.4366 83.4841L34.5753 88.3454C33.9895 88.9312 33.0398 88.9312 32.454 88.3454ZM42.1767 78.6227C41.5909 78.0369 41.5909 77.0872 42.1767 76.5014L44.6073 74.0707C45.1931 73.4849 46.1429 73.4849 46.7287 74.0707C47.3145 74.6565 47.3145 75.6063 46.7287 76.192L44.298 78.6227C43.7122 79.2085 42.7625 79.2085 42.1767 78.6227Z" fill="url(#paint4_linear_1574_27135)"/>
<defs>
<linearGradient id="paint0_linear_1574_27135" x1="62.56" y1="86.8396" x2="18.8315" y2="86.7515" gradientUnits="userSpaceOnUse">
<stop stop-color="#3A64FA"/>
<stop offset="0.942707" stop-color="#F963BC"/>
</linearGradient>
<linearGradient id="paint1_linear_1574_27135" x1="62.56" y1="86.8396" x2="18.8315" y2="86.7515" gradientUnits="userSpaceOnUse">
<stop stop-color="#3A64FA"/>
<stop offset="0.942707" stop-color="#F963BC"/>
</linearGradient>
<linearGradient id="paint2_linear_1574_27135" x1="62.56" y1="86.8396" x2="18.8315" y2="86.7515" gradientUnits="userSpaceOnUse">
<stop stop-color="#3A64FA"/>
<stop offset="0.942707" stop-color="#F963BC"/>
</linearGradient>
<linearGradient id="paint3_linear_1574_27135" x1="62.56" y1="86.8396" x2="18.8315" y2="86.7515" gradientUnits="userSpaceOnUse">
<stop stop-color="#3A64FA"/>
<stop offset="0.942707" stop-color="#F963BC"/>
</linearGradient>
<linearGradient id="paint4_linear_1574_27135" x1="62.56" y1="86.8396" x2="18.8315" y2="86.7515" gradientUnits="userSpaceOnUse">
<stop stop-color="#3A64FA"/>
<stop offset="0.942707" stop-color="#F963BC"/>
</linearGradient>
</defs>
</svg>
