<svg width="121" height="121" viewBox="0 0 121 121" fill="none" xmlns="http://www.w3.org/2000/svg">
<path fill-rule="evenodd" clip-rule="evenodd" d="M101.971 91.4175C101.175 91.1902 100.713 90.3601 100.94 89.5635C101.263 88.4345 101.371 87.3067 101.256 86.1847C101.141 85.0625 100.807 83.9796 100.263 82.9392C99.8789 82.2051 100.163 81.2988 100.897 80.9149C101.631 80.531 102.537 80.8149 102.921 81.549C103.631 82.906 104.084 84.355 104.24 85.8791M101.971 91.4175C102.768 91.6448 103.598 91.1833 103.825 90.3867L101.971 91.4175ZM103.825 90.3867C104.246 88.9142 104.396 87.4032 104.24 85.8791L103.825 90.3867ZM99.2698 95.6009C99.8626 96.1796 99.8741 97.1293 99.2954 97.7221C97.4996 99.5616 95.2772 101.274 92.7192 102.823C92.0105 103.252 91.0882 103.025 90.6592 102.316C90.2303 101.607 90.457 100.685 91.1657 100.256C93.5501 98.8129 95.5621 97.2517 97.1487 95.6264C97.7274 95.0336 98.677 95.0222 99.2698 95.6009ZM86.1982 104.505C86.5075 105.273 86.1351 106.147 85.3666 106.456C82.9497 107.429 80.3577 108.287 77.6256 109.009C76.8247 109.221 76.0037 108.744 75.7919 107.943C75.58 107.142 76.0575 106.321 76.8584 106.109C79.4775 105.416 81.9512 104.597 84.2467 103.673C85.0153 103.364 85.889 103.736 86.1982 104.505ZM97.4043 77.3646C96.9409 78.0513 96.0086 78.2324 95.3219 77.769C93.439 76.4985 91.1525 75.3768 88.5252 74.4461C87.7443 74.1694 87.3356 73.3122 87.6122 72.5313C87.8888 71.7504 88.7461 71.3416 89.527 71.6183C92.3456 72.6168 94.8688 73.8442 96.9999 75.2822C97.6866 75.7456 97.8677 76.6779 97.4043 77.3646ZM70.9262 108.948C71.0516 109.767 70.4895 110.533 69.6706 110.658C68.3769 110.856 67.062 111.025 65.7288 111.163C65.7006 111.168 65.6721 111.171 65.6434 111.174C64.2813 111.313 62.9313 111.417 61.5968 111.486C60.7694 111.529 60.064 110.893 60.0211 110.066C59.9782 109.239 60.6141 108.533 61.4414 108.49C62.699 108.425 63.9714 108.328 65.2558 108.198C65.2834 108.194 65.3113 108.19 65.3394 108.187C66.6517 108.053 67.945 107.888 69.2163 107.693C70.0352 107.567 70.8007 108.129 70.9262 108.948ZM82.8001 71.291C82.6528 72.1062 81.8725 72.6477 81.0573 72.5004C78.6222 72.0605 76.0336 71.7587 73.3284 71.6103C72.5012 71.5649 71.8674 70.8576 71.9128 70.0304C71.9581 69.2032 72.6655 68.5694 73.4927 68.6148C76.3146 68.7696 79.0267 69.0851 81.5906 69.5482C82.4058 69.6955 82.9473 70.4757 82.8001 71.291ZM55.0523 110.066C55.0069 110.893 54.2996 111.527 53.4724 111.481C50.6505 111.327 47.9384 111.011 45.3746 110.548C44.5594 110.4 44.0179 109.62 44.1652 108.805C44.3125 107.99 45.0928 107.448 45.908 107.596C48.3431 108.036 50.9316 108.337 53.6368 108.486C54.464 108.531 55.0977 109.239 55.0523 110.066ZM66.9438 70.0305C66.9867 70.8578 66.3508 71.5633 65.5235 71.6062C64.239 71.6728 62.9389 71.7725 61.6266 71.9066C60.3142 72.0409 59.0208 72.2064 57.7494 72.4011C56.9305 72.5266 56.165 71.9644 56.0395 71.1456C55.9141 70.3267 56.4762 69.5612 57.2951 69.4357C58.6161 69.2334 59.9591 69.0616 61.3212 68.9222C62.6833 68.783 64.0335 68.6794 65.3681 68.6102C66.1954 68.5673 66.9009 69.2032 66.9438 70.0305ZM39.3533 107.564C39.0767 108.345 38.2194 108.754 37.4385 108.477C34.6201 107.479 32.0969 106.251 29.9659 104.813C29.2791 104.35 29.0981 103.418 29.5614 102.731C30.0248 102.044 30.9571 101.863 31.6438 102.327C33.5267 103.597 35.8132 104.719 38.4404 105.65C39.2213 105.926 39.63 106.784 39.3533 107.564ZM51.1734 72.1512C51.3853 72.9521 50.9078 73.7731 50.1069 73.985C47.4877 74.6779 45.0139 75.4975 42.7183 76.4213C41.9497 76.7306 41.076 76.3582 40.7667 75.5897C40.4575 74.8212 40.8298 73.9474 41.5983 73.6382C44.0153 72.6656 46.6074 71.8076 49.3397 71.0848C50.1406 70.8729 50.9615 71.3504 51.1734 72.1512ZM36.3054 77.7786C36.7345 78.4873 36.5077 79.4096 35.7991 79.8386C33.4147 81.2821 31.4027 82.8435 29.8161 84.469C29.2375 85.0618 28.2878 85.0734 27.695 84.4947C27.1021 83.9161 27.0906 82.9664 27.6693 82.3735C29.465 80.5338 31.6874 78.8208 34.2454 77.2723C34.9541 76.8432 35.8764 77.07 36.3054 77.7786ZM26.0686 99.1812C25.3346 99.5652 24.4282 99.2814 24.0442 98.5473C23.3343 97.1904 22.8805 95.7414 22.7245 94.2173C22.5686 92.6931 22.7195 91.1821 23.1397 89.7096C23.367 88.9129 24.197 88.4514 24.9937 88.6787C25.7903 88.906 26.2518 89.7361 26.0245 90.5327C25.7024 91.6617 25.5941 92.7896 25.7089 93.9118C25.8237 95.0338 26.1582 96.1163 26.7024 97.1567C27.0864 97.8908 26.8027 98.7971 26.0686 99.1812Z" fill="url(#paint0_linear_1574_27126)"/>
<path fill-rule="evenodd" clip-rule="evenodd" d="M85.8381 40.9255C92.4296 36.7414 95.6957 31.8374 95.2303 27.2848C94.7648 22.7325 90.5733 18.5915 83.2706 15.8287C76.0618 13.1015 66.2619 11.9174 55.6007 13.007C44.9392 14.0978 35.5821 17.2419 29.075 21.3726C22.4831 25.557 19.2173 30.461 19.6832 35.0121C20.1487 39.5646 24.3401 43.7063 31.6425 46.4693C38.8511 49.1969 48.651 50.381 59.3126 49.2901C69.9742 48.1993 79.3311 45.0558 85.8381 40.9255ZM87.4458 43.4583C80.4684 47.8872 70.6423 51.1466 59.6179 52.2746C48.5934 53.4025 38.3106 52.2 30.5808 49.2752C22.9448 46.3859 17.3421 41.6093 16.6988 35.3174C16.0549 29.0268 20.5745 23.2152 27.4672 18.8398C34.4447 14.4105 44.2711 11.1505 55.2956 10.0225C66.3194 8.89589 76.6023 10.0984 84.3322 13.0228C91.9682 15.9118 97.5714 20.6877 98.2147 26.9797C98.858 33.2714 94.3386 39.0831 87.4458 43.4583Z" fill="url(#paint1_linear_1574_27126)"/>
<path fill-rule="evenodd" clip-rule="evenodd" d="M93.4709 102.357C86.4935 106.786 76.6672 110.046 65.6423 111.175C54.6184 112.302 44.3356 111.099 36.6059 108.174C28.97 105.285 23.367 100.509 22.723 94.2181L16.6982 35.3185C16.6139 34.4943 17.2137 33.7579 18.0378 33.6736C18.8619 33.5893 19.5983 34.1891 19.6826 35.0132L19.6829 35.0158C20.1496 39.5672 24.3408 43.7077 31.6419 46.4703C38.8505 49.1979 48.6504 50.3819 59.312 49.2911C69.9736 48.2003 79.3305 45.0568 85.8375 40.9264C92.4282 36.7429 95.6943 31.8396 95.2298 27.2875L95.2297 27.2859C95.1454 26.4617 95.7451 25.7253 96.5693 25.641C97.3934 25.5567 98.1298 26.1565 98.2141 26.9806L104.239 85.88C104.883 92.1707 100.363 97.9818 93.4709 102.357ZM96.0529 35.3343L101.254 86.1854C101.72 90.7365 98.4548 95.64 91.8631 99.8241C85.3562 103.954 75.9991 107.099 65.3369 108.191C54.6759 109.28 44.8762 108.096 37.6675 105.368C30.365 102.605 26.1733 98.4638 25.7074 93.9126L20.5059 43.0622C22.9799 45.6374 26.488 47.7278 30.5802 49.2762C38.31 52.2009 48.5928 53.4035 59.6173 52.2755C70.6417 51.1476 80.4678 47.8882 87.4452 43.4593C91.1392 41.1144 94.1516 38.3571 96.0529 35.3343Z" fill="url(#paint2_linear_1574_27126)"/>
<defs>
<linearGradient id="paint0_linear_1574_27126" x1="64.3528" y1="89.9735" x2="23.6216" y2="92.3018" gradientUnits="userSpaceOnUse">
<stop stop-color="#3A64FA"/>
<stop offset="0.942707" stop-color="#F963BC"/>
</linearGradient>
<linearGradient id="paint1_linear_1574_27126" x1="64.3528" y1="89.9735" x2="23.6216" y2="92.3018" gradientUnits="userSpaceOnUse">
<stop stop-color="#3A64FA"/>
<stop offset="0.942707" stop-color="#F963BC"/>
</linearGradient>
<linearGradient id="paint2_linear_1574_27126" x1="64.3528" y1="89.9735" x2="23.6216" y2="92.3018" gradientUnits="userSpaceOnUse">
<stop stop-color="#3A64FA"/>
<stop offset="0.942707" stop-color="#F963BC"/>
</linearGradient>
</defs>
</svg>
