<svg width="21" height="21" viewBox="0 0 21 21" fill="none" xmlns="http://www.w3.org/2000/svg">
<rect x="0.833313" y="0.298096" width="20" height="20" rx="10" fill="white" fill-opacity="0.15"/>
<path fill-rule="evenodd" clip-rule="evenodd" d="M16.1869 9.94452L13.0049 6.76254C12.8096 6.56727 12.493 6.56727 12.2978 6.76254C12.1025 6.9578 12.1025 7.27438 12.2978 7.46964L14.6262 9.79807L9.83331 9.79807C9.55717 9.79807 9.33331 10.0219 9.33331 10.2981C9.33331 10.5742 9.55717 10.7981 9.83331 10.7981H14.6262L12.2978 13.1265C12.1025 13.3218 12.1025 13.6383 12.2978 13.8336C12.493 14.0289 12.8096 14.0289 13.0049 13.8336L16.1869 10.6516C16.3821 10.4564 16.3821 10.1398 16.1869 9.94452ZM7.83331 7.79807C7.83331 7.52193 7.60946 7.29807 7.33331 7.29807C7.05717 7.29807 6.83331 7.52193 6.83331 7.79807V12.7981C6.83331 13.0742 7.05717 13.2981 7.33331 13.2981C7.60946 13.2981 7.83331 13.0742 7.83331 12.7981L7.83331 7.79807Z" fill="white"/>
</svg>
