<svg width="12" height="15" viewBox="0 0 12 15" fill="none" xmlns="http://www.w3.org/2000/svg">
<path fill-rule="evenodd" clip-rule="evenodd" d="M10 6.59998C10 8.80911 8.20914 10.6 6 10.6C3.79086 10.6 2 8.80911 2 6.59998C2 4.39084 3.79086 2.59998 6 2.59998C8.20914 2.59998 10 4.39084 10 6.59998ZM8.38157 12.1087C7.65149 12.4248 6.8462 12.6 6 12.6C2.68629 12.6 0 9.91368 0 6.59998C0 3.28627 2.68629 0.599976 6 0.599976C9.31371 0.599976 12 3.28627 12 6.59998C12 8.34688 11.2534 9.91942 10.062 11.0159L11.4 12.8C11.7314 13.2418 11.6418 13.8686 11.2 14.2C10.7582 14.5313 10.1314 14.4418 9.8 14L8.38157 12.1087Z" fill="#080216"/>
</svg>
