<svg width="121" height="121" viewBox="0 0 121 121" fill="none" xmlns="http://www.w3.org/2000/svg">
<path fill-rule="evenodd" clip-rule="evenodd" d="M72.1265 12.3126C72.6578 12.3868 73.109 12.7391 73.3098 13.2366L107.246 97.2975C107.556 98.0657 107.185 98.9399 106.417 99.25C105.648 99.5601 104.774 99.1888 104.464 98.4206L71.5029 16.7747L17.4221 86.2568C16.9132 86.9106 15.9708 87.028 15.317 86.5192C14.6633 86.0104 14.5458 85.0679 15.0547 84.4142L70.7352 12.8768C71.0647 12.4535 71.5952 12.2383 72.1265 12.3126Z" fill="url(#paint0_linear_1574_27144)"/>
<path fill-rule="evenodd" clip-rule="evenodd" d="M16.4116 84.0961C17.2321 84.2108 17.8042 84.9688 17.6896 85.7893C17.5458 86.8178 18.1066 88.2652 20.0392 90.0786C21.9224 91.8458 24.8416 93.6964 28.6477 95.4793C36.2423 99.0369 47.0675 102.186 59.3277 103.899C71.5879 105.612 82.8615 105.552 91.1405 104.212C95.2895 103.541 98.6042 102.562 100.9 101.379C103.255 100.164 104.191 98.9262 104.335 97.8977C104.45 97.0772 105.208 96.5051 106.028 96.6197C106.849 96.7344 107.421 97.4924 107.306 98.3129C106.956 100.82 104.901 102.691 102.274 104.045C99.5874 105.43 95.9287 106.477 91.6195 107.174C82.9819 108.571 71.3993 108.615 58.9125 106.87C46.4257 105.125 35.2988 101.908 27.3751 98.1961C23.4221 96.3444 20.1905 94.3347 17.9863 92.2663C15.8315 90.2442 14.3681 87.8809 14.7184 85.3741C14.8331 84.5536 15.5911 83.9815 16.4116 84.0961Z" fill="url(#paint1_linear_1574_27144)"/>
<path fill-rule="evenodd" clip-rule="evenodd" d="M15.9619 87.3135C16.7824 87.4281 17.5404 86.856 17.6551 86.0355C17.7504 85.3533 18.2094 84.5602 19.3303 83.7125C19.9911 83.2128 20.1216 82.2721 19.6219 81.6113C19.1222 80.9506 18.1815 80.82 17.5208 81.3197C16.0307 82.4465 14.928 83.8742 14.684 85.6203C14.5693 86.4408 15.1415 87.1988 15.9619 87.3135ZM105.579 99.8371C106.399 99.9517 107.157 99.3796 107.272 98.5591C107.516 96.813 106.847 95.1377 105.723 93.6455C105.224 92.9839 104.284 92.8515 103.622 93.35C102.96 93.8484 102.828 94.7889 103.326 95.4506C104.172 96.5731 104.396 97.4617 104.301 98.1439C104.186 98.9644 104.758 99.7224 105.579 99.8371ZM24.5183 79.7022C24.7206 80.5055 25.5358 80.9928 26.3391 80.7905C28.6226 80.2155 31.2795 79.7609 34.2444 79.4479C35.0683 79.3609 35.6656 78.6226 35.5787 77.7987C35.4917 76.9748 34.7533 76.3775 33.9295 76.4645C30.8547 76.7891 28.0545 77.2649 25.6066 77.8813C24.8032 78.0836 24.316 78.8988 24.5183 79.7022ZM99.4367 90.1717C99.8514 89.4546 99.6063 88.537 98.8892 88.1223C96.704 86.8584 94.1416 85.6331 91.2736 84.4781C90.5051 84.1686 89.6313 84.5406 89.3218 85.3091C89.0123 86.0775 89.3844 86.9514 90.1528 87.2609C92.9184 88.3747 95.3489 89.5402 97.3872 90.7192C98.1043 91.134 99.0219 90.8889 99.4367 90.1717ZM40.8031 77.4979C40.8176 78.3262 41.5008 78.986 42.3291 78.9715C44.9159 78.9262 47.6369 78.9715 50.4612 79.1147C51.2886 79.1566 51.9933 78.5199 52.0352 77.6925C52.0771 76.8651 51.4404 76.1604 50.613 76.1185C47.7239 75.9721 44.9347 75.9254 42.2766 75.9719C41.4483 75.9864 40.7886 76.6696 40.8031 77.4979ZM84.38 83.5876C84.621 82.795 84.1738 81.9571 83.3812 81.7161C80.8378 80.9428 78.1426 80.223 75.324 79.5718C74.5168 79.3853 73.7113 79.8884 73.5248 80.6956C73.3384 81.5028 73.8415 82.3083 74.6487 82.4948C77.404 83.1314 80.0332 83.8337 82.5085 84.5864C83.3011 84.8274 84.139 84.3802 84.38 83.5876ZM57.2564 78.1173C57.1651 78.9407 57.7586 79.6822 58.582 79.7735C59.9171 79.9214 61.2668 80.0902 62.6282 80.2805C63.9896 80.4707 65.3338 80.6784 66.6584 80.9021C67.4752 81.0401 68.2493 80.4897 68.3872 79.6728C68.5252 78.856 67.9748 78.082 67.158 77.944C65.8054 77.7156 64.433 77.5036 63.0434 77.3094C61.6538 77.1152 60.2759 76.9428 58.9125 76.7917C58.0891 76.7005 57.3476 77.294 57.2564 78.1173Z" fill="url(#paint2_linear_1574_27144)"/>
<defs>
<linearGradient id="paint0_linear_1574_27144" x1="63.3723" y1="88.1081" x2="18.5905" y2="88.0209" gradientUnits="userSpaceOnUse">
<stop stop-color="#3A64FA"/>
<stop offset="0.942707" stop-color="#F963BC"/>
</linearGradient>
<linearGradient id="paint1_linear_1574_27144" x1="63.3723" y1="88.1081" x2="18.5905" y2="88.0209" gradientUnits="userSpaceOnUse">
<stop stop-color="#3A64FA"/>
<stop offset="0.942707" stop-color="#F963BC"/>
</linearGradient>
<linearGradient id="paint2_linear_1574_27144" x1="63.3723" y1="88.1081" x2="18.5905" y2="88.0209" gradientUnits="userSpaceOnUse">
<stop stop-color="#3A64FA"/>
<stop offset="0.942707" stop-color="#F963BC"/>
</linearGradient>
</defs>
</svg>
