<svg width="344" height="263" viewBox="0 0 344 263" fill="none" xmlns="http://www.w3.org/2000/svg">
<path d="M81.1496 65.6635L41.0251 2.56489L2.77847 67.2155" stroke="url(#paint0_linear_1574_27150)" stroke-width="3.5982" stroke-linecap="round" stroke-linejoin="round"/>
<path d="M82.0932 69.9644C82.0932 78.8269 64.3431 86.0115 42.4473 86.0115C20.5515 86.0115 2.80145 78.8269 2.80145 69.9644" stroke="url(#paint1_linear_1574_27150)" stroke-width="3.5982" stroke-linecap="round" stroke-linejoin="round"/>
<path d="M82.0932 128.489C82.0932 137.352 64.3431 144.536 42.4473 144.536C20.5515 144.536 2.80145 137.352 2.80145 128.489" stroke="url(#paint2_linear_1574_27150)" stroke-width="3.5982" stroke-linecap="round" stroke-linejoin="round"/>
<path d="M82.0932 69.9645C82.0932 78.827 64.3431 86.0116 42.4473 86.0116C20.5515 86.0116 2.80145 78.827 2.80145 69.9645" stroke="url(#paint3_linear_1574_27150)" stroke-width="3.5982" stroke-linecap="round" stroke-linejoin="round"/>
<path d="M82.0932 128.489C82.0932 137.352 64.3431 144.536 42.4473 144.536C20.5515 144.536 2.80145 137.352 2.80145 128.489" stroke="url(#paint4_linear_1574_27150)" stroke-width="3.5982" stroke-linecap="round" stroke-linejoin="round"/>
<path d="M82.0932 128.489C82.0932 119.627 64.3431 112.442 42.4473 112.442C20.5515 112.442 2.80145 119.627 2.80145 128.489" stroke="url(#paint5_linear_1574_27150)" stroke-width="3.5982" stroke-linecap="round" stroke-linejoin="round" stroke-dasharray="9.6 9.6"/>
<path d="M2.80145 244.595C2.80145 235.732 20.3502 228.548 41.9977 228.548C52.4025 228.548 61.8604 230.208 68.8779 232.916" stroke="url(#paint6_linear_1574_27150)" stroke-width="3.5982" stroke-linecap="round" stroke-linejoin="round" stroke-dasharray="9.6 9.6"/>
<path d="M82.0932 69.9643C82.0932 61.1017 64.3431 53.9171 42.4473 53.9171C20.5515 53.9171 2.80145 61.1017 2.80145 69.9643" stroke="url(#paint7_linear_1574_27150)" stroke-width="3.5982" stroke-linecap="round" stroke-linejoin="round" stroke-dasharray="9.6 9.6"/>
<path d="M82.0932 128.489C82.0932 119.627 64.3431 112.442 42.4473 112.442C20.5515 112.442 2.80145 119.627 2.80145 128.489" stroke="url(#paint8_linear_1574_27150)" stroke-width="3.5982" stroke-linecap="round" stroke-linejoin="round" stroke-dasharray="9.6 9.6"/>
<path d="M82.0932 69.9643C82.0932 61.1017 64.3431 53.9171 42.4473 53.9171C20.5515 53.9171 2.80145 61.1017 2.80145 69.9643" stroke="url(#paint9_linear_1574_27150)" stroke-width="3.5982" stroke-linecap="round" stroke-linejoin="round" stroke-dasharray="9.6 9.6"/>
<path d="M82.0932 128.489C82.0932 137.352 64.3431 144.536 42.4473 144.536C20.5515 144.536 2.80145 137.352 2.80145 128.489" stroke="url(#paint10_linear_1574_27150)" stroke-width="3.5982" stroke-linecap="round" stroke-linejoin="round"/>
<path d="M82.0932 69.9645C82.0932 78.827 64.3431 86.0116 42.4473 86.0116C20.5515 86.0116 2.80145 78.827 2.80145 69.9645" stroke="url(#paint11_linear_1574_27150)" stroke-width="3.5982" stroke-linecap="round" stroke-linejoin="round"/>
<path d="M82.0932 128.489C82.0932 119.627 64.3431 112.442 42.4473 112.442C20.5515 112.442 2.80145 119.627 2.80145 128.489" stroke="url(#paint12_linear_1574_27150)" stroke-width="3.5982" stroke-linecap="round" stroke-linejoin="round" stroke-dasharray="9.6 9.6"/>
<path d="M82.0932 69.9643C82.0932 61.1017 64.3431 53.9171 42.4473 53.9171C20.5515 53.9171 2.80145 61.1017 2.80145 69.9643" stroke="url(#paint13_linear_1574_27150)" stroke-width="3.5982" stroke-linecap="round" stroke-linejoin="round" stroke-dasharray="9.6 9.6"/>
<path fill-rule="evenodd" clip-rule="evenodd" d="M2.7991 66.2772C3.79272 66.2772 4.5982 67.0827 4.5982 68.0763L4.5982 185.126C4.5982 185.288 4.57692 185.444 4.53702 185.593C4.5787 185.745 4.60095 185.905 4.60095 186.07C4.60095 187.647 5.37417 189.321 7.13336 191.024C8.89789 192.731 11.5454 194.352 14.9638 195.752C21.792 198.548 31.3491 200.318 41.9981 200.318C52.2322 200.318 61.4623 198.683 68.2306 196.071C69.1576 195.713 70.199 196.175 70.5567 197.102C70.9145 198.028 70.453 199.07 69.526 199.428C62.2593 202.232 52.5736 203.916 41.9981 203.916C30.9997 203.916 20.9587 202.094 13.6005 199.082C9.92586 197.578 6.83318 195.741 4.63083 193.609C2.42314 191.472 1.00276 188.924 1.00276 186.07C1.00276 185.908 1.02403 185.752 1.06393 185.603C1.02226 185.451 1 185.291 1 185.126L1.00001 68.0763C1.00001 67.0827 1.80549 66.2772 2.7991 66.2772ZM84.2734 70.8194C84.2734 69.8257 83.4679 69.0203 82.4743 69.0203C81.4806 69.0203 80.6752 69.8257 80.6752 70.8194V128.578C80.6752 129.571 81.4806 130.377 82.4743 130.377C83.4679 130.377 84.2734 129.571 84.2734 128.578V70.8194Z" fill="url(#paint14_linear_1574_27150)"/>
<path fill-rule="evenodd" clip-rule="evenodd" d="M4.5982 126.601C4.5982 125.608 3.79272 124.802 2.7991 124.802C1.80549 124.802 1.00001 125.608 1.00001 126.601L1 243.651C1 243.816 1.02225 243.976 1.06392 244.128C1.02403 244.277 1.00276 244.433 1.00276 244.595C1.00276 247.449 2.42314 249.997 4.63083 252.134C6.83318 254.266 9.92586 256.102 13.6005 257.607C20.9587 260.619 30.9997 262.441 41.9981 262.441C52.5736 262.441 62.2593 260.757 69.526 257.953C70.453 257.595 70.9145 256.553 70.5567 255.626C70.199 254.699 69.1576 254.238 68.2306 254.596C61.4623 257.208 52.2322 258.843 41.9981 258.843C31.3491 258.843 21.792 257.072 14.9638 254.277C11.5454 252.877 8.89789 251.256 7.13336 249.548C5.37417 247.846 4.60095 246.172 4.60095 244.595C4.60095 244.43 4.5787 244.27 4.53704 244.118C4.57693 243.969 4.5982 243.813 4.5982 243.651L4.5982 126.601Z" fill="url(#paint15_linear_1574_27150)"/>
<path d="M2.80145 186.07C2.80145 177.207 20.3502 170.023 41.9977 170.023C52.4025 170.023 61.8604 171.683 68.8779 174.391" stroke="url(#paint16_linear_1574_27150)" stroke-width="3.5982" stroke-linecap="round" stroke-linejoin="round" stroke-dasharray="9.6 9.6"/>
<path d="M2.80145 186.07C2.80145 194.933 20.3502 202.117 41.9977 202.117C52.4025 202.117 61.8604 200.457 68.8779 197.749" stroke="url(#paint17_linear_1574_27150)" stroke-width="3.5982" stroke-linecap="round" stroke-linejoin="round"/>
<path d="M69.2465 260.791L99.6818 231.65L99.6818 115.274" stroke="url(#paint18_linear_1574_27150)" stroke-width="3.5982" stroke-linecap="round" stroke-linejoin="round" stroke-dasharray="9.6 9.6"/>
<path d="M130.593 260.791L161.029 231.65L161.029 115.274" stroke="url(#paint19_linear_1574_27150)" stroke-width="3.5982" stroke-linecap="round" stroke-linejoin="round" stroke-dasharray="9.6 9.6"/>
<path d="M191.006 260.791L221.441 231.65L221.441 115.274" stroke="url(#paint20_linear_1574_27150)" stroke-width="3.5982" stroke-linecap="round" stroke-linejoin="round" stroke-dasharray="9.6 9.6"/>
<path d="M130.122 144.37H69.2511V202.653H130.122V144.37Z" stroke="url(#paint21_linear_1574_27150)" stroke-width="3.5982" stroke-linecap="round" stroke-linejoin="round"/>
<path fill-rule="evenodd" clip-rule="evenodd" d="M265.641 132.038C266.288 132.793 266.201 133.928 265.446 134.575L252.231 145.902C251.476 146.549 250.341 146.462 249.694 145.707C249.047 144.953 249.135 143.817 249.889 143.17L263.104 131.843C263.859 131.196 264.995 131.284 265.641 132.038ZM264.089 189.926C264.829 190.592 264.865 191.705 264.169 192.413L252.937 203.855C252.242 204.563 251.079 204.597 250.34 203.932C249.6 203.266 249.564 202.153 250.259 201.445L261.491 190.003C262.186 189.295 263.349 189.26 264.089 189.926ZM264.169 249.894C264.865 249.186 264.829 248.072 264.089 247.407C263.349 246.741 262.186 246.776 261.491 247.484L250.259 258.925C249.564 259.633 249.6 260.747 250.34 261.413C251.079 262.078 252.242 262.044 252.937 261.336L264.169 249.894Z" fill="url(#paint22_linear_1574_27150)"/>
<path fill-rule="evenodd" clip-rule="evenodd" d="M69.822 172C68.8284 172 68.0229 172.805 68.0229 173.799C68.0229 174.793 68.8284 175.598 69.822 175.598L74.6362 175.598C75.6298 175.598 76.4353 174.793 76.4353 173.799C76.4353 172.805 75.6298 172 74.6362 172H69.822ZM84.2645 172C83.2709 172 82.4654 172.805 82.4654 173.799C82.4654 174.793 83.2709 175.598 84.2645 175.598L93.8928 175.598C94.8864 175.598 95.6919 174.793 95.6919 173.799C95.6919 172.805 94.8864 172 93.8928 172L84.2645 172ZM103.521 172C102.527 172 101.722 172.805 101.722 173.799C101.722 174.793 102.527 175.598 103.521 175.598L113.149 175.598C114.143 175.598 114.948 174.793 114.948 173.799C114.948 172.805 114.143 172 113.149 172L103.521 172ZM122.778 172C121.784 172 120.979 172.805 120.979 173.799C120.979 174.793 121.784 175.598 122.778 175.598L132.406 175.598C133.399 175.598 134.205 174.793 134.205 173.799C134.205 172.805 133.399 172 132.406 172L122.778 172ZM142.034 172C141.041 172 140.235 172.805 140.235 173.799C140.235 174.793 141.041 175.598 142.034 175.598L151.662 175.598C152.656 175.598 153.462 174.793 153.462 173.799C153.462 172.805 152.656 172 151.662 172L142.034 172ZM161.291 172C160.297 172 159.492 172.805 159.492 173.799C159.492 174.793 160.297 175.598 161.291 175.598L170.919 175.598C171.913 175.598 172.718 174.793 172.718 173.799C172.718 172.805 171.913 172 170.919 172L161.291 172ZM180.547 172C179.554 172 178.748 172.805 178.748 173.799C178.748 174.793 179.554 175.598 180.547 175.598L190.176 175.598C191.169 175.598 191.975 174.793 191.975 173.799C191.975 172.805 191.169 172 190.176 172L180.547 172ZM199.804 172C198.81 172 198.005 172.805 198.005 173.799C198.005 174.793 198.81 175.598 199.804 175.598L209.432 175.598C210.426 175.598 211.231 174.793 211.231 173.799C211.231 172.805 210.426 172 209.432 172L199.804 172ZM219.06 172C218.067 172 217.261 172.805 217.261 173.799C217.261 174.793 218.067 175.598 219.06 175.598L228.689 175.598C229.682 175.598 230.488 174.793 230.488 173.799C230.488 172.805 229.682 172 228.689 172L219.06 172ZM238.317 172C237.323 172 236.518 172.805 236.518 173.799C236.518 174.793 237.323 175.598 238.317 175.598L247.945 175.598C248.939 175.598 249.744 174.793 249.744 173.799C249.744 172.805 248.939 172 247.945 172L238.317 172ZM257.574 172C256.58 172 255.774 172.805 255.774 173.799C255.774 174.793 256.58 175.598 257.574 175.598L262.388 175.598C263.381 175.598 264.187 174.793 264.187 173.799C264.187 172.805 263.381 172 262.388 172L257.574 172ZM69.822 229.581C68.8284 229.581 68.0229 230.386 68.0229 231.38C68.0229 232.374 68.8284 233.179 69.822 233.179H74.6362C75.6298 233.179 76.4353 232.374 76.4353 231.38C76.4353 230.386 75.6298 229.581 74.6362 229.581H69.822ZM84.2645 229.581C83.2709 229.581 82.4654 230.386 82.4654 231.38C82.4654 232.374 83.2709 233.179 84.2645 233.179H93.8928C94.8864 233.179 95.6919 232.374 95.6919 231.38C95.6919 230.386 94.8864 229.581 93.8928 229.581L84.2645 229.581ZM103.521 229.581C102.527 229.581 101.722 230.386 101.722 231.38C101.722 232.374 102.527 233.179 103.521 233.179H113.149C114.143 233.179 114.948 232.374 114.948 231.38C114.948 230.386 114.143 229.581 113.149 229.581H103.521ZM122.778 229.581C121.784 229.581 120.979 230.386 120.979 231.38C120.979 232.374 121.784 233.179 122.778 233.179H132.406C133.399 233.179 134.205 232.374 134.205 231.38C134.205 230.386 133.399 229.581 132.406 229.581L122.778 229.581ZM142.034 229.581C141.041 229.581 140.235 230.386 140.235 231.38C140.235 232.374 141.041 233.179 142.034 233.179L151.662 233.179C152.656 233.179 153.462 232.374 153.462 231.38C153.462 230.386 152.656 229.581 151.662 229.581H142.034ZM161.291 229.581C160.297 229.581 159.492 230.386 159.492 231.38C159.492 232.374 160.297 233.179 161.291 233.179H170.919C171.913 233.179 172.718 232.374 172.718 231.38C172.718 230.386 171.913 229.581 170.919 229.581H161.291ZM180.547 229.581C179.554 229.581 178.748 230.386 178.748 231.38C178.748 232.374 179.554 233.179 180.547 233.179L190.176 233.179C191.169 233.179 191.975 232.374 191.975 231.38C191.975 230.386 191.169 229.581 190.176 229.581H180.547ZM199.804 229.581C198.81 229.581 198.005 230.386 198.005 231.38C198.005 232.374 198.81 233.179 199.804 233.179H209.432C210.426 233.179 211.231 232.374 211.231 231.38C211.231 230.386 210.426 229.581 209.432 229.581H199.804ZM219.06 229.581C218.067 229.581 217.261 230.386 217.261 231.38C217.261 232.374 218.067 233.179 219.06 233.179H228.689C229.682 233.179 230.488 232.374 230.488 231.38C230.488 230.386 229.682 229.581 228.689 229.581H219.06ZM238.317 229.581C237.323 229.581 236.518 230.386 236.518 231.38C236.518 232.374 237.323 233.179 238.317 233.179H247.945C248.939 233.179 249.744 232.374 249.744 231.38C249.744 230.386 248.939 229.581 247.945 229.581H238.317ZM257.574 229.581C256.58 229.581 255.774 230.386 255.774 231.38C255.774 232.374 256.58 233.179 257.574 233.179H262.388C263.381 233.179 264.187 232.374 264.187 231.38C264.187 230.386 263.381 229.581 262.388 229.581L257.574 229.581Z" fill="url(#paint23_linear_1574_27150)"/>
<path d="M130.117 202.65V144.37L160.552 115.228" stroke="url(#paint24_linear_1574_27150)" stroke-width="3.5982" stroke-linecap="round" stroke-linejoin="round"/>
<path d="M130.119 144.37H69.2506L99.6861 115.228H160.554L130.119 144.37Z" stroke="url(#paint25_linear_1574_27150)" stroke-width="3.5982" stroke-linecap="round" stroke-linejoin="round"/>
<path fill-rule="evenodd" clip-rule="evenodd" d="M67.947 203.241C67.2293 202.554 67.2293 201.439 67.947 200.752L71.7514 197.11C71.7962 197.067 71.8428 197.026 71.8909 196.989C72.6128 196.425 73.6775 196.465 74.3503 197.11C75.068 197.797 75.068 198.911 74.3503 199.598L70.5459 203.241C69.8282 203.928 68.6646 203.928 67.947 203.241ZM79.3602 192.313C78.6425 191.625 78.6425 190.511 79.3602 189.824L86.969 182.539C87.6867 181.852 88.8503 181.852 89.568 182.539C90.2857 183.226 90.2857 184.34 89.568 185.027L81.9592 192.313C81.2415 193 80.0779 193 79.3602 192.313ZM94.5779 177.742C93.8602 177.055 93.8602 175.941 94.5779 175.253L98.3823 171.611C99.1 170.924 100.264 170.924 100.981 171.611C101.699 172.298 101.699 173.412 100.981 174.099L97.1768 177.742C96.4591 178.429 95.2955 178.429 94.5779 177.742ZM128.731 203.894C128.013 203.207 128.013 202.093 128.731 201.406L132.535 197.763C132.58 197.72 132.626 197.68 132.675 197.642C133.396 197.078 134.461 197.119 135.134 197.763C135.852 198.45 135.852 199.564 135.134 200.251L131.33 203.894C130.612 204.581 129.448 204.581 128.731 203.894ZM140.144 192.966C139.426 192.279 139.426 191.165 140.144 190.477L147.753 183.192C148.47 182.505 149.634 182.505 150.352 183.192C151.069 183.879 151.069 184.993 150.352 185.681L142.743 192.966C142.025 193.653 140.862 193.653 140.144 192.966ZM155.361 178.395C154.644 177.708 154.644 176.594 155.361 175.907L159.166 172.264C159.884 171.577 161.047 171.577 161.765 172.264C162.483 172.951 162.483 174.065 161.765 174.752L157.96 178.395C157.243 179.082 156.079 179.082 155.361 178.395ZM190.292 201.406C189.574 202.093 189.574 203.207 190.292 203.894C191.01 204.581 192.173 204.581 192.891 203.894L196.695 200.251C197.413 199.564 197.413 198.45 196.695 197.763C196.023 197.119 194.958 197.078 194.236 197.642C194.188 197.68 194.141 197.72 194.096 197.763L190.292 201.406ZM201.705 190.477C200.988 191.165 200.988 192.279 201.705 192.966C202.423 193.653 203.586 193.653 204.304 192.966L211.913 185.681C212.631 184.993 212.631 183.879 211.913 183.192C211.195 182.505 210.032 182.505 209.314 183.192L201.705 190.477ZM216.923 175.907C216.205 176.594 216.205 177.708 216.923 178.395C217.641 179.082 218.804 179.082 219.522 178.395L223.326 174.752C224.044 174.065 224.044 172.951 223.326 172.264C222.609 171.577 221.445 171.577 220.727 172.264L216.923 175.907Z" fill="url(#paint26_linear_1574_27150)"/>
<path d="M130.036 144.369V202.652H190.907" stroke="url(#paint27_linear_1574_27150)" stroke-width="3.5982" stroke-linecap="round" stroke-linejoin="round"/>
<path d="M190.902 144.369H130.034L160.47 115.228H221.338L190.902 144.369Z" stroke="url(#paint28_linear_1574_27150)" stroke-width="3.5982" stroke-linecap="round" stroke-linejoin="round"/>
<path d="M190.819 144.369L221.254 115.228L261.913 115.228" stroke="url(#paint29_linear_1574_27150)" stroke-width="3.5982" stroke-linecap="round" stroke-linejoin="round"/>
<path d="M251.058 144.536H191.589V203.061H251.058V144.536Z" stroke="url(#paint30_linear_1574_27150)" stroke-width="3.5982" stroke-linecap="round" stroke-linejoin="round"/>
<path fill-rule="evenodd" clip-rule="evenodd" d="M264.188 130.377C264.188 129.383 263.382 128.578 262.388 128.578C261.395 128.578 260.589 129.383 260.589 130.377V242.707C260.589 243.701 261.395 244.506 262.388 244.506C263.382 244.506 264.188 243.701 264.188 242.707V130.377ZM343.48 130.377C343.48 129.383 342.674 128.578 341.68 128.578C340.687 128.578 339.881 129.383 339.881 130.377V242.707C339.881 243.701 340.687 244.506 341.68 244.506C342.674 244.506 343.48 243.701 343.48 242.707V130.377Z" fill="url(#paint31_linear_1574_27150)"/>
<path d="M341.68 128.489C341.68 137.352 323.929 144.536 302.034 144.536C280.138 144.536 262.388 137.352 262.388 128.489" stroke="url(#paint32_linear_1574_27150)" stroke-width="3.5982" stroke-linecap="round" stroke-linejoin="round"/>
<path d="M341.68 186.07C341.68 194.933 323.929 202.117 302.034 202.117C280.138 202.117 262.388 194.933 262.388 186.07" stroke="url(#paint33_linear_1574_27150)" stroke-width="3.5982" stroke-linecap="round" stroke-linejoin="round"/>
<path d="M341.68 186.07C341.68 177.207 323.929 170.023 302.034 170.023C280.138 170.023 262.388 177.207 262.388 186.07" stroke="url(#paint34_linear_1574_27150)" stroke-width="3.5982" stroke-linecap="round" stroke-linejoin="round" stroke-dasharray="9.6 9.6"/>
<path d="M341.68 128.489C341.68 137.352 323.929 144.536 302.034 144.536C280.138 144.536 262.388 137.352 262.388 128.489" stroke="url(#paint35_linear_1574_27150)" stroke-width="3.5982" stroke-linecap="round" stroke-linejoin="round"/>
<path d="M341.68 244.595C341.68 235.732 323.929 228.548 302.034 228.548C280.138 228.548 262.388 235.732 262.388 244.595" stroke="url(#paint36_linear_1574_27150)" stroke-width="3.5982" stroke-linecap="round" stroke-linejoin="round" stroke-dasharray="9.6 9.6"/>
<path d="M341.68 128.489C341.68 119.627 323.929 112.442 302.034 112.442C280.138 112.442 262.388 119.627 262.388 128.489" stroke="url(#paint37_linear_1574_27150)" stroke-width="3.5982" stroke-linecap="round" stroke-linejoin="round" stroke-dasharray="9.6 9.6"/>
<path d="M341.68 128.489C341.68 119.627 323.929 112.442 302.034 112.442C280.138 112.442 262.388 119.627 262.388 128.489" stroke="url(#paint38_linear_1574_27150)" stroke-width="3.5982" stroke-linecap="round" stroke-linejoin="round" stroke-dasharray="9.6 9.6"/>
<path d="M341.68 186.07C341.68 194.933 323.929 202.117 302.034 202.117C280.138 202.117 262.388 194.933 262.388 186.07" stroke="url(#paint39_linear_1574_27150)" stroke-width="3.5982" stroke-linecap="round" stroke-linejoin="round"/>
<path d="M341.68 128.489C341.68 137.352 323.929 144.536 302.034 144.536C280.138 144.536 262.388 137.352 262.388 128.489" stroke="url(#paint40_linear_1574_27150)" stroke-width="3.5982" stroke-linecap="round" stroke-linejoin="round"/>
<path d="M341.68 128.489C341.68 119.627 323.929 112.442 302.034 112.442C280.138 112.442 262.388 119.627 262.388 128.489" stroke="url(#paint41_linear_1574_27150)" stroke-width="3.5982" stroke-linecap="round" stroke-linejoin="round" stroke-dasharray="9.6 9.6"/>
<path d="M341.68 186.07C341.68 177.207 323.929 170.023 302.034 170.023C280.138 170.023 262.388 177.207 262.388 186.07" stroke="url(#paint42_linear_1574_27150)" stroke-width="3.5982" stroke-linecap="round" stroke-linejoin="round" stroke-dasharray="9.6 9.6"/>
<path d="M341.68 244.595C341.68 253.458 323.929 260.642 302.034 260.642C280.138 260.642 262.388 253.458 262.388 244.595" stroke="url(#paint43_linear_1574_27150)" stroke-width="3.5982" stroke-linecap="round" stroke-linejoin="round"/>
<path d="M341.68 186.07C341.68 194.933 323.929 202.117 302.034 202.117C280.138 202.117 262.388 194.933 262.388 186.07" stroke="url(#paint44_linear_1574_27150)" stroke-width="3.5982" stroke-linecap="round" stroke-linejoin="round"/>
<path d="M251.058 203.061H191.589V260.642H251.058V203.061Z" stroke="url(#paint45_linear_1574_27150)" stroke-width="3.5982" stroke-linecap="round" stroke-linejoin="round"/>
<path d="M130.036 202.51V260.794H190.907" stroke="url(#paint46_linear_1574_27150)" stroke-width="3.5982" stroke-linecap="round" stroke-linejoin="round"/>
<path d="M69.2511 202.511V260.794H130.122" stroke="url(#paint47_linear_1574_27150)" stroke-width="3.5982" stroke-linecap="round" stroke-linejoin="round"/>
<path d="M340.735 65.6635L300.611 2.56489L262.364 67.2155" stroke="url(#paint48_linear_1574_27150)" stroke-width="3.5982" stroke-linecap="round" stroke-linejoin="round"/>
<path d="M341.68 69.9644C341.68 78.8269 323.929 86.0115 302.034 86.0115C280.138 86.0115 262.388 78.8269 262.388 69.9644" stroke="url(#paint49_linear_1574_27150)" stroke-width="3.5982" stroke-linecap="round" stroke-linejoin="round"/>
<path d="M341.68 69.9645C341.68 78.827 323.929 86.0116 302.034 86.0116C280.138 86.0116 262.388 78.827 262.388 69.9645" stroke="url(#paint50_linear_1574_27150)" stroke-width="3.5982" stroke-linecap="round" stroke-linejoin="round"/>
<path d="M341.68 69.9643C341.68 61.1017 323.929 53.9171 302.034 53.9171C280.138 53.9171 262.388 61.1017 262.388 69.9643" stroke="url(#paint51_linear_1574_27150)" stroke-width="3.5982" stroke-linecap="round" stroke-linejoin="round" stroke-dasharray="9.6 9.6"/>
<path d="M341.68 69.9643C341.68 61.1017 323.929 53.9171 302.034 53.9171C280.138 53.9171 262.388 61.1017 262.388 69.9643" stroke="url(#paint52_linear_1574_27150)" stroke-width="3.5982" stroke-linecap="round" stroke-linejoin="round" stroke-dasharray="9.6 9.6"/>
<path d="M341.68 69.9645C341.68 78.827 323.929 86.0116 302.034 86.0116C280.138 86.0116 262.388 78.827 262.388 69.9645" stroke="url(#paint53_linear_1574_27150)" stroke-width="3.5982" stroke-linecap="round" stroke-linejoin="round"/>
<path d="M341.68 69.9643C341.68 61.1017 323.929 53.9171 302.034 53.9171C280.138 53.9171 262.388 61.1017 262.388 69.9643" stroke="url(#paint54_linear_1574_27150)" stroke-width="3.5982" stroke-linecap="round" stroke-linejoin="round" stroke-dasharray="9.6 9.6"/>
<path fill-rule="evenodd" clip-rule="evenodd" d="M262.385 66.2772C263.379 66.2772 264.184 67.0827 264.184 68.0763L264.184 185.126C264.184 185.287 264.163 185.443 264.123 185.592C264.165 185.744 264.187 185.904 264.187 186.07C264.187 187.647 264.96 189.321 266.72 191.024C268.484 192.731 271.132 194.352 274.55 195.752C281.378 198.548 290.935 200.318 301.584 200.318C311.818 200.318 321.049 198.683 327.817 196.071C328.744 195.713 329.785 196.175 330.143 197.102C330.501 198.028 330.039 199.07 329.112 199.428C321.846 202.232 312.16 203.916 301.584 203.916C290.586 203.916 280.545 202.094 273.187 199.082C269.512 197.578 266.419 195.741 264.217 193.609C262.009 191.472 260.589 188.924 260.589 186.07C260.589 185.909 260.61 185.753 260.65 185.604C260.608 185.452 260.586 185.291 260.586 185.126L260.586 68.0763C260.586 67.0827 261.391 66.2772 262.385 66.2772ZM343.86 70.8194C343.86 69.8258 343.054 69.0203 342.06 69.0203C341.067 69.0203 340.261 69.8258 340.261 70.8194V128.578C340.261 129.572 341.067 130.377 342.06 130.377C343.054 130.377 343.86 129.572 343.86 128.578V70.8194Z" fill="url(#paint55_linear_1574_27150)"/>
<defs>
<linearGradient id="paint0_linear_1574_27150" x1="65.3501" y1="50.7223" x2="7.52951" y2="35.6255" gradientUnits="userSpaceOnUse">
<stop stop-color="#3A64FA"/>
<stop offset="0.942707" stop-color="#F963BC"/>
</linearGradient>
<linearGradient id="paint1_linear_1574_27150" x1="66.3304" y1="82.1081" x2="38.4351" y2="50.9406" gradientUnits="userSpaceOnUse">
<stop stop-color="#3A64FA"/>
<stop offset="0.942707" stop-color="#F963BC"/>
</linearGradient>
<linearGradient id="paint2_linear_1574_27150" x1="66.3304" y1="140.633" x2="38.4351" y2="109.465" gradientUnits="userSpaceOnUse">
<stop stop-color="#3A64FA"/>
<stop offset="0.942707" stop-color="#F963BC"/>
</linearGradient>
<linearGradient id="paint3_linear_1574_27150" x1="66.3304" y1="73.8678" x2="38.4351" y2="105.035" gradientUnits="userSpaceOnUse">
<stop stop-color="#3A64FA"/>
<stop offset="0.942707" stop-color="#F963BC"/>
</linearGradient>
<linearGradient id="paint4_linear_1574_27150" x1="66.3304" y1="132.393" x2="38.4351" y2="163.56" gradientUnits="userSpaceOnUse">
<stop stop-color="#3A64FA"/>
<stop offset="0.942707" stop-color="#F963BC"/>
</linearGradient>
<linearGradient id="paint5_linear_1574_27150" x1="66.3304" y1="124.586" x2="38.4351" y2="93.4184" gradientUnits="userSpaceOnUse">
<stop stop-color="#3A64FA"/>
<stop offset="0.942707" stop-color="#F963BC"/>
</linearGradient>
<linearGradient id="paint6_linear_1574_27150" x1="55.7422" y1="240.692" x2="27.7465" y2="214.625" gradientUnits="userSpaceOnUse">
<stop stop-color="#3A64FA"/>
<stop offset="0.942707" stop-color="#F963BC"/>
</linearGradient>
<linearGradient id="paint7_linear_1574_27150" x1="66.3304" y1="66.0609" x2="38.4351" y2="34.8934" gradientUnits="userSpaceOnUse">
<stop stop-color="#3A64FA"/>
<stop offset="0.942707" stop-color="#F963BC"/>
</linearGradient>
<linearGradient id="paint8_linear_1574_27150" x1="66.3304" y1="124.586" x2="38.4351" y2="93.4184" gradientUnits="userSpaceOnUse">
<stop stop-color="#3A64FA"/>
<stop offset="0.942707" stop-color="#F963BC"/>
</linearGradient>
<linearGradient id="paint9_linear_1574_27150" x1="66.3304" y1="66.0609" x2="38.4351" y2="34.8934" gradientUnits="userSpaceOnUse">
<stop stop-color="#3A64FA"/>
<stop offset="0.942707" stop-color="#F963BC"/>
</linearGradient>
<linearGradient id="paint10_linear_1574_27150" x1="66.3304" y1="132.393" x2="38.4351" y2="163.56" gradientUnits="userSpaceOnUse">
<stop stop-color="#3A64FA"/>
<stop offset="0.942707" stop-color="#F963BC"/>
</linearGradient>
<linearGradient id="paint11_linear_1574_27150" x1="66.3304" y1="73.8678" x2="38.4351" y2="105.035" gradientUnits="userSpaceOnUse">
<stop stop-color="#3A64FA"/>
<stop offset="0.942707" stop-color="#F963BC"/>
</linearGradient>
<linearGradient id="paint12_linear_1574_27150" x1="66.3304" y1="124.586" x2="38.4351" y2="93.4184" gradientUnits="userSpaceOnUse">
<stop stop-color="#3A64FA"/>
<stop offset="0.942707" stop-color="#F963BC"/>
</linearGradient>
<linearGradient id="paint13_linear_1574_27150" x1="66.3304" y1="66.0609" x2="38.4351" y2="34.8934" gradientUnits="userSpaceOnUse">
<stop stop-color="#3A64FA"/>
<stop offset="0.942707" stop-color="#F963BC"/>
</linearGradient>
<linearGradient id="paint14_linear_1574_27150" x1="67.719" y1="170.436" x2="3.06079" y2="161.591" gradientUnits="userSpaceOnUse">
<stop stop-color="#3A64FA"/>
<stop offset="0.942707" stop-color="#F963BC"/>
</linearGradient>
<linearGradient id="paint15_linear_1574_27150" x1="56.8264" y1="228.961" x2="2.42463" y2="222.734" gradientUnits="userSpaceOnUse">
<stop stop-color="#3A64FA"/>
<stop offset="0.942707" stop-color="#F963BC"/>
</linearGradient>
<linearGradient id="paint16_linear_1574_27150" x1="55.7422" y1="182.167" x2="27.7465" y2="156.1" gradientUnits="userSpaceOnUse">
<stop stop-color="#3A64FA"/>
<stop offset="0.942707" stop-color="#F963BC"/>
</linearGradient>
<linearGradient id="paint17_linear_1574_27150" x1="55.7422" y1="189.973" x2="27.7465" y2="216.04" gradientUnits="userSpaceOnUse">
<stop stop-color="#3A64FA"/>
<stop offset="0.942707" stop-color="#F963BC"/>
</linearGradient>
<linearGradient id="paint18_linear_1574_27150" x1="127.539" y1="176.669" x2="42.4042" y2="220.525" gradientUnits="userSpaceOnUse">
<stop stop-color="#3A64FA"/>
<stop offset="0.942707" stop-color="#F963BC"/>
</linearGradient>
<linearGradient id="paint19_linear_1574_27150" x1="188.886" y1="176.669" x2="103.751" y2="220.525" gradientUnits="userSpaceOnUse">
<stop stop-color="#3A64FA"/>
<stop offset="0.942707" stop-color="#F963BC"/>
</linearGradient>
<linearGradient id="paint20_linear_1574_27150" x1="249.299" y1="176.669" x2="164.164" y2="220.525" gradientUnits="userSpaceOnUse">
<stop stop-color="#3A64FA"/>
<stop offset="0.942707" stop-color="#F963BC"/>
</linearGradient>
<linearGradient id="paint21_linear_1574_27150" x1="118.021" y1="188.476" x2="72.4164" y2="177.706" gradientUnits="userSpaceOnUse">
<stop stop-color="#3A64FA"/>
<stop offset="0.942707" stop-color="#F963BC"/>
</linearGradient>
<linearGradient id="paint22_linear_1574_27150" x1="262.732" y1="230.152" x2="249.444" y2="229.764" gradientUnits="userSpaceOnUse">
<stop stop-color="#3A64FA"/>
<stop offset="0.942707" stop-color="#F963BC"/>
</linearGradient>
<linearGradient id="paint23_linear_1574_27150" x1="225.19" y1="218.298" x2="123.488" y2="144.561" gradientUnits="userSpaceOnUse">
<stop stop-color="#3A64FA"/>
<stop offset="0.942707" stop-color="#F963BC"/>
</linearGradient>
<linearGradient id="paint24_linear_1574_27150" x1="154.502" y1="181.385" x2="130.576" y2="179.502" gradientUnits="userSpaceOnUse">
<stop stop-color="#3A64FA"/>
<stop offset="0.942707" stop-color="#F963BC"/>
</linearGradient>
<linearGradient id="paint25_linear_1574_27150" x1="142.404" y1="137.281" x2="94.3181" y2="103.214" gradientUnits="userSpaceOnUse">
<stop stop-color="#3A64FA"/>
<stop offset="0.942707" stop-color="#F963BC"/>
</linearGradient>
<linearGradient id="paint26_linear_1574_27150" x1="192.762" y1="196.306" x2="134.599" y2="134.54" gradientUnits="userSpaceOnUse">
<stop stop-color="#3A64FA"/>
<stop offset="0.942707" stop-color="#F963BC"/>
</linearGradient>
<linearGradient id="paint27_linear_1574_27150" x1="178.806" y1="188.475" x2="133.201" y2="177.705" gradientUnits="userSpaceOnUse">
<stop stop-color="#3A64FA"/>
<stop offset="0.942707" stop-color="#F963BC"/>
</linearGradient>
<linearGradient id="paint28_linear_1574_27150" x1="203.187" y1="137.281" x2="155.102" y2="103.214" gradientUnits="userSpaceOnUse">
<stop stop-color="#3A64FA"/>
<stop offset="0.942707" stop-color="#F963BC"/>
</linearGradient>
<linearGradient id="paint29_linear_1574_27150" x1="247.78" y1="137.281" x2="204.665" y2="113.497" gradientUnits="userSpaceOnUse">
<stop stop-color="#3A64FA"/>
<stop offset="0.942707" stop-color="#F963BC"/>
</linearGradient>
<linearGradient id="paint30_linear_1574_27150" x1="239.236" y1="188.825" x2="194.556" y2="178.559" gradientUnits="userSpaceOnUse">
<stop stop-color="#3A64FA"/>
<stop offset="0.942707" stop-color="#F963BC"/>
</linearGradient>
<linearGradient id="paint31_linear_1574_27150" x1="327.001" y1="216.307" x2="263.106" y2="205.977" gradientUnits="userSpaceOnUse">
<stop stop-color="#3A64FA"/>
<stop offset="0.942707" stop-color="#F963BC"/>
</linearGradient>
<linearGradient id="paint32_linear_1574_27150" x1="325.917" y1="140.633" x2="298.021" y2="109.465" gradientUnits="userSpaceOnUse">
<stop stop-color="#3A64FA"/>
<stop offset="0.942707" stop-color="#F963BC"/>
</linearGradient>
<linearGradient id="paint33_linear_1574_27150" x1="325.917" y1="198.214" x2="298.021" y2="167.046" gradientUnits="userSpaceOnUse">
<stop stop-color="#3A64FA"/>
<stop offset="0.942707" stop-color="#F963BC"/>
</linearGradient>
<linearGradient id="paint34_linear_1574_27150" x1="325.917" y1="182.167" x2="298.021" y2="150.999" gradientUnits="userSpaceOnUse">
<stop stop-color="#3A64FA"/>
<stop offset="0.942707" stop-color="#F963BC"/>
</linearGradient>
<linearGradient id="paint35_linear_1574_27150" x1="325.917" y1="132.393" x2="298.021" y2="163.56" gradientUnits="userSpaceOnUse">
<stop stop-color="#3A64FA"/>
<stop offset="0.942707" stop-color="#F963BC"/>
</linearGradient>
<linearGradient id="paint36_linear_1574_27150" x1="325.917" y1="240.692" x2="298.021" y2="209.524" gradientUnits="userSpaceOnUse">
<stop stop-color="#3A64FA"/>
<stop offset="0.942707" stop-color="#F963BC"/>
</linearGradient>
<linearGradient id="paint37_linear_1574_27150" x1="325.917" y1="124.586" x2="298.021" y2="93.4184" gradientUnits="userSpaceOnUse">
<stop stop-color="#3A64FA"/>
<stop offset="0.942707" stop-color="#F963BC"/>
</linearGradient>
<linearGradient id="paint38_linear_1574_27150" x1="325.917" y1="124.586" x2="298.021" y2="93.4184" gradientUnits="userSpaceOnUse">
<stop stop-color="#3A64FA"/>
<stop offset="0.942707" stop-color="#F963BC"/>
</linearGradient>
<linearGradient id="paint39_linear_1574_27150" x1="325.917" y1="189.973" x2="298.021" y2="221.141" gradientUnits="userSpaceOnUse">
<stop stop-color="#3A64FA"/>
<stop offset="0.942707" stop-color="#F963BC"/>
</linearGradient>
<linearGradient id="paint40_linear_1574_27150" x1="325.917" y1="132.393" x2="298.021" y2="163.56" gradientUnits="userSpaceOnUse">
<stop stop-color="#3A64FA"/>
<stop offset="0.942707" stop-color="#F963BC"/>
</linearGradient>
<linearGradient id="paint41_linear_1574_27150" x1="325.917" y1="124.586" x2="298.021" y2="93.4184" gradientUnits="userSpaceOnUse">
<stop stop-color="#3A64FA"/>
<stop offset="0.942707" stop-color="#F963BC"/>
</linearGradient>
<linearGradient id="paint42_linear_1574_27150" x1="325.917" y1="182.167" x2="298.021" y2="150.999" gradientUnits="userSpaceOnUse">
<stop stop-color="#3A64FA"/>
<stop offset="0.942707" stop-color="#F963BC"/>
</linearGradient>
<linearGradient id="paint43_linear_1574_27150" x1="325.917" y1="248.498" x2="298.021" y2="279.666" gradientUnits="userSpaceOnUse">
<stop stop-color="#3A64FA"/>
<stop offset="0.942707" stop-color="#F963BC"/>
</linearGradient>
<linearGradient id="paint44_linear_1574_27150" x1="325.917" y1="189.973" x2="298.021" y2="221.141" gradientUnits="userSpaceOnUse">
<stop stop-color="#3A64FA"/>
<stop offset="0.942707" stop-color="#F963BC"/>
</linearGradient>
<linearGradient id="paint45_linear_1574_27150" x1="239.236" y1="246.636" x2="194.629" y2="236.219" gradientUnits="userSpaceOnUse">
<stop stop-color="#3A64FA"/>
<stop offset="0.942707" stop-color="#F963BC"/>
</linearGradient>
<linearGradient id="paint46_linear_1574_27150" x1="178.806" y1="246.617" x2="133.201" y2="235.847" gradientUnits="userSpaceOnUse">
<stop stop-color="#3A64FA"/>
<stop offset="0.942707" stop-color="#F963BC"/>
</linearGradient>
<linearGradient id="paint47_linear_1574_27150" x1="118.021" y1="246.617" x2="72.4164" y2="235.847" gradientUnits="userSpaceOnUse">
<stop stop-color="#3A64FA"/>
<stop offset="0.942707" stop-color="#F963BC"/>
</linearGradient>
<linearGradient id="paint48_linear_1574_27150" x1="324.936" y1="50.7223" x2="267.115" y2="35.6255" gradientUnits="userSpaceOnUse">
<stop stop-color="#3A64FA"/>
<stop offset="0.942707" stop-color="#F963BC"/>
</linearGradient>
<linearGradient id="paint49_linear_1574_27150" x1="325.917" y1="82.1081" x2="298.021" y2="50.9406" gradientUnits="userSpaceOnUse">
<stop stop-color="#3A64FA"/>
<stop offset="0.942707" stop-color="#F963BC"/>
</linearGradient>
<linearGradient id="paint50_linear_1574_27150" x1="325.917" y1="73.8678" x2="298.021" y2="105.035" gradientUnits="userSpaceOnUse">
<stop stop-color="#3A64FA"/>
<stop offset="0.942707" stop-color="#F963BC"/>
</linearGradient>
<linearGradient id="paint51_linear_1574_27150" x1="325.917" y1="66.0609" x2="298.021" y2="34.8934" gradientUnits="userSpaceOnUse">
<stop stop-color="#3A64FA"/>
<stop offset="0.942707" stop-color="#F963BC"/>
</linearGradient>
<linearGradient id="paint52_linear_1574_27150" x1="325.917" y1="66.0609" x2="298.021" y2="34.8934" gradientUnits="userSpaceOnUse">
<stop stop-color="#3A64FA"/>
<stop offset="0.942707" stop-color="#F963BC"/>
</linearGradient>
<linearGradient id="paint53_linear_1574_27150" x1="325.917" y1="73.8678" x2="298.021" y2="105.035" gradientUnits="userSpaceOnUse">
<stop stop-color="#3A64FA"/>
<stop offset="0.942707" stop-color="#F963BC"/>
</linearGradient>
<linearGradient id="paint54_linear_1574_27150" x1="325.917" y1="66.0609" x2="298.021" y2="34.8934" gradientUnits="userSpaceOnUse">
<stop stop-color="#3A64FA"/>
<stop offset="0.942707" stop-color="#F963BC"/>
</linearGradient>
<linearGradient id="paint55_linear_1574_27150" x1="327.305" y1="170.436" x2="262.647" y2="161.591" gradientUnits="userSpaceOnUse">
<stop stop-color="#3A64FA"/>
<stop offset="0.942707" stop-color="#F963BC"/>
</linearGradient>
</defs>
</svg>
