<svg xmlns="http://www.w3.org/2000/svg" xmlns:xlink="http://www.w3.org/1999/xlink" width="130" height="29.812" viewBox="0 0 130 29.812"><defs><path id="a" d="M17.2 0l17.025 29.812h17.2L34.399 0z"/></defs><clipPath id="b"><use xlink:href="#a" overflow="visible"/></clipPath><linearGradient id="c" gradientUnits="userSpaceOnUse" x1="-60.068" y1="44.138" x2="-59.549" y2="44.138" gradientTransform="rotate(-90 -2962.397 -460.045) scale(57.472)"><stop offset="0" stop-color="#f6b11a"/><stop offset=".105" stop-color="#f6af1f"/><stop offset=".213" stop-color="#f5a92d"/><stop offset=".323" stop-color="#f39f3f"/><stop offset=".435" stop-color="#f09154"/><stop offset=".547" stop-color="#ee8066"/><stop offset=".66" stop-color="#ea6875"/><stop offset=".772" stop-color="#e74281"/><stop offset=".85" stop-color="#e50487"/><stop offset="1" stop-color="#e50487"/></linearGradient><path clip-path="url(#b)" fill="url(#c)" d="M17.2 0h34.226v29.812H17.2z"/><path fill="#77787B" d="M17.2 0L0 29.811h17.2L34.409 0zm45.084 4.507h4.076l7.418 20.799h-4.434l-1.535-4.49h-7.121l-1.508 4.49h-4.312l7.416-20.799zm4.225 12.527l-2.246-6.737-2.274 6.737h4.52z"/><defs><path id="d" d="M0 0h130v29.812H0z"/></defs><clipPath id="e"><use xlink:href="#d" overflow="visible"/></clipPath><path clip-path="url(#e)" fill="#77787B" d="M75.666 4.623h7.683c2.303 0 4.225.623 5.404 1.805.917.946 1.39 2.068 1.39 3.516v.088c0 2.424-1.331 3.721-2.806 4.521 2.214.856 3.69 2.215 3.69 4.932v.148c0 3.722-2.983 5.673-7.472 5.673h-7.89V4.623zm10.25 6.087c0-1.505-1.063-2.305-2.895-2.305h-3.188v4.67h2.981c1.892 0 3.102-.768 3.102-2.333v-.032zm-2.335 5.968h-3.748v4.845h3.838c1.923 0 3.132-.825 3.132-2.42v-.029c-.001-1.48-1.094-2.396-3.222-2.396M94.096 4.623h7.773c2.39 0 4.313.681 5.612 1.981 1.124 1.123 1.742 2.747 1.742 4.787v.118c0 3.129-1.568 5.112-3.842 6.116l4.405 7.682h-4.907l-3.81-6.796h-2.688v6.796h-4.286V4.623zm7.447 10.106c2.185 0 3.366-1.241 3.366-3.102v-.029c0-2.068-1.271-3.102-3.456-3.102h-3.071v6.232h3.161zm16.965-10.222h4.075L130 25.306h-4.432l-1.534-4.49h-7.122l-1.507 4.49h-4.314l7.417-20.799zm4.223 12.527l-2.243-6.737-2.276 6.737h4.519z"/></svg>