<?xml version="1.0" encoding="UTF-8" standalone="no"?>
<svg
   xmlns:dc="http://purl.org/dc/elements/1.1/"
   xmlns:cc="http://creativecommons.org/ns#"
   xmlns:rdf="http://www.w3.org/1999/02/22-rdf-syntax-ns#"
   xmlns:svg="http://www.w3.org/2000/svg"
   xmlns="http://www.w3.org/2000/svg"
   viewBox="0 0 209.7375 95.949997"
   height="95.949997"
   width="209.7375"
   xml:space="preserve"
   version="1.1"
   id="svg2"><metadata
     id="metadata8"><rdf:RDF><cc:Work
         rdf:about=""><dc:format>image/svg+xml</dc:format><dc:type
           rdf:resource="http://purl.org/dc/dcmitype/StillImage" /></cc:Work></rdf:RDF></metadata><defs
     id="defs6"><clipPath
       id="clipPath18"
       clipPathUnits="userSpaceOnUse"><path
         id="path20"
         d="M 0,767.59 0,0 l 1677.95,0 0,767.59 -1677.95,0 z" /></clipPath></defs><g
     transform="matrix(1.25,0,0,-1.25,0,95.95)"
     id="g10"><g
       transform="scale(0.1,0.1)"
       id="g12"><g
         id="g14"><g
           clip-path="url(#clipPath18)"
           id="g16"><path
             id="path22"
             style="fill:#ee4e1d;fill-opacity:1;fill-rule:nonzero;stroke:none"
             d="m 175.355,410.434 -3.597,-114.489 c 0,0 22.32,-28.8 72.008,-28.8 47.523,0 93.605,36.003 93.605,126.007 0,61.207 -27.359,97.215 -68.406,97.215 -64.086,0 -92.168,-44.648 -93.61,-79.933 z m -104.4058,265.703 0,2.164 c 0,4.32 -2.1601,9.359 -7.2031,9.359 -5.0391,0 -7.9219,-0.722 -13.6836,-7.918 -8.6367,-11.523 -21.6016,-15.125 -34.5586,-9.359 -12.96093,7.195 -19.44531,20.879 -12.96093,36 18.00003,40.32 48.96093,61.207 87.84763,61.207 69.1254,0 87.8474,-46.086 88.5624,-97.93 l 0,-2.16 c 0,-29.52 -3.598,-87.129 -3.598,-131.773 23.766,19.445 60.485,44.644 118.809,44.644 86.41,0 144.016,-79.203 144.016,-187.219 0,-42.476 -10.801,-77.043 -28.082,-103.683 65.527,28.797 110.886,91.445 110.886,215.297 0,20.16 15.84,36 36.004,36 20.164,0 36.004,-15.84 36.004,-36 0,-219.618 -151.215,-320.43 -349.226,-320.43 -126.012,0 -169.2191,79.211 -169.2191,115.211 0,21.601 3.6015,50.402 3.6015,72.008 0,208.816 -7.1992,266.425 -7.1992,304.582" /><path
             id="path24"
             style="fill:#ee4e1d;fill-opacity:1;fill-rule:nonzero;stroke:none"
             d="m 521.656,285.148 c 0,25.2 3.602,50.403 3.602,86.407 0,61.203 -7.199,154.812 -7.199,154.812 0,29.524 24.48,54.004 54.004,54.004 29.519,0 54,-24.48 54,-54.004 0,-93.609 -7.196,-147.613 -7.196,-234.019 0,-13.68 11.52,-25.203 25.199,-25.203 46.809,0 97.207,61.207 97.207,237.621 0,20.16 15.844,36 36.008,36 20.16,0 36,-15.84 36,-36 0,-216.02 -75.605,-320.43 -194.414,-320.43 -55.445,0 -97.211,45.367 -97.211,100.812 z m 53.285,460.84 c 33.844,0 61.207,-27.363 61.207,-61.207 0,-33.843 -27.363,-61.207 -61.207,-61.207 -33.843,0 -61.207,27.364 -61.207,61.207 0,33.844 27.364,61.207 61.207,61.207" /><path
             id="path26"
             style="fill:#ee4e1d;fill-opacity:1;fill-rule:nonzero;stroke:none"
             d="m 867.266,184.336 c -83.52,0 -129.606,49.687 -129.606,111.609 0,25.203 3.602,51.125 3.602,75.61 0,51.121 -0.719,95.769 -2.16,136.808 l -8.641,0 c -18.004,0 -32.402,14.407 -32.402,32.403 0,18.004 14.398,32.402 32.402,32.402 l 5.762,0 c -1.442,29.527 -2.164,56.887 -2.164,82.809 0,29.527 24.48,54.007 54.004,54.007 29.527,0 54.007,-24.48 54.007,-54.007 0,-22.321 -0.722,-49.684 -1.441,-80.645 23.043,0.719 49.684,1.441 84.254,1.441 20.156,0 35.996,-15.843 35.996,-36.007 0,-20.161 -15.84,-36 -35.996,-36 -35.293,0 -62.656,0 -86.414,0.718 -2.16,-59.043 -3.602,-123.129 -3.602,-180.734 0,-30.961 15.84,-57.605 50.406,-57.605 79.2,0 133.207,68.406 133.207,237.621 0,20.16 15.85,36 36.01,36 20.16,0 36,-15.84 36,-36 0,-198.02 -82.81,-320.43 -223.224,-320.43" /><path
             id="path28"
             style="fill:#ee4e1d;fill-opacity:1;fill-rule:nonzero;stroke:none"
             d="m 1234.47,504.766 c 0,20.16 15.84,36 36,36 20.16,0 36,-15.84 36,-36 0,-216.02 -75.6,-320.43 -194.41,-320.43 -55.44,0 -97.21,45.367 -97.21,100.812 0,21.598 3.61,64.801 3.61,86.407 0,208.816 -7.21,280.824 -7.21,342.031 0,29.519 24.48,54.004 54,54.004 29.54,0 54.01,-24.485 54.01,-54.004 0,-61.207 -7.2,-126.012 -7.2,-421.238 0,-13.68 11.51,-25.203 25.21,-25.203 46.79,0 97.2,61.207 97.2,237.621" /><path
             id="path30"
             style="fill:#ee4e1d;fill-opacity:1;fill-rule:nonzero;stroke:none"
             d="m 1492.95,168.496 c -81.37,-15.84 -132.5,-22.324 -132.5,-59.766 0,-16.562 12.25,-35.9995 50.41,-35.9995 64.8,0 84.25,39.5975 82.81,82.8045 0,4.32 -0.72,8.641 -0.72,12.961 z m -7.93,105.852 c -18.71,-23.043 -64.81,-43.203 -124.57,-43.203 -86.41,0 -126.01,61.203 -126.01,140.41 0,61.203 -7.19,108.011 -7.19,147.609 0,29.524 24.47,54.004 54,54.004 29.52,0 54,-24.48 54,-54.004 0,-39.598 -7.2,-97.207 -7.2,-140.41 0,-36.004 14.4,-64.805 57.6,-64.805 65.53,0 93.61,39.602 93.61,75.606 0,43.203 -7.19,90.011 -7.19,129.609 0,29.524 24.47,54.004 54,54.004 29.52,0 54.01,-24.48 54.01,-54.004 0,-39.598 -7.21,-86.406 -7.21,-147.609 l 0,-12.961 c 0.72,-36.723 4.32,-68.406 8.64,-95.774 12.96,7.203 25.93,20.887 42.49,44.645 8.64,12.242 23.04,16.562 36.72,10.086 14.4,-7.922 21.6,-21.606 14.4,-38.883 -15.84,-38.164 -46.08,-69.129 -84.96,-83.531 0.72,-4.317 0.72,-9.36 0.72,-14.399 C 1590.88,97.9297 1563.52,0 1410.86,0 c -115.22,0 -147.62,51.1289 -147.62,108.73 0,91.45 115.94,97.93 225.38,126.012 l -3.6,39.606" /></g></g></g></g></svg>