<?xml version="1.0" encoding="utf-8"?>
<!-- Generator: Adobe Illustrator 24.1.0, SVG Export Plug-In . SVG Version: 6.00 Build 0)  -->
<svg version="1.1" id="Layer_1" xmlns="http://www.w3.org/2000/svg" xmlns:xlink="http://www.w3.org/1999/xlink" x="0px" y="0px"
	 viewBox="0 0 213.6 213.6" style="enable-background:new 0 0 213.6 213.6;" xml:space="preserve">
<style type="text/css">
	.st0{fill:#191E23;}
</style>
<g>
	<g>
		<g>
			<path class="st0" d="M105.1,0H88.4C84.8,0.2,82,3.2,82,6.8v49.5c0,3.7,3,6.8,6.8,6.8h17.8c8-0.1,15.9,2.1,22.7,6.3
				c13.2,7.9,21.3,22.1,21.4,37.5V200c0,1.4,1.1,2.6,2.5,2.6c0.5,0,0.9-0.1,1.3-0.3c36.6-18.2,59.6-55.7,59.2-96.6
				C212.5,46.8,164.1-0.3,105.1,0L105.1,0z"/>
		</g>
		<g>
			<path class="st0" d="M124.6,150.6h-17.8c-24.2,0-43.7-19.6-43.8-43.8V6.5C62.9,2.9,59.9,0,56.3,0H6.8C3,0,0,3,0,6.8v100.1
				c0,59,47.8,106.8,106.8,106.8h18.4c3.6-0.1,6.5-3.1,6.5-6.8v-49.5c0-3.7-3-6.8-6.8-6.8L124.6,150.6L124.6,150.6z"/>
		</g>
	</g>
</g>
</svg>
