<svg xmlns="http://www.w3.org/2000/svg" class="mb-5 w-14" fill="none" viewBox="0 0 81 85">
    <path fill="#0075FF"
        d="M80.704 52.41V17.622C80.704 7.89 72.814 0 63.084 0H17.65C7.919 0 .029 7.89.029 17.621v34.79C-.818 78.54 17.219 77.375 19.9 77.375l20.433 1.352v.005h.068v-.005l20.433-1.352c2.682 0 20.719 1.168 19.872-24.964h-.002Z">
    </path>
    <path fill="#fff"
        d="M52.193 40.889c19.825-13.637 21.334-2.36 13.37 14.757l.003.002c-2.474 4.385 2.946 6.17 7.528 6.783.002.003-2.767 8.498-8.727 13.34l-10.23 2.42-3.301 1.033c-.027.002-4.627 1.386-5.32 1.58l-10.29-.002c-.694-.195-5.294-1.58-5.32-1.58l-3.3-1.034-10.231-2.42c-5.96-4.842-8.73-13.337-8.727-13.34 4.579-.612 10.002-2.398 7.527-6.782C7.212 38.527 8.72 27.252 28.546 40.889c3.711-1.544 7.172-1.857 11.762-1.954a.13.13 0 0 0 .031.002h.092c4.59.098 8.048.408 11.762 1.952Z">
    </path>
    <path fill="#002F66"
        d="M15.68 38.722c-.308.065-.618.155-.884.326-.857.555-.657 1.825-.586 2.69.137 1.655.5 3.314.933 4.929a22.657 22.657 0 0 0 1.147 3.306 18.673 18.673 0 0 1 1.744-2.29 22.039 22.039 0 0 1 1.546-1.579c2.838-2.625 5.663-3.93 5.663-3.93-2.725-1.959-6.05-4.21-9.56-3.455l-.003.003ZM65.053 38.722c.308.065.618.155.884.326.857.555.657 1.825.587 2.69-.137 1.655-.5 3.314-.934 4.929a22.657 22.657 0 0 1-1.147 3.306 18.673 18.673 0 0 0-1.743-2.29 22.039 22.039 0 0 0-1.547-1.579c-2.838-2.625-5.662-3.93-5.662-3.93 2.724-1.959 6.049-4.21 9.56-3.455l.002.003ZM45.502 80.784l-.04-.09c-.541-1.218-1.646-2.093-2.88-2.546a6.522 6.522 0 0 0-4.505.026c-1.21.46-2.27 1.326-2.809 2.52l-.039.09a.115.115 0 0 0-.008.018c1.086 1.775 2.98 3.174 5.113 3.198h.063c2.136-.021 4.026-1.418 5.115-3.195a.136.136 0 0 1-.008-.019l-.002-.002ZM37.74 63.057a8.05 8.05 0 0 0-1.654-1.373 10.12 10.12 0 0 0-2.093-.996 11.426 11.426 0 0 0-2.407-.542c-.862-.098-1.735-.1-2.598-.005-.907.097-1.804.302-2.664.607-.918.326-1.794.765-2.607 1.302a13.139 13.139 0 0 0-2.422 2.078c-.818.889-1.52 1.88-2.117 2.93a21.198 21.198 0 0 0-1.686 3.863 29.738 29.738 0 0 0-1.126 4.847c-.036.245-.073.487-.107.736v-.01c-.024.155-.087.51-.108.734 4.597.534 9.192 1.162 13.747 1.993-.079-.013.515-2.582.59-2.843.191-.678.425-1.349.751-1.975.458-.881 1.102-1.617 1.944-2.146.784-.492 1.654-.826 2.475-1.25.941-.486 1.846-1.072 2.603-1.817.745-.728.987-1.543.976-2.577a4.967 4.967 0 0 0-.405-1.888 6.063 6.063 0 0 0-1.091-1.67v.002ZM64.58 77.228c-.024-.227-.084-.579-.108-.734v.01c-.031-.25-.07-.491-.108-.736a29.727 29.727 0 0 0-1.125-4.847 21.35 21.35 0 0 0-1.686-3.864c-.597-1.049-1.3-2.04-2.117-2.93a13.24 13.24 0 0 0-2.423-2.077 11.947 11.947 0 0 0-2.606-1.302c-.86-.305-1.757-.51-2.664-.607a11.759 11.759 0 0 0-2.599.005 11.26 11.26 0 0 0-2.406.542c-.731.252-1.439.583-2.093.996a8.048 8.048 0 0 0-1.655 1.373 6.004 6.004 0 0 0-1.091 1.67 4.916 4.916 0 0 0-.405 1.889c-.01 1.033.231 1.846.975 2.577.758.744 1.663 1.33 2.604 1.817.82.424 1.691.755 2.475 1.25.842.528 1.486 1.265 1.944 2.146.323.626.56 1.296.752 1.975.073.26.668 2.83.589 2.843 4.555-.831 9.15-1.46 13.747-1.994v-.002Z">
    </path>
    <path fill="#fff"
        d="M31.56 69.08a2.046 2.046 0 1 0 0-4.092 2.046 2.046 0 0 0 0 4.092ZM49.173 69.08a2.046 2.046 0 1 0 0-4.092 2.046 2.046 0 0 0 0 4.092Z">
    </path>
</svg>
