<svg width="183" height="184" viewBox="0 0 183 184" fill="none" xmlns="http://www.w3.org/2000/svg">
<rect width="183" height="182" transform="translate(0 1)" fill="#FEEFEC"/>
<rect x="0.416992" y="0.916992" width="182.166" height="182.166" fill="white"/>
<path d="M128.785 39.1783C118.414 31.7281 106.066 27.5206 93.3037 27.0879C80.5413 26.6552 67.9372 30.0166 57.0852 36.7473C46.2333 43.4779 37.6209 53.2753 32.3371 64.9006C27.0534 76.5259 25.3355 89.457 27.4009 102.059C29.4663 114.66 35.2221 126.366 43.9405 135.697C52.6588 145.027 63.9482 151.563 76.3809 154.477C88.8137 157.391 101.831 156.553 113.788 152.069C125.744 147.585 136.103 139.656 143.553 129.285C148.5 122.399 152.042 114.606 153.977 106.351C155.912 98.0957 156.202 89.5403 154.831 81.1731C153.459 72.8059 150.453 64.7907 145.984 57.5852C141.515 50.3797 135.671 44.125 128.785 39.1783V39.1783Z" fill="#F4603E"/>
<path d="M37.7031 127.864C37.7031 127.864 80.37 113.852 155.569 89.2686C155.569 89.2686 159.688 129.527 118.06 150.527C118.06 150.527 97.5322 160.391 75.0117 154.063C75.0117 154.063 52.5865 149.819 37.7031 127.864Z" fill="#1E1870"/>
</svg>
