<svg xmlns="http://www.w3.org/2000/svg" width="512" height="512" viewBox="0 0 512 512"><path fill="#007AC9" d="M255.4 333.3c-3.8 5.5-9.8 8-16.4 9.2-3.7.7-7.5 1-11.3 1-14.8.1-29.6.4-44.4-.1-22.6-.7-42.4-8.3-58.5-24.6-8-8.1-13.5-17.7-16.5-28.6-13.5-48.5-26.8-97-40.2-145.5-.9-3.1-1.2-6.4-1.5-9.6-.2-2.6 1-4.2 3.6-4.5 14.6-1.3 28.7 0 40.3 10.4 5.6 5 8.8 11.5 10.9 18.6 9.8 33.6 19.6 67.1 29.4 100.7 3.7 12.5 10.7 22.3 22.9 27.9 5.6 2.5 11.4 3.9 17.5 4.3 9.5.7 19 .7 28.4-.6 1.1-.2 2.2-.5 3.3-.8 6.4-1.9 9.7-6 10.4-12.6.4-3.7-.2-3.4 3.7-3.4h38.6c1.7 0 2.4.4 2.5 2.3.3 7.1 3.7 11.7 10.5 13.5 4.3 1.1 8.8 1.7 13.2 1.9 9.8.5 19.5.4 29.1-1.9 13-3.1 22.6-10.4 28.6-22.3 2.4-4.7 4.4-9.7 5.8-14.8 10.2-37.8 20.3-75.5 30.3-113.4 3.4-12.9 6.7-25.9 9.9-38.9 2.1-8.5 7-14.9 14.6-19.2 7.3-4.2 15.3-6 23.6-6.8 2.7-.2 5.5-.3 8.2-.3 3.8.1 6.1 2 6.1 5.8 0 3.6-.4 7.4-1.3 10.9-6.1 25-12.3 50-18.4 75-8.6 34.6-17.1 69.2-27.3 103.4-3.1 10.4-6.3 20.7-11.9 30.1-14 23.8-34.5 38.2-62 42.2-3.9.6-8 .7-12 .7-14.2.1-28.4.1-42.5 0-3.6 0-7.3-.5-10.8-1.3-3-.7-6.1-1.8-8.8-3.3-2.7-1.2-5-3.4-7.6-5.4zM458.2 395.3c.1 22.4-18.3 40.8-40.7 40.8-22.6 0-40.9-18.2-41-40.7 0-22.6 18.2-41 40.8-41 22.5 0 40.9 18.3 40.9 40.9zM417.3 410c8.2 0 14.8-6.6 14.9-14.7 0-8.1-6.7-14.8-14.8-14.8-8.1 0-14.7 6.6-14.8 14.7 0 8.2 6.5 14.8 14.7 14.8zM53.8 395.8c.1-22.7 18.5-40.9 41.3-40.8 22.2.1 40.5 18.5 40.4 41-.1 22.7-18.4 40.8-41.2 40.7-22.3-.1-40.6-18.6-40.5-40.9zm55.6 0c0-8.1-6.6-14.7-14.7-14.8-8.1 0-14.8 6.6-14.9 14.8 0 8 6.6 14.7 14.7 14.8 8.2 0 14.9-6.6 14.9-14.8z"/><path fill="#007AC9" d="M324 174.9c-11.3 0-20.4-9.1-20.4-20.3 0-11.2 9.2-20.4 20.4-20.4s20.3 9.2 20.3 20.4c0 11.3-9.1 20.3-20.3 20.3zM277.1 154.6c0 11.2-9 20.3-20.2 20.3-11.3 0-20.4-8.9-20.5-20.2-.1-11.2 9.1-20.4 20.3-20.5 11.1 0 20.3 9.2 20.4 20.4zM256.8 207.9c11.3 0 20.3 9 20.3 20.3s-9.1 20.3-20.4 20.2c-11.2-.1-20.2-9.1-20.3-20.2 0-11.2 9-20.3 20.4-20.3zM323.9 207.9c11.3 0 20.3 9.1 20.3 20.4 0 11.2-9.1 20.2-20.3 20.2-11.3 0-20.4-9.1-20.3-20.4 0-11.2 9.1-20.2 20.3-20.2zM210.7 154.7c0 11.3-9 20.3-20.2 20.3-11.3 0-20.3-9-20.3-20.3 0-11.2 9.1-20.3 20.3-20.3 11.1-.1 20.2 9 20.2 20.3zM190.5 207.9c11.3 0 20.3 9 20.2 20.4 0 11.3-9 20.2-20.3 20.2s-20.3-9-20.2-20.4c0-11.3 9-20.2 20.3-20.2z"/></svg>