<?xml version="1.0" encoding="UTF-8"?>
<!-- Created with Inkscape (http://www.inkscape.org/) -->
<svg width="482" height="482" version="1.1" viewBox="0 0 482 482" xmlns="http://www.w3.org/2000/svg">
 <g transform="translate(.46933 .46933)">
  <path d="m372 479.53c13.927-2.1398 23.119-4.9741 35.753-11.025 14.816-7.0951 24.68-14.012 35.795-25.1 17.932-17.888 29.612-39.633 35.131-65.404l1.8205-8.5v-257l-1.8205-8.5c-5.5068-25.712-17.276-47.651-35.152-65.527-17.569-17.569-38.35-28.875-64.527-35.104l-7.5-1.7849-252-0.66021-9.5 1.4952c-27.857 4.3842-52.054 16.581-71.527 36.054-17.876 17.876-29.646 39.815-35.152 65.527l-1.8205 8.5v257l1.8205 8.5c5.5079 25.717 17.198 47.448 35.214 65.465 19.222 19.222 44.061 31.85 70.965 36.079l8 1.2576 245 0.1861 9.5-1.4596zm-161.75-119.6c-46.55-4.522-73.139-25.326-83.317-65.189-8.8583-34.695-7.381-89.466 3.2243-119.54 5.8699-16.648 11.818-26.128 23.132-36.873 12.359-11.737 27.91-18.915 49.986-23.074l9.2236-1.7375 132-0.016v55l-129 1.031-6.6034 2.2294c-8.1792 2.7614-14.861 8.4244-18.347 15.549-2.9229 5.9742-6.0588 19.582-4.8022 20.838 0.46112 0.46112 30.969 0.95411 67.796 1.0956l66.957 0.25745v55l-66.957 0.25715c-36.826 0.14144-67.339 0.63886-67.805 1.1054-1.1855 1.1855 1.7529 13.184 4.8126 19.652 1.4944 3.1589 4.6394 7.269 7.5967 9.9279l5.0466 4.5373 13.307 4.4889 128 1.0317v55l-63 0.11743c-34.65 0.0646-66.712-0.24314-71.248-0.68384z" fill="#fdf9f9"/>
  <path d="m109.5 479.54c-18.578-2.9204-38.46-10.891-54.219-21.737-25.795-17.753-44.982-47.223-51.961-79.807l-1.8205-8.5v-257l1.8205-8.5c5.5069-25.712 17.276-47.651 35.152-65.527 19.473-19.473 43.671-31.67 71.527-36.054l9.5-1.4952 252 0.66021 7.5 1.7849c26.177 6.2296 46.958 17.535 64.527 35.104 17.876 17.876 29.646 39.815 35.152 65.527l1.8205 8.5v257l-1.8205 8.5c-5.5196 25.771-17.2 47.516-35.131 65.404-11.115 11.088-20.979 18.005-35.795 25.1-12.634 6.0505-21.826 8.8847-35.753 11.025l-9.5 1.4596-245-0.1861-8-1.2576zm235-146.54v-27.5l-128-1.0317-13.307-4.4889-5.0466-4.5373c-2.9573-2.6589-6.1023-6.769-7.5967-9.9279-3.0597-6.4676-5.998-18.466-4.8126-19.652 0.46653-0.46653 30.979-0.96395 67.805-1.1054l66.957-0.25715v-55l-66.957-0.25715c-36.826-0.14144-67.334-0.63443-67.796-1.0956-1.2566-1.2566 1.8793-14.864 4.8022-20.838 3.4856-7.1244 10.168-12.787 18.347-15.549l6.6034-2.2294 129-1.031v-55l-132 0.016-9.2236 1.7375c-22.076 4.1586-37.627 11.337-49.986 23.074-11.314 10.745-17.262 20.226-23.132 36.873-10.605 30.078-12.083 84.85-3.2243 119.54 10.178 39.863 36.767 60.667 83.317 65.189 4.5367 0.4407 36.598 0.74843 71.248 0.68384l63-0.11743v-27.5z" fill="#da3129"/>
 </g>
</svg>
