<?xml version="1.0" encoding="UTF-8"?>
<svg width="104px" height="13px" viewBox="0 0 104 13" version="1.1" xmlns="http://www.w3.org/2000/svg" xmlns:xlink="http://www.w3.org/1999/xlink">
    <!-- Generator: Sketch 55.2 (78181) - https://sketchapp.com -->
    <title>Faire Logo</title>
    <g id="Atom-/-Logo-/-Medium" stroke="none" stroke-width="1" fill="none" fill-rule="evenodd">
        <path d="M11.2539746,3.22343324 L11.0761867,3.3119891 C10.5902306,2.70980625 10.1279867,2.19618741 9.68944099,1.77111717 C9.25089529,1.34604692 8.82420858,1.03315268 8.40936806,0.832425068 C8.20787409,0.737965014 7.84341252,0.658265538 7.31597242,0.593324251 C6.78853232,0.528382963 6.17517017,0.495912807 5.47586757,0.495912807 C5.35734171,0.495912807 5.22103901,0.498864639 5.06695538,0.504768392 C4.91287176,0.510672146 4.76471665,0.516575811 4.62248561,0.522479564 C4.48025457,0.528383317 4.34691498,0.534286982 4.22246282,0.540190736 C4.09801066,0.546094489 4.00615449,0.549046322 3.94689156,0.549046322 C3.93503897,0.619891362 3.92022346,0.690735341 3.90244458,0.761580381 C3.8846657,0.832425422 3.86985019,0.91507673 3.85799761,1.00953678 C3.84614502,1.10399684 3.83429261,1.22502197 3.82244003,1.3726158 C3.81058744,1.52020964 3.79873503,1.70027142 3.78688244,1.91280654 C3.77502986,2.32606928 3.76614055,2.77769964 3.76021426,3.26771117 C3.75428796,3.7577227 3.75132486,4.2211604 3.75132486,4.65803815 L3.75132486,6.34059946 L4.0713431,6.34059946 C4.26098448,6.34059946 4.47136473,6.33469579 4.70249017,6.32288828 C4.93361561,6.31108078 5.17362688,6.29632161 5.4225312,6.27861035 C5.67143551,6.26089909 5.87885267,6.2343326 6.04478888,6.19891008 C6.47148199,6.10445003 6.80927564,5.98047307 7.05817995,5.82697548 C7.30708427,5.67347789 7.50264901,5.49046428 7.64488005,5.27792916 C7.78711109,5.06539403 7.88785656,4.83219927 7.94711949,4.57833787 C8.00638243,4.32447648 8.05971827,4.04995606 8.10712861,3.75476839 L8.3204741,3.75476839 L8.3204741,9.45776567 L8.10712861,9.45776567 C8.01230792,9.07992545 7.87600522,8.68142807 7.69821642,8.26226158 C7.52042763,7.84309509 7.30708427,7.52134535 7.05817995,7.29700272 C6.83298081,7.09627511 6.59296953,6.94573166 6.33813893,6.84536785 C6.08330832,6.74500404 5.784035,6.68301556 5.44030999,6.65940054 C5.26252119,6.64759304 5.10843988,6.63873754 4.97806143,6.63283379 C4.84768298,6.62693003 4.72323269,6.6239782 4.60470682,6.6239782 L3.75132486,6.6239782 L3.75132486,8.82016349 C3.75132486,9.15077368 3.75428796,9.45481242 3.76021426,9.73228883 C3.76614055,10.0097652 3.76910365,10.2488637 3.76910365,10.4495913 C3.78095624,10.8274315 3.80169795,11.1846032 3.83132942,11.5211172 C3.86096089,11.8576311 3.92911224,12.1085369 4.03578551,12.273842 C4.14245879,12.4391471 4.32320803,12.5660759 4.57803863,12.6546322 C4.83286924,12.7431885 5.20325702,12.7992733 5.68921306,12.8228883 L5.68921306,13 L0,13 L0,12.8228883 C0.296314662,12.7756583 0.571883164,12.6989106 0.826713773,12.5926431 C1.08154438,12.4863755 1.29192464,12.3387839 1.45786085,12.1498638 C1.51712378,12.0790187 1.56453341,11.9757046 1.60009117,11.8399183 C1.63564893,11.7041319 1.66824306,11.5476848 1.69787452,11.3705722 C1.72750599,11.1934596 1.7482477,11.0074942 1.76010029,10.8126703 C1.77195288,10.6178464 1.77787908,10.4259773 1.77787908,10.2370572 C1.77787908,10.0717521 1.78084218,9.84741286 1.78676848,9.5640327 C1.79269477,9.28065253 1.79862097,8.97071013 1.80454727,8.63419619 C1.81047356,8.29768224 1.81343666,7.95231785 1.81343666,7.59809264 L1.81343666,3.11716621 C1.81343666,2.90463109 1.81047356,2.68619549 1.80454727,2.46185286 C1.79862097,2.23751023 1.78676857,2.0249783 1.76898969,1.82425068 C1.75121081,1.62352307 1.72157978,1.44346129 1.68009573,1.28405995 C1.63861168,1.1246586 1.58231274,1.00953714 1.51119722,0.938692098 C1.33340842,0.749771989 1.14376988,0.62874686 0.942275913,0.575613079 C0.740781943,0.522479298 0.480028952,0.472298147 0.160009117,0.42506812 L0.160009117,0.247956403 L10.0450168,0.247956403 L11.2539746,3.22343324 Z M30.6802667,13 L30.6802667,12.8228883 C30.7158244,12.8228883 30.8017544,12.811081 30.9380591,12.7874659 C31.0743639,12.7638509 31.2165928,12.7225253 31.3647501,12.6634877 C31.5129075,12.6044502 31.643284,12.5217989 31.7558835,12.4155313 C31.8684831,12.3092638 31.924782,12.1734795 31.924782,12.0081744 C31.924782,11.9019068 31.8921879,11.7277487 31.8269987,11.4856948 C31.7618095,11.2436409 31.6699533,10.9484577 31.5514274,10.6001362 C31.4329016,10.2518148 31.2965989,9.86512474 31.1425152,9.4400545 C30.9884316,9.01498425 30.8224979,8.57220939 30.6447091,8.11171662 L25.9155507,8.11171662 C25.7377619,8.56040188 25.565902,8.98841758 25.3999658,9.39577657 C25.2340296,9.80313555 25.0680959,10.2134403 24.9021597,10.626703 C24.6532554,11.2643084 24.5288051,11.7129869 24.5288051,11.972752 C24.5288051,12.1262496 24.5762147,12.2531784 24.6710354,12.3535422 C24.7658561,12.453906 24.8873433,12.5365574 25.0355006,12.6014986 C25.1836579,12.6664399 25.3436654,12.7136692 25.515528,12.743188 C25.6873905,12.7727068 25.8503611,12.7992733 26.0044447,12.8228883 L26.0044447,13 L22.2175623,13 L22.2175623,12.8051771 C22.5257295,12.7697546 22.7894456,12.6871033 23.0087184,12.5572207 C23.2279913,12.4273381 23.3554047,12.3387832 23.3909624,12.2915531 C23.4739306,12.2089006 23.6102333,12.0140796 23.7998746,11.7070845 C23.989516,11.4000893 24.220638,10.9455071 24.4932475,10.3433243 C24.7421518,9.78837143 25.0206834,9.15667929 25.3288506,8.44822888 C25.6370179,7.73977847 25.9540698,7.01067587 26.280016,6.26089918 C26.6059621,5.5111225 26.9289402,4.7554534 27.2489601,3.99386921 C27.5689799,3.23228502 27.8712163,2.52089341 28.1556784,1.85967302 L27.9778905,1.47002725 C28.191237,1.37556719 28.3838387,1.26339756 28.5557012,1.13351499 C28.7275637,1.00363241 28.8786819,0.86784812 29.0090603,0.726158038 C29.1394388,0.584467956 29.2490736,0.448683665 29.337968,0.31880109 C29.4268624,0.188918515 29.4950137,0.0826525477 29.5424241,0 L29.6846544,0 C30.0520846,0.980023065 30.4017306,1.90985028 30.7336031,2.78950954 C31.0654755,3.66916879 31.3825274,4.5163447 31.6847684,5.33106267 C31.9870093,6.14578064 32.2803564,6.9339199 32.5648185,7.69550409 C32.8492806,8.45708828 33.1337384,9.20980554 33.4182005,9.95367847 C33.5485789,10.3197112 33.6700661,10.6237499 33.7826657,10.8658038 C33.8952653,11.1078577 34.0226786,11.3823781 34.1649097,11.6893733 C34.1886149,11.7366033 34.2419507,11.8192546 34.3249188,11.9373297 C34.4078869,12.0554048 34.5175217,12.1764299 34.6538264,12.3004087 C34.7901312,12.4243875 34.959028,12.5336053 35.160522,12.6280654 C35.3620159,12.7225254 35.5990641,12.7756584 35.8716736,12.7874659 L35.8716736,13 L30.6802667,13 Z M28.3512451,2.26702997 C28.2801296,2.42052756 28.176421,2.66257782 28.0401162,2.99318801 C27.9038115,3.3237982 27.7349147,3.72524741 27.5334207,4.19754768 C27.3319267,4.66984796 27.1096941,5.20412963 26.8667161,5.80040872 C26.623738,6.39668781 26.3600219,7.04313911 26.0755599,7.73978202 L30.5024788,7.73978202 C30.3009848,7.20844421 30.0965308,6.67711437 29.8891105,6.14577657 C29.6816902,5.61443876 29.4801993,5.10377175 29.2846316,4.61376022 C29.0890639,4.12374869 28.9112778,3.67507016 28.7512679,3.26771117 C28.591258,2.86035219 28.4579184,2.52679512 28.3512451,2.26702997 Z M53.3600775,13 L47.9731039,13 L47.9731039,12.8228883 C48.2694185,12.7756583 48.544987,12.6989106 48.7998177,12.5926431 C49.0546483,12.4863755 49.2709547,12.3328802 49.4487435,12.1321526 C49.5080065,12.0613075 49.552453,11.9609452 49.5820844,11.8310627 C49.6117159,11.7011801 49.6354207,11.5476848 49.6531996,11.3705722 C49.6709785,11.1934596 49.6828309,11.0074942 49.6887572,10.8126703 C49.6946835,10.6178464 49.6976466,10.4259773 49.6976466,10.2370572 C49.6976466,10.0717521 49.7006097,9.84741286 49.706536,9.5640327 C49.7124623,9.28065253 49.7183885,8.97071013 49.7243148,8.63419619 C49.7302411,8.29768224 49.7332042,7.95231785 49.7332042,7.59809264 L49.7332042,2.47956403 C49.7332042,2.26702891 49.7243149,2.06925614 49.706536,1.88623978 C49.6887571,1.70322343 49.6620892,1.53792081 49.6265314,1.39032698 C49.5909737,1.24273314 49.5376378,1.12761168 49.4665223,1.04495913 C49.3005861,0.844231512 49.096132,0.699591723 48.853154,0.611035422 C48.610176,0.522479121 48.3346075,0.46049064 48.0264403,0.42506812 L48.0264403,0.247956403 L53.3422987,0.247956403 L53.3422987,0.42506812 C53.0933944,0.46049064 52.8267152,0.525430954 52.5422531,0.619891008 C52.257791,0.714351063 52.0385215,0.903268338 51.8844379,1.1866485 C51.7777646,1.38737612 51.7214656,1.64123371 51.7155393,1.94822888 C51.7096131,2.25522406 51.7007237,2.54450364 51.6888712,2.81607629 C51.6888712,3.11126396 51.6859081,3.40349537 51.6799818,3.69277929 C51.6740555,3.98206321 51.6710924,4.27429462 51.6710924,4.56948229 L51.6710924,10.5027248 C51.6710924,10.8451425 51.6770186,11.1757477 51.6888712,11.4945504 C51.7007237,11.8133531 51.7540596,12.0376924 51.8488803,12.1675749 C51.9911113,12.3683025 52.2163071,12.5217978 52.5244743,12.6280654 C52.8326416,12.734333 53.1111732,12.7992733 53.3600775,12.8228883 L53.3600775,13 Z M80.2712405,13 L76.6265884,13 C76.5199151,12.8937324 76.4428745,12.814033 76.3954641,12.7608992 C76.3480538,12.7077654 76.2947179,12.6457769 76.235455,12.5749319 C76.1761921,12.5040868 76.1021145,12.4007727 76.0132201,12.2649864 C75.9243257,12.1292 75.7850599,11.9255236 75.5954185,11.653951 C75.3702194,11.3233408 75.1716916,11.0252057 74.9998291,10.7595368 C74.8279665,10.4938679 74.6531435,10.2311548 74.4753547,9.97138965 C74.2975659,9.7116245 74.1049643,9.44891141 73.897544,9.18324251 C73.6901238,8.9175736 73.4441863,8.61943853 73.1597242,8.28882834 C72.9226725,8.01725568 72.6648826,7.76339809 72.3863468,7.52724796 C72.107811,7.29109782 71.8144639,7.1435062 71.5062967,7.08446866 C71.2810975,7.03723864 71.1092376,7.01362398 70.9907117,7.01362398 C70.8840384,7.01362398 70.7477357,7.00772031 70.5817995,6.99591281 L70.5817995,8.9972752 C70.5817995,9.56403553 70.5877257,10.0422324 70.5995783,10.4318801 C70.6114309,10.8097203 70.6232833,11.1344219 70.6351359,11.4059946 C70.6469885,11.6775672 70.7121767,11.9019065 70.8307026,12.0790191 C70.9255233,12.2325167 71.1092356,12.3889638 71.3818451,12.5483651 C71.6544546,12.7077665 72.0337317,12.7992733 72.5196877,12.8228883 L72.5196877,13 L66.8304747,13 L66.8304747,12.8228883 C67.1267893,12.7756583 67.4112471,12.7048143 67.6838566,12.6103542 C67.9564661,12.5158942 68.1698095,12.3742062 68.3238931,12.1852861 C68.383156,12.1144411 68.4305657,12.0081751 68.4661234,11.866485 C68.5016812,11.7247949 68.5283491,11.565396 68.546128,11.3882834 C68.5639069,11.2111708 68.5787224,11.0222535 68.590575,10.8215259 C68.6024275,10.6207983 68.6083538,10.4259773 68.6083538,10.2370572 C68.6083538,10.0717521 68.6113169,9.84741286 68.6172431,9.5640327 C68.6231694,9.28065253 68.6290956,8.97071013 68.6350219,8.63419619 C68.6409482,8.29768224 68.6439113,7.95231785 68.6439113,7.59809264 L68.6439113,3.11716621 C68.6439113,2.90463109 68.6409482,2.68914732 68.6350219,2.47070845 C68.6290956,2.25226957 68.6172432,2.0456413 68.5994644,1.85081744 C68.5816855,1.65599358 68.5520545,1.47888363 68.5105704,1.31948229 C68.4690864,1.16008095 68.4127874,1.04495948 68.3416719,0.974114441 C68.1638831,0.785194332 67.9653552,0.658265538 67.7460824,0.593324251 C67.5268095,0.528382963 67.2571673,0.472298147 66.9371474,0.42506812 L66.9371474,0.247956403 L67.6660778,0.247956403 C68.0690658,0.247956403 68.5253835,0.245004571 69.0350447,0.239100817 C69.544706,0.233197064 70.0543595,0.230245232 70.5640207,0.230245232 L71.8085361,0.230245232 C72.6026594,0.230245232 73.3078777,0.253859891 73.9242122,0.301089918 C74.5405467,0.348319946 75.1035361,0.507718896 75.6131973,0.779291553 C76.1347111,1.05086421 76.5554716,1.41984326 76.8754915,1.88623978 C77.1955113,2.3526363 77.3555188,2.94005095 77.3555188,3.64850136 C77.3555188,4.08537911 77.2755151,4.47797283 77.1155052,4.82629428 C76.9554952,5.17461573 76.7421519,5.4816063 76.4754687,5.7472752 C76.2087855,6.01294411 75.8976598,6.2402352 75.5420822,6.42915531 C75.1865046,6.61807542 74.8131537,6.77747437 74.4220183,6.90735695 L74.4220183,6.96049046 C74.6235123,7.06675802 74.8190771,7.22025331 75.0087184,7.42098093 C75.1983598,7.62170854 75.3820722,7.84604781 75.559861,8.09400545 C75.8680282,8.54269071 76.2028588,9.02679123 76.5643626,9.54632153 C76.9258665,10.0658518 77.2488447,10.5263377 77.5333067,10.9277929 C77.9718524,11.5417833 78.3985392,11.9904618 78.8133797,12.273842 C79.2282202,12.5572221 79.714169,12.7402357 80.2712405,12.8228883 L80.2712405,13 Z M75.3109579,3.54223433 C75.3109579,2.95185899 75.1628028,2.42643282 74.8664881,1.96594005 C74.5701735,1.50544729 74.1375605,1.13942007 73.5686364,0.867847411 C73.2841743,0.737964837 72.984901,0.643506199 72.6708075,0.584468665 C72.3567139,0.525431131 72.0278096,0.495912807 71.6840846,0.495912807 C71.4351802,0.495912807 71.2336893,0.501816471 71.0796057,0.513623978 C70.9255221,0.525431485 70.806998,0.537238815 70.7240299,0.549046322 C70.7121773,0.619891362 70.7003249,0.681879843 70.6884723,0.735013624 C70.6766197,0.788147405 70.6677304,0.85603955 70.6618041,0.938692098 C70.6558778,1.02134465 70.6499516,1.13646611 70.6440253,1.28405995 C70.638099,1.43165378 70.6292097,1.64123388 70.6173571,1.91280654 C70.6055045,2.32606928 70.5966152,2.7924588 70.5906889,3.3119891 C70.5847626,3.8315194 70.5817995,4.33333091 70.5817995,4.81743869 L70.5817995,6.76566757 C71.0677556,6.76566757 71.5211102,6.74500475 71.941877,6.70367847 C72.3626438,6.6623522 72.7685888,6.57674906 73.1597242,6.44686649 C73.539007,6.32879142 73.8649482,6.16939247 74.1375577,5.96866485 C74.4101672,5.76793723 74.6323998,5.54064614 74.8042624,5.28678474 C74.9761249,5.03292334 75.1035382,4.75840293 75.1865064,4.46321526 C75.2694745,4.16802759 75.3109579,3.86103702 75.3109579,3.54223433 Z M104,9.61716621 L103.11106,13 L92.2304405,13 L92.2304405,12.8228883 C92.5267551,12.7756583 92.8023236,12.6989106 93.0571543,12.5926431 C93.3119849,12.4863755 93.5223651,12.3387839 93.6883013,12.1498638 C93.7475643,12.0790187 93.7949739,11.9757046 93.8305317,11.8399183 C93.8660894,11.7041319 93.8986835,11.5476848 93.928315,11.3705722 C93.9579465,11.1934596 93.9786882,11.0074942 93.9905408,10.8126703 C94.0023934,10.6178464 94.0083196,10.4259773 94.0083196,10.2370572 C94.0083196,10.0717521 94.0112827,9.84741286 94.017209,9.5640327 C94.0231353,9.28065253 94.0290615,8.97071013 94.0349877,8.63419619 C94.040914,8.29768224 94.0438771,7.95231785 94.0438771,7.59809264 C94.0438771,7.23205993 94.0438771,6.88964737 94.0438771,6.57084469 L94.0438771,3.11716621 C94.0438771,2.90463109 94.040914,2.68619549 94.0349877,2.46185286 C94.0290615,2.23751023 94.017209,2.0249783 93.9994302,1.82425068 C93.9816513,1.62352307 93.9520203,1.44346129 93.9105362,1.28405995 C93.8690522,1.1246586 93.8127532,1.00953714 93.7416377,0.938692098 C93.5638489,0.749771989 93.3742104,0.62874686 93.1727164,0.575613079 C92.9712224,0.522479298 92.7104694,0.472298147 92.3904496,0.42506812 L92.3904496,0.247956403 L102.204342,0.247956403 L103.4133,3.17029973 L103.235512,3.25885559 C102.275452,2.0662974 101.374669,1.26339898 100.533136,0.85013624 C100.331642,0.755676185 99.9582909,0.673024877 99.413072,0.602179837 C98.867853,0.531334796 98.2041181,0.495912807 97.4218474,0.495912807 C97.1729431,0.495912807 96.9151532,0.504768304 96.64847,0.522479564 C96.3817868,0.540190824 96.1891852,0.560853651 96.0706593,0.584468665 C96.0469541,0.773388774 96.0262124,1.16303065 96.0084335,1.75340599 C95.9906546,2.34378134 95.9817653,3.02860646 95.9817653,3.80790191 C95.9817653,4.25658717 95.9817653,4.63442172 95.9817653,4.94141689 C95.9817653,5.24841207 95.9847284,5.49931783 95.9906547,5.69414169 C95.996581,5.88896555 95.9995441,6.03950901 95.9995441,6.14577657 C95.9995441,6.24023662 95.9995441,6.30517693 95.9995441,6.34059946 C96.0588071,6.34059946 96.1773312,6.34059946 96.3551199,6.34059946 C96.5329087,6.34059946 96.7373628,6.33469579 96.9684882,6.32288828 C97.1996137,6.31108078 97.4307356,6.29632161 97.6618611,6.27861035 C97.8929865,6.26089909 98.0855882,6.2343326 98.2396718,6.19891008 C98.5952494,6.11625753 98.8915596,6.0040879 99.1286113,5.86239782 C99.365663,5.72070774 99.5582647,5.54950146 99.706422,5.34877384 C99.8545793,5.14804623 99.9731034,4.91485146 100.061998,4.64918256 C100.150892,4.38351366 100.230896,4.08537858 100.302012,3.75476839 L100.515357,3.75476839 L100.515357,9.33378747 L100.302012,9.33378747 C100.207191,8.95594725 100.061999,8.56630537 99.8664311,8.16485014 C99.6708635,7.7633949 99.4664094,7.462308 99.2530629,7.26158038 C99.0634215,7.09627529 98.8352626,6.96049099 98.5685794,6.85422343 C98.3018962,6.7479564 97.9907705,6.68301556 97.6351929,6.65940054 C97.4574041,6.64759304 97.309249,6.63873754 97.1907231,6.63283379 C97.0721973,6.62693003 96.9536732,6.6239782 96.8351473,6.6239782 C96.728474,6.6239782 96.6099499,6.6239782 96.4795715,6.6239782 C96.3610456,6.6239782 96.2069643,6.6239782 96.0173229,6.6239782 C95.9936178,6.7892833 95.9817653,7.03133356 95.9817653,7.35013624 C95.9817653,7.66893892 95.9817653,7.99954416 95.9817653,8.34196185 C95.9817653,8.49545944 95.9817653,8.67256939 95.9817653,8.873297 C95.9817653,9.07402462 95.9817653,9.27474922 95.9817653,9.47547684 C95.9817653,9.66439695 95.9847284,9.84445873 95.9906547,10.0156676 C95.996581,10.1868764 95.9995441,10.3315162 95.9995441,10.4495913 C96.0113967,10.8274315 96.0321384,11.1846032 96.0617699,11.5211172 C96.0914014,11.8576311 96.1595527,12.1085369 96.266226,12.273842 C96.3728993,12.4391471 96.6277261,12.5572204 97.030714,12.6280654 C97.4337019,12.6989104 97.8722411,12.7343324 98.3463445,12.7343324 C98.5478385,12.7343324 98.8056284,12.7284288 99.1197219,12.7166213 C99.4338155,12.7048137 99.7627198,12.6752954 100.106445,12.6280654 C100.485728,12.5808354 100.835374,12.4893286 101.155393,12.3535422 C101.475413,12.2177559 101.783576,12.0258868 102.079891,11.7779292 C102.376205,11.5299715 102.663626,11.2259328 102.942162,10.8658038 C103.220698,10.5056749 103.508119,10.0717555 103.804433,9.5640327 L104,9.61716621 Z" id="FAIRE" fill="#000000"></path>
    </g>
</svg>
