<svg xmlns="http://www.w3.org/2000/svg" viewBox="0 0 88.42 52.28"><g data-name="Layer 2"><g data-name="Layer 1"><path d="M76.44 16.15A4.49 4.49 0 0072 19.89L64.3 0H17.76L10 19.89a4.49 4.49 0 10-4.42 5.26V48l10.67-7.74h-.23a6 6 0 115.62-3.92l.11-.08L54 48.57l22.46-13V25.15a4.5 4.5 0 000-9zm-33 4.5H14L20.5 4h41.06L68 20.65h-3.55v-.18a10.5 10.5 0 10-21 0c.01.06.02.12.02.18zm3.5 0v-.18a7 7 0 0114 0v.18zM66 40.32a6 6 0 116-6 6 6 0 01-6 6z" fill="#242b2e"/><path data-name="&lt;Path&gt;" fill="#18cc6c" d="M88.42 28.34l-3.74 9.22-1.49-2.49-29.23 17.21-32.23-12.77L0 52.28l21.73-19.91 32.23 12.75 26.01-15.41-1.45-2.44 9.9 1.07z"/></g></g></svg>