<svg width="64px" height="64px" viewBox="0 0 48 55" version="1.1" xmlns="http://www.w3.org/2000/svg"
    xmlns:xlink="http://www.w3.org/1999/xlink">
    <title>Geekbot</title>
    <g id="Page-1" stroke="none" stroke-width="1" fill="none" fill-rule="evenodd">
        <g id="Group">
            <path
                d="M50.0001819,31.0710412 C50.0001819,44.8391324 38.8069958,55.9998162 25.0001819,55.9998162 C11.1927533,55.9998162 0.000181852008,44.8391324 0.000181852008,31.0710412 C0.000181852008,17.3029501 11.1927533,6.14226631 25.0001819,6.14226631 C38.8069958,6.14226631 50.0001819,17.3029501 50.0001819,31.0710412"
                id="Fill-15" fill="#54D4DA"></path>
            <path
                d="M16.5904205,54.5525979 C19.2187974,55.4883231 22.0493571,56 25.0003662,56 C27.8911506,56 30.6670165,55.5091579 33.2505321,54.6083614 L32.8013052,47.1605521 L17.0248986,47.1605521 L16.5904205,54.5525979 Z"
                id="Fill-17" fill="#C6C7C9"></path>
            <path
                d="M42.0484353,25.2071026 C38.9216685,25.0067214 39.9756004,27.6122904 39.7746466,30.730149 C39.5743074,33.8480076 38.1940561,36.2979288 41.3208229,36.4976972 C44.4475897,36.6980785 45.1954819,34.2077134 45.3964356,31.0904676 C45.5973894,27.9726089 45.1752021,25.4074839 42.0484353,25.2071026"
                id="Fill-20" fill="#AFB1B3"></path>
            <path
                d="M33.1432953,52.9817805 L32.800998,47.160307 L17.0245913,47.160307 L16.8457609,50.2076952 C19.4151422,53.4511751 31.7169538,54.36484 33.1432953,52.9817805"
                id="Fill-22" fill="#9C9EA3"></path>
            <path
                d="M7.77770699,25.2071026 C10.9044738,25.0067214 9.85054197,27.6122904 10.0514957,30.730149 C10.251835,33.8480076 11.6320862,36.2979288 8.50531939,36.4976972 C5.37855259,36.6980785 4.63004592,34.2077134 4.42970669,31.0904676 C4.22875293,27.9726089 4.65094019,25.4074839 7.77770699,25.2071026"
                id="Fill-24" fill="#C6C7C9"></path>
            <path
                d="M7.43626995,20.6701526 L7.43626995,41.8948407 C7.43626995,44.1970803 10.3104618,50.3831618 24.9131019,50.3831618 C39.5157419,50.3831618 42.3899338,44.1970803 42.3899338,41.8948407 L42.3899338,20.6701526 C42.3899338,11.045725 34.5650278,3.24372501 24.9131019,3.24372501 C15.2605614,3.24372501 7.43626995,11.045725 7.43626995,20.6701526 Z"
                id="Fill-26" fill="#D7D8D9"></path>
            <path
                d="M25.0003286,3.24369239 C34.5029024,3.29000043 42.2129287,10.8991792 42.3869295,20.344114 L42.3899338,20.6705203 L42.3889473,41.9693779 L42.3889473,41.9693779 L42.3808634,42.1265632 L42.3808634,42.1265632 L42.3642051,42.2934248 L42.3642051,42.2934248 L42.3384609,42.4693807 L42.3384609,42.4693807 L42.303119,42.6538489 L42.303119,42.6538489 L42.2576676,42.8462475 L42.2576676,42.8462475 L42.2015952,43.0459945 L42.2015952,43.0459945 L42.13439,43.252508 L42.13439,43.252508 L42.0555404,43.465206 L42.0555404,43.465206 L41.9645346,43.6835066 C41.9483255,43.7203246 41.9315886,43.7573518 41.9143132,43.794576 L41.8041137,44.0201893 L41.8041137,44.0201893 L41.6804788,44.2499504 C41.658725,44.2885572 41.63639,44.3273126 41.6134632,44.3662044 L41.4687158,44.6010959 L41.4687158,44.6010959 L41.3092538,44.8386802 L41.3092538,44.8386802 L41.1345654,45.0783755 C41.1041534,45.1184682 41.0730857,45.1586247 41.0413515,45.1988328 L40.8428642,45.4406032 C40.2229,46.1671895 39.3801107,46.9026323 38.2523258,47.5762248 L37.8657568,47.7983679 C36.0117136,48.8234403 33.4513358,49.6798403 29.9506089,50.1014237 L29.1859748,50.1850107 C28.0171781,50.3001171 26.749501,50.3683358 25.3751722,50.3808285 L25.0001019,50.3826924 L25.0003286,3.24369239 Z"
                id="Path" fill="#BBBDBF"></path>
            <path
                d="M9.37710228,19.7387169 C9.33838642,19.7387169 9.29905602,19.7356529 9.25972562,19.7301379 C8.81664408,19.6657952 8.50998987,19.255841 8.57390177,18.8146346 C8.6660824,18.1834643 8.79574981,17.552294 8.96044586,16.9388945 C9.07597891,16.5074927 9.52151859,16.2531862 9.95292392,16.3671646 C10.3849438,16.4823684 10.6418205,16.9254132 10.5256729,17.3562023 C10.3775693,17.9089358 10.2601927,18.4776019 10.1778446,19.0468807 C10.1194636,19.4488688 9.77347897,19.7387169 9.37710228,19.7387169"
                id="Fill-30" fill="#EEEEEF"></path>
            <path
                d="M11.024493,14.7005686 C10.8966692,14.7005686 10.7670017,14.6705421 10.6465524,14.6068123 C10.2507902,14.397852 10.099614,13.9088482 10.3091713,13.5142136 C11.8135591,10.6782368 14.0971805,8.35577533 16.9123767,6.79807159 C17.301379,6.58237068 17.7966962,6.72147326 18.0142425,7.11243116 C18.2311742,7.50277627 18.0898306,7.99484398 17.6983702,8.21115768 C15.1591012,9.61627753 13.098557,11.7113952 11.7410437,14.2703924 C11.5960128,14.544308 11.3151692,14.7005686 11.024493,14.7005686"
                id="Fill-32" fill="#EEEEEF"></path>
            <path
                d="M40.5561539,22.1943369 C38.1858828,22.0117265 34.5588825,21.9375793 30.0961112,22.7409426 C28.3895405,23.0479488 27.1659964,24.2110179 24.9131019,24.2110179 C22.6595929,24.2110179 21.4366633,23.0479488 19.7294781,22.7409426 C15.2673213,21.9375793 11.640321,22.0117265 9.26943531,22.1943369 C7.25313778,22.349372 4.32732474,22.7495217 4.42872343,23.8133193 C4.48710449,24.4236549 4.54671463,24.555404 4.66470583,25.155935 C4.78146796,25.7515636 5.6639438,25.6761908 5.96629625,26.3802827 C6.29138659,27.1364615 7.19660033,30.3921971 7.42828096,31.1281539 C7.89410039,32.607421 8.8595388,33.7171777 10.3510213,34.2282417 C12.4644158,34.9519428 14.6171406,34.9366232 16.8012069,34.6339065 C18.3959317,34.4126905 19.704282,33.6240341 20.7582139,32.4082653 C21.5939849,31.4449646 22.1882426,30.3443998 22.6694255,29.1739772 C22.907866,28.5924427 23.1100489,27.9870094 23.431452,27.453885 C23.6213441,27.1382999 23.9863793,26.7718534 24.3157714,26.7240561 C24.5363904,26.6915784 24.7336569,26.6658413 24.9131019,26.6535856 C25.0919323,26.6658413 25.2891988,26.6915784 25.5104323,26.7240561 C25.8398244,26.7718534 26.2042452,27.1382999 26.3941373,27.453885 C26.7155404,27.9870094 26.9183377,28.5924427 27.1567783,29.1739772 C27.6379612,30.3443998 28.2322189,31.4449646 29.0673754,32.4082653 C30.1213072,33.6240341 31.4296575,34.4126905 33.0249969,34.6339065 C35.2084486,34.9366232 37.361788,34.9519428 39.4751825,34.2282417 C40.9660504,33.7171777 41.9321034,32.607421 42.3979228,31.1281539 C42.6296034,30.3921971 43.5342026,27.1364615 43.859293,26.3802827 C44.16226,25.6761908 45.0447358,25.7515636 45.1621125,25.155935 C45.2794891,24.555404 45.3390993,24.4236549 45.3968658,23.8133193 C45.4982645,22.7495217 42.573066,22.349372 40.5561539,22.1943369"
                id="Fill-34" fill="#58585B"></path>
            <path
                d="M40.716118,31.5988967 C40.3596863,32.3685567 38.8264152,33.5334642 36.0671419,33.5334642 C33.3410535,33.5334642 32.0118089,33.2301348 31.1287185,32.4659898 C29.5659497,31.1135696 28.7793417,29.3683531 28.6834738,27.3247096 C28.636769,26.3313824 28.9323615,25.306803 29.8431061,24.8680478 C30.4152405,24.5922938 32.2834345,23.7215239 36.9821882,23.7215239 C41.2218824,23.7215239 41.3669132,24.4053938 41.5740124,25.6787645 C41.9077062,27.728536 41.575856,29.7403147 40.716118,31.5988967 M21.1424842,27.3247096 C21.0466163,29.3683531 20.2600083,31.1135696 18.6972394,32.4659898 C17.8135345,33.2301348 16.485519,33.5334642 13.7588161,33.5334642 C10.9995427,33.5334642 9.46627167,32.3685567 9.10983992,31.5988967 C8.24948742,29.7403147 7.91763718,27.728536 8.25194557,25.6787645 C8.45904471,24.4053938 8.60407556,23.7215239 12.8443843,23.7215239 C17.5425235,23.7215239 19.4107175,24.5922938 19.9828519,24.8680478 C20.8935965,25.306803 21.189189,26.3313824 21.1424842,27.3247096"
                id="Fill-36" fill="#EEEEEF"></path>
            <path
                d="M26.7266635,27.6609456 C26.7266635,27.9893993 26.4599542,28.2547359 26.1311767,28.2547359 L23.8690641,28.2547359 C23.5402866,28.2547359 23.2735773,27.9893993 23.2735773,27.6609456 L23.2735773,23.799164 C23.2735773,23.4713231 23.5402866,23.2053737 23.8690641,23.2053737 L26.1311767,23.2053737 C26.4599542,23.2053737 26.7266635,23.4713231 26.7266635,23.799164 L26.7266635,27.6609456 Z"
                id="Fill-38" fill="#FEFEFE"></path>
            <path
                d="M37.3481453,39.6883549 C36.1436518,37.2678475 34.4008234,40.2355734 24.912979,40.2355734 C15.4251345,40.2355734 13.6823062,37.2678475 12.4778127,39.6883549 C11.1743787,42.3074052 18.742408,45.0214374 24.912979,45.0214374 C31.0841645,45.0214374 38.6515793,42.3074052 37.3481453,39.6883549"
                id="Fill-40" fill="#FEFEFE"></path>
            <path
                d="M37.3481453,39.6883549 C36.1436518,37.2678475 34.4008234,40.2355734 24.912979,40.2355734 L24.912979,45.0214374 C31.0841645,45.0214374 38.6515793,42.3074052 37.3481453,39.6883549"
                id="Fill-42" fill="#EEEEEF"></path>
            <path
                d="M24.9131019,0 C21.0857623,0 18.3197291,1.47620311 18.6804626,3.28331103 C19.0411961,5.09103174 19.744227,8.85476753 24.9131019,8.85476753 C30.0813623,8.85476753 30.7850077,5.09103174 31.1457412,3.28331103 C31.5064747,1.47620311 28.7404414,0 24.9131019,0"
                id="Fill-44" fill="#808184"></path>
            <path
                d="M25,5.68434189e-14 C28.7801611,0.0231554476 31.5036141,1.49053346 31.1457412,3.28331103 C30.7871607,5.0802424 30.0845839,8.81031068 25,8.85476753 L25,5.68434189e-14 Z"
                id="Fill-47" fill="#6C6E70"></path>
        </g>
    </g>
</svg>
