<?xml version="1.0" encoding="utf-8"?>
<!-- Generator: Adobe Illustrator 26.1.0, SVG Export Plug-In . SVG Version: 6.00 Build 0)  -->
<svg version="1.1" id="Layer_1" xmlns="http://www.w3.org/2000/svg" xmlns:xlink="http://www.w3.org/1999/xlink" x="0px" y="0px"
	 viewBox="0 0 193.2 214.9" style="enable-background:new 0 0 193.2 214.9;" xml:space="preserve">
<style type="text/css">
	.st0{fill:#54D4DA;}
	.st1{fill:#CFD1D2;}
	.st2{fill:#B9BBBC;}
	.st3{fill:#DFE0E1;}
	.st4{fill:#C6C7C8;}
	.st5{fill:#F4F4F4;}
	.st6{fill:#58585A;}
	.st7{opacity:0.5;}
	.st8{fill:#FFFFFF;}
	.st9{fill:#87888A;}
	.st10{fill:#707173;}
</style>
<g>
	<g>
		<circle class="st0" cx="96.6" cy="118.3" r="96.6"/>
	</g>
	<g>
		<g>
			<path class="st1" d="M64.1,209.2c10.2,3.6,21.1,5.6,32.5,5.6c11.2,0,21.9-1.9,31.9-5.4l-1.7-28.9h-61L64.1,209.2z"/>
		</g>
		<g>
			<path class="st2" d="M162.5,97.7c-12.1-0.8-8,9.3-8.8,21.4s-6.1,21.6,6,22.3c12.1,0.8,15-8.9,15.7-20.9
				C176.2,108.4,174.6,98.4,162.5,97.7z"/>
		</g>
		<g>
			<path class="st2" d="M128.1,203.1l-1.3-22.6h-61l-0.7,11.9C75,205,122.6,208.5,128.1,203.1z"/>
		</g>
		<g>
			<path class="st1" d="M30.1,97.7c12.1-0.8,8,9.3,8.8,21.4s6.1,21.6-6,22.3c-12.1,0.8-15-8.9-15.7-20.9
				C16.4,108.4,18,98.4,30.1,97.7z"/>
		</g>
		<g>
			<path class="st3" d="M96.3,12.6L96.3,12.6L96.3,12.6L96.3,12.6L96.3,12.6c-37.3,0-67.5,30.2-67.5,67.5c0,0,0,72.1,0,81
				S39.9,194,96.3,194s67.5-24,67.5-32.9s0-81,0-81C163.8,42.8,133.6,12.6,96.3,12.6z"/>
		</g>
		<g>
			<path class="st4" d="M96.3,194c56.4,0,67.5-24,67.5-32.9s0-81,0-81c0-37.3-30.2-67.5-67.5-67.5V194z"/>
		</g>
		<g>
			<path class="st5" d="M36.3,76.5c-0.2,0-0.3,0-0.5,0c-1.7-0.2-2.9-1.8-2.6-3.5c0.4-2.4,0.9-4.9,1.5-7.3c0.4-1.7,2.2-2.7,3.8-2.2
				c1.7,0.4,2.7,2.2,2.2,3.8c-0.6,2.1-1,4.3-1.3,6.5C39.1,75.3,37.8,76.5,36.3,76.5z"/>
		</g>
		<g>
			<path class="st5" d="M42.6,57c-0.5,0-1-0.1-1.5-0.4c-1.5-0.8-2.1-2.7-1.3-4.2c5.8-11,14.6-20,25.5-26c1.5-0.8,3.4-0.3,4.3,1.2
				c0.8,1.5,0.3,3.4-1.2,4.3c-9.8,5.4-17.8,13.6-23,23.5C44.8,56.3,43.8,57,42.6,57z"/>
		</g>
		<g>
			<path class="st6" d="M156.7,86c-9.2-0.7-23.2-1-40.4,2.1c-6.6,1.2-11.3,5.7-20,5.7s-13.4-4.5-20-5.7C59,85,45,85.3,35.9,86
				c-7.8,0.6-19.1,2.1-18.8,6.3c0.2,2.4,0.5,2.9,0.9,5.2c0.5,2.3,3.9,2,5,4.7c1.3,2.9,4.8,15.5,5.6,18.4c1.8,5.7,5.5,10,11.3,12
				c8.2,2.8,16.5,2.7,24.9,1.6c6.2-0.9,11.2-3.9,15.3-8.6c3.2-3.7,5.5-8,7.4-12.5c0.9-2.3,1.7-4.6,2.9-6.7c0.7-1.2,2.1-2.6,3.4-2.8
				c0.9-0.1,1.6-0.2,2.3-0.3c0.7,0,1.5,0.1,2.3,0.3c1.3,0.2,2.7,1.6,3.4,2.8c1.2,2.1,2,4.4,2.9,6.7c1.9,4.5,4.2,8.8,7.4,12.5
				c4.1,4.7,9.1,7.8,15.3,8.6c8.4,1.2,16.8,1.2,24.9-1.6c5.8-2,9.5-6.3,11.3-12c0.9-2.8,4.4-15.5,5.6-18.4c1.2-2.7,4.6-2.4,5-4.7
				c0.5-2.3,0.7-2.8,0.9-5.2C175.8,88.1,164.5,86.6,156.7,86z M81.7,105.9c-0.4,7.9-3.4,14.7-9.4,19.9c-3.4,3-8.5,4.1-19.1,4.1
				c-10.7,0-16.6-4.5-18-7.5c-3.3-7.2-4.6-15-3.3-22.9c0.8-4.9,1.4-7.6,17.7-7.6c18.2,0,25.4,3.4,27.6,4.4
				C80.8,98,81.9,102,81.7,105.9z M157.3,122.4c-1.4,3-7.3,7.5-18,7.5c-10.5,0-15.7-1.2-19.1-4.1c-6-5.2-9.1-12-9.4-19.9
				c-0.2-3.8,1-7.8,4.5-9.5c2.2-1.1,9.4-4.4,27.6-4.4c16.4,0,16.9,2.7,17.7,7.6C161.9,107.4,160.7,115.2,157.3,122.4z"/>
		</g>
		<g class="st7">
			<path class="st8" d="M81.7,105.9c-0.4,7.9-3.4,14.7-9.4,19.9c-3.4,3-8.5,4.1-19.1,4.1c-10.7,0-16.6-4.5-18-7.5
				c-3.3-7.2-4.6-15-3.3-22.9c0.8-4.9,1.4-7.6,17.7-7.6c18.2,0,25.4,3.4,27.6,4.4C80.8,98,81.9,102,81.7,105.9z M157.3,122.4
				c-1.4,3-7.3,7.5-18,7.5c-10.5,0-15.7-1.2-19.1-4.1c-6-5.2-9.1-12-9.4-19.9c-0.2-3.8,1-7.8,4.5-9.5c2.2-1.1,9.4-4.4,27.6-4.4
				c16.4,0,16.9,2.7,17.7,7.6C161.9,107.4,160.7,115.2,157.3,122.4z"/>
		</g>
		<g>
			<path class="st8" d="M103.3,107.2c0,1.3-1,2.3-2.3,2.3h-8.7c-1.3,0-2.3-1-2.3-2.3v-15c0-1.3,1-2.3,2.3-2.3h8.7
				c1.3,0,2.3,1,2.3,2.3V107.2z"/>
		</g>
		<g>
			<path class="st8" d="M144.3,153.8c-4.7-9.4-11.4,2.1-48,2.1s-43.4-11.5-48-2.1c-5,10.1,24.2,20.7,48,20.7
				S149.4,163.9,144.3,153.8z"/>
		</g>
		<g>
			<path class="st5" d="M144.3,153.8c-4.7-9.4-11.4,2.1-48,2.1v18.5C120.1,174.4,149.4,163.9,144.3,153.8z"/>
		</g>
		<g>
			<path class="st9" d="M96.3,0C81.5,0,70.8,5.7,72.2,12.7s4.1,21.6,24.1,21.6s22.7-14.6,24.1-21.6C121.8,5.7,111.1,0,96.3,0z"/>
		</g>
		<g>
			<path class="st10" d="M96.3,0c14.8,0,25.5,5.7,24.1,12.7s-4.1,21.6-24.1,21.6V0z"/>
		</g>
	</g>
</g>
</svg>
