<svg viewBox="0 0 248 272" xmlns="http://www.w3.org/2000/svg" xml:space="preserve" style="fill-rule:evenodd;clip-rule:evenodd;stroke-linecap:round;stroke-linejoin:round;stroke-miterlimit:2"><path d="m16.174 37.477-.251.5-.387.023-.257.659-.338.691-.002.985-1.464.014-.235.145-.655-.028-.41-.413-.501.058-.43.178-.538-.064-.166.269-.141.663-.035.864.334.288-.034.866.667.618.08-.978.678.343.059-.468.41.295.023.431.422.06.593.538.285.602.76.268.1.361 1.384 1.006 1.879.241.514.614.932-.197.585-.129.966-.076.176-.543-.6-1.323-.952-1.265-.038-.946-.021-.473-.478-.534.025-.629.248-.421-.131-.556-.429.1.045-1.061-.646-1.172.052-.353-.255-.403.208-.343.464-.061.142-.623.546-.171.024-.589-.183-.282.217-.545.471-.253.383.056.043.866.187.126-.2.191.142.322-.02.471-.242.303.303 1.075.29-.537.228.088.334.33 1.036.085-.014.355.391-.099.175.398.339.212.268.052-.057.429.287-.421.046.712.376.293.024-.588.273-.107.024-.549.514-.371.018-.432.57.142.186-.738.448-.611.215-.542.417.176-.017.433-.239.187.259.247-.393.179-.315.143.029.278-.122.192-.28.223-.134.465-.321.302s.453.256.568.222c.119-.035.967-.075.967-.075l.09-.349.314-.146.505-.054.151-.861.369-.572-.478-.534-.158.032-.122.23.028-.707-.337-.288.019-.474-.375-.252-.052.354-.16.149-.186-.166.253-.5-.03-.238-.272.066-.391.141-.027-.318.192.048.352-.14-.095-.516.891-.078.438-.415-.014-.589.274-.068.01-.234-.23-.051-.026-.315.276-.185.547-.213.012-.234-1.09.225-.304-.05.057-.473-.195.071-.324.419-.135.428-.63.365-.537-.065-.174-.44-.31-.013-.167.388-.542.012-.867-.509-.877-.198-.55.252-.932.194-.711.44-.161.152.266.088.507-.174.507-.135.229.089-.086.192-.463.022-1.049.227-.579.053-.291.461-.088.309-.282.303.091.596-.17.424-.207.303-.049.314-.202.188-.016.394-.341-.132.007.786-.213.505.102.357-.241.225-.537-.062-.489-.297-.423-.021Z" style="fill:#005aaa;fill-rule:nonzero" transform="translate(0 -3.704) scale(4.16667)"/><path d="m19.753 36.573-.3-.17-.059.511.178.397-.356.224-.026.625.248.525.237.836.07-.782.253-.542-.391.141.019-.472.213-.54-.211-.482.125-.271Z" style="fill:#005aaa;fill-rule:nonzero" transform="translate(0 -3.704) scale(4.16667)"/><path d="m19.948 37.526-.088.311.298.212-.103-.28-.107-.243ZM12.134 44.931l.057.514.262.209-.012.237.306.053-.02-.395-.214-.48-.379-.138ZM16.353 51.104l.385.056.028.197.295.287-.323.381-.398-.609.013-.312ZM38.542 45.481l.124-.193.228.049.443.531-.054.352.191.087-.004 1.063-.277.183-.436.257-.31.026.03-.746-.183-.206.019-.51.358-.259-.02-.473-.223-.169.114.008ZM33.856 43.264l-1.117-.051.832.391 1.055.601 1.435-.255.144-.659.354-.18.202.676.005.867.087.708-.371.576-.019.47.601.384.287.524-.025.628-.44.415-.081 1.059-.206.304-.147.742-.883.867-.627.285-.361.378-.576-.026-.366.455-.719-.308-.635-.499-.135-.517-.459-.019-.58-.933.214-.542-.392-.806-.792-.389-.704-.738-1.419-.142-.257-.289-1.236.025-.6-.382.053-.352-.662-.777.245-.383.229-.816.901-.391.327-.498.389-.063.275-.145.613.108.278-.223 1.047-.11.298.207 1.287-.334.197-.15.456.139.439-.375.433-.177.395-.298-.148-.163-.538.015-.518.409-.385-.014-.134-.481.752-.518.657-.049.131-.388-.685-.185-.343-.095-.24.226.146.163-.158.111-.417-.177-.012.355-.056.391.07.197-.123.154.145.205-.276.181-.033-.157.047-.195-.338-.21-.376-.255s-.534-.104-.539.017c-.004.118.101.358.101.358l.451.293.303.094.032.199-.149-.125-.123.152-.126.271-.109-.164-.025-.317-.342-.132-.462-.019-.576-.027-.025.61-.221.205-.544.093-.193.049-.203-.184-.188-.182.111-.354.102-.131.256-.106.443-.02.185-.289-.412-.274.32-.299.486-.116.099-.508.235-.086-.007.154-.119.055.035.099.641-.128.333-.124.055-.447.649-.286-.049-.241-.363-.075-.154-.46-.233.013-.201.225.038.491-.329.558-.271-.011-.007-.314-.4.354.019-.45.075-.41.496-.393.214-.935.316-.222.559.005.238-.165-.1-.399.034-.39.142-.153.051-.295-.307-.071.011-.235.181-.189-.154-.46-.672-.108.049-.195.217-.147.39-.121-.21-.483v-.529l-.345-.036-.26-.229.142-.19.118-.527-.653-.048-.2.109-.707-.543-.215-.384.203-.285.506-.114.146-.27-.377-.231.085-.216.284.17.746.093.286-.381-.043-.375.793-.102s.031.236.09.182c.061-.056-.148.305-.148.305l-.401.398.241.227.071.14.306.092.03.219.429-.121.27-.065s-.082-.813.053-.803c.133.005.678-.109.678-.109l.576.066.234.383.734.035-.091-.655.525-.136.691.111-.595.387-.375.674.281.207.028.257.217-.622-.048-.214.274-.088.132.535.286-.439-.143-.219.277-.168.334.251.402.117.521-.036.399.589-.007.156.459.138.057.495.257-.165.38-.338.341.093.439.57-.111.9.541-.055.038-.468.212-.05.087-.192.176-.112.128-.288.087.693-.198.167-.124.191-.106.292-.392.1-.712.026-.197.525.046.354-.364.398-.069.253-.457.374.045.258.303.131.14.4.172.025.123.283.071.653.227.069.048.238.304.111.177.421-.18.171-.407.019-.765.361-.244-.152-.384-.054-.012.315-.599.011-.547.666-.375.709-.384-.037-.189.387-.624.149.01.277.262.167.387-.022.335-.632.758-.184.201.739-.451.665-.007.593-.215.601-.083.154-.113-.103-.448.135-.491-.239-.158.153-.676-.464Z" style="fill:#005aaa;fill-rule:nonzero" transform="translate(0 -3.704) scale(4.16667)"/><path d="m37.083 42.068-.183.231.022.393.167.164.159-.129-.04-.435.062-.097-.187-.127ZM39.149 38.146l.169-.328.422.019.029.18s.312-.046.29.011c-.022.062-.046.178-.046.178l-.165.266-.169-.045-.53-.281ZM40.067 35.431l.029-1.137.367-.066.125-.679-.171-.542.365-.415-.209-.581-.452-.236-.657.05-.07-.653-.545-.34.032-.295.305.055-.412-.274.406-.081.06-.549-.546-.28-.13-.655-.599.091-.05-.179.139-.071.074-.429-.451-.297-.034-.592-.692-.464-.093-.574-.222-.187-.251-.071-.268-.484.148-.251-.146-.279-.571-.165.306-.437-.499-.497.006-.135.823.096.088.2.014.65.373.253.533.18.602.814-.325.005-.196.011.417.629.123.299.363.077.063.339-.033.391.285.072.31.465.333.309.298.723.178-.092.701 1.744.375-.276s-.219-.265-.196-.384c.025-.116-.249-.503-.19-.5.057.002.232-.069.232-.069s.278.306.255.385c-.023.076.157.421.157.421l.06.908.152.479-.072.804-.2.245.103.28-.06 1.042-.297.202-.384.87-.179.127Z" style="fill:#005aaa;fill-rule:nonzero" transform="translate(0 -3.704) scale(4.16667)"/><path d="m39.355 27.844.306.054.179.32-.016.395s-.154.033-.192-.048c-.033-.08-.123-.262-.123-.262s-.208-.067-.186-.144c.022-.078.032-.315.032-.315ZM39.995 28.659l.189.108.128.184-.119.544-.173-.047-.025-.295-.167-.146.167-.348ZM31.476 30.7l.382.057.157-.051.247.049.103.341.697-.561.606-.189s.522.378.58.38c.059.004.367.017.367.017l.962-.017-.708-.563-.443-.018-.139.092.008-.217-.646-.166-.37.1-.089.253-.414.258-.519-.064-.108-.164-.153-.024-.045.195-.213-.027-.028.194-.232.048-.002.077ZM35.91 31.096l.18-.169.384.016.107.183-.219.226-.233.009-.034-.121-.185-.144ZM36.749 31.231l.132-.387.218-.109-.003-.374.158-.151.012-.256-.152-.066.413-.236-.165-.204.395-.22.172.05.07.631-.367.004.085.32-.176.03-.035.412.24-.186.268.012.343.092-.109.35-.731-.09.013.196-.237.128-.544.054ZM32.788 22.064a3.967 3.967 0 0 0-.036.409l.636.955.461.038.129.124h.406l-.328-.467-.342-.115-.322-.585-.456-.197-.012-.157-.136-.005ZM34.561 23.953l-.012.333.222.167.658-.01-.202-.283-.323-.076-.051-.159-.292.028ZM39.128 21.711l-.421-.034-.202-.225-.443.129-.522.076-.075.229-.613.337.008.216.344.297.442.335.073.567.288.51-.323.366.443.285.047.45.443-.146.671.311-.065.345-.179.39.663.908.279-.088.172.19.182-.107.063.415s.039.286.151.307c.112.022.485.022.485.022l-.005.132.511.171s.026.168.041.253c.011.081.205.109.205.109l.346.295.19.507s.269.177.349.179c.082.005.373 0 .373 0l.178-.39.547-.271-.031-.434-.417-.896-1.35-1.916-.256-.476-.904-.953.194-.372-.14-.173-.258-.011s-.113-.452-.111-.5c.004-.051-.473-.686-.473-.686l-.068-.349-.147.042-.151.126-.144-.072-.259-.063-.131-.337ZM37.931 20.226l.586.222.217.383.347.036-.169-.147.021-.528-.147-.183-.751.044-.104.173ZM47.692 38.428s-.319.26-.324.323c0 .057-.011.293-.011.293l.252-.029.139-.132-.056-.455ZM45.613 40.265l-.065.154-.269.009-.007.648.295-.185.106-.192.138-.052.028-.234-.157.053-.069-.201ZM46.15 43.165l-.229-.032-.086.211-.193-.007-.066.23-.159.094.048.259.308-.027.344-.381.033-.347ZM46.726 42.736l-.227-.109-.094.408.187.168.134-.467ZM46.865 42.172l.172.066-.241.226-.056-.084.125-.208ZM28.197 40.665l-.075.041-.045.194.098.037-.105.132-.036.271-.092.166.173-.04.188-.069.075-.04-.094-.097.046-.226-.043-.14.01-.242-.1.013ZM27.994 41.065v.119l-.047.153-.094-.066.005-.137.136-.069ZM33.342 40.231s-.179.188-.103.192c.076.001.186.144.186.144l.289.013.026.317.274-.106.194-.031.207-.404-.2-.205-.504.036-.346-.017-.023.061ZM32.689 39.691l.311.014.377.172-.087.215-.401-.042-.069-.197-.131-.162ZM24.467 34.875l.207.088.12.361-.046.194.171.085.007.787-.35.064-.125-.241.162-.211-.019-.473-.227.346-.55.268.112-.368.296-.144.3-.262-.125-.299-.458-.102.087-.25.438.157ZM29.016 60.816c4.975 2.123 6.931 3.848 6.873 5.037-.036.759-2.064-1.616-3.276-2.45-1.397-1.066-2.85-2.003-4.338-2.293-1.439-.274-12.052 3.956-17.17.279 5.388-.348 12.303-2.967 17.911-.573ZM6.813 25.003c-.011.189-.549.992-.505.922 2.03-3.123 3.046-2.529 5.256-4.436-.36 3.499-4.355 5.69-6.286 7.176-.919-5.187.197-9.712 2.892-13.651-.732 3.896-.933 4.149-1.357 9.989Z" style="fill:#005aaa;fill-rule:nonzero" transform="translate(0 -3.704) scale(4.16667)"/><path d="M7.6 23.499c.226-3.589 2.605-5.863 5.387-7.349-.807 2.361-2.061 5.467-5.387 7.349ZM4.412 32.17c.711-1.886 2.571-4.12 4.538-5.169-.271 3.674-3.502 6.213-5.209 9.451-1.974-4.639-2.873-10.94-.046-15.444.031 3.53 1.088 8.229.717 11.162Z" style="fill:#005aaa;fill-rule:nonzero" transform="translate(0 -3.704) scale(4.16667)"/><path d="M4.021 38.721c.628-2.016 1.156-3.843 2.773-5.42 1.077 2.977-.867 6.349-2.139 9.101C1.524 38.887-.55 35.164.379 29.574c1.187 3.134 2.032 6.267 3.642 9.147Z" style="fill:#005aaa;fill-rule:nonzero" transform="translate(0 -3.704) scale(4.16667)"/><path d="M5.756 46.212c-.043-3.684.321-5.123 1.396-7.31 1.707 3.587.695 7.651.424 11.502C2.751 47.101.55 43.548 0 37.959c2.029 3.13 4.53 5.162 5.756 8.253Z" style="fill:#005aaa;fill-rule:nonzero" transform="translate(0 -3.704) scale(4.16667)"/><path d="M12.811 56.403c-3.414-.611-7.274-1.75-8.89-5.251l-1.706-4.461c1.891 2.866 3.923 3.245 7.096 6.463-1.141-4.233-.272-5.152-.632-7.951 2.965 2.888 3.055 7.349 4.132 11.2Z" style="fill:#005aaa;fill-rule:nonzero" transform="translate(0 -3.704) scale(4.16667)"/><path d="M19.276 59.555c-2.874-.174-5.837 1.486-8.44 0-1.527-.877-2.965-2.449-4.042-3.85 1.975 1.312 6.02.742 8.445 2.317-2.314-1.924-1.22-4.645-2.869-7.43-.012-.058-.007-.051-.007-.051 3.893 1.585 3.932 7.852 6.913 9.014ZM30.329 60.816c-4.977 2.123-6.934 3.848-6.875 5.037.037.759 2.063-1.616 3.274-2.45 1.399-1.066 2.852-2.003 4.341-2.293 1.439-.274 12.051 3.956 17.17.279-5.387-.348-12.303-2.967-17.91-.573ZM52.529 25.003c.014.189.552.992.508.922-2.031-3.123-3.047-2.529-5.256-4.436.358 3.499 4.353 5.69 6.287 7.176.916-5.187-.198-9.712-2.892-13.651.727 3.896.929 4.149 1.353 9.989Z" style="fill:#005aaa;fill-rule:nonzero" transform="translate(0 -3.704) scale(4.16667)"/><path d="M51.746 23.499c-.23-3.589-2.606-5.863-5.388-7.349.807 2.361 2.059 5.467 5.388 7.349ZM54.934 32.17c-.713-1.886-2.573-4.12-4.541-5.169.272 3.674 3.504 6.213 5.209 9.451 1.975-4.639 2.873-10.94.046-15.444-.028 3.53-1.087 8.229-.714 11.162Z" style="fill:#005aaa;fill-rule:nonzero" transform="translate(0 -3.704) scale(4.16667)"/><path d="M55.324 38.721c-.63-2.016-1.158-3.843-2.776-5.42-1.077 2.977.87 6.349 2.139 9.101 3.135-3.515 5.208-7.238 4.278-12.828-1.187 3.134-2.034 6.267-3.641 9.147Z" style="fill:#005aaa;fill-rule:nonzero" transform="translate(0 -3.704) scale(4.16667)"/><path d="M53.588 46.212c.041-3.684-.319-5.123-1.397-7.31-1.705 3.587-.691 7.651-.423 11.502 4.826-3.303 7.026-6.856 7.577-12.445-2.034 3.13-4.529 5.162-5.757 8.253Z" style="fill:#005aaa;fill-rule:nonzero" transform="translate(0 -3.704) scale(4.16667)"/><path d="M46.534 56.403c3.41-.611 7.273-1.75 8.889-5.251l1.706-4.461c-1.89 2.866-3.923 3.245-7.095 6.463 1.142-4.233.27-5.152.631-7.951-2.964 2.888-3.054 7.349-4.131 11.2Z" style="fill:#005aaa;fill-rule:nonzero" transform="translate(0 -3.704) scale(4.16667)"/><path d="M40.067 59.555c2.873-.174 5.837 1.486 8.443 0 1.526-.877 2.961-2.449 4.038-3.85-1.975 1.312-6.018.742-8.445 2.317 2.318-1.924 1.221-4.645 2.872-7.43l.008-.051c-3.896 1.585-3.935 7.852-6.916 9.014Z" style="fill:#005aaa;fill-rule:nonzero" transform="translate(0 -3.704) scale(4.16667)"/><path d="M46.43 36.373a16.712 16.712 0 0 0-4.786-11.534l2.582-2.582a20.352 20.352 0 0 1 5.856 14.116H46.43ZM41.644 48.28a16.71 16.71 0 0 0 4.786-11.534h3.652a20.354 20.354 0 0 1-5.856 14.116l-2.582-2.582Zm-11.798 5.05a16.719 16.719 0 0 0 11.535-4.786l2.581 2.582c-3.646 3.58-8.625 5.807-14.116 5.856V53.33Zm-11.907-4.786a16.716 16.716 0 0 0 11.534 4.786v3.652a20.354 20.354 0 0 1-14.116-5.856l2.582-2.582ZM12.89 36.746a16.71 16.71 0 0 0 4.785 11.534l-2.581 2.582a20.359 20.359 0 0 1-5.857-14.116h3.653Zm4.785-11.907a16.711 16.711 0 0 0-4.785 11.534H9.237a20.357 20.357 0 0 1 5.857-14.116l2.581 2.582Zm11.798-5.05a16.72 16.72 0 0 0-11.535 4.786l-2.581-2.582a20.354 20.354 0 0 1 14.116-5.856v3.652Zm11.908 4.786a16.719 16.719 0 0 0-11.535-4.786v-3.652c5.491.049 10.47 2.276 14.116 5.856l-2.581 2.582Zm1.021 11.798a12.707 12.707 0 0 0-3.604-8.688l2.583-2.583a16.343 16.343 0 0 1 4.676 11.271h-3.655Zm-3.604 9.061a12.705 12.705 0 0 0 3.604-8.688h3.655a16.343 16.343 0 0 1-4.676 11.271l-2.583-2.583Zm-8.952 3.868a12.7 12.7 0 0 0 8.688-3.605l2.583 2.583a16.348 16.348 0 0 1-11.271 4.677v-3.655Zm-9.061-3.605a12.701 12.701 0 0 0 8.688 3.605v3.655a16.35 16.35 0 0 1-11.271-4.676l2.583-2.584Zm-3.868-8.951a12.7 12.7 0 0 0 3.605 8.688l-2.584 2.583a16.343 16.343 0 0 1-4.676-11.271h3.655Zm3.605-9.061a12.701 12.701 0 0 0-3.605 8.688h-3.655a16.343 16.343 0 0 1 4.676-11.271l2.584 2.583Zm8.951-3.868a12.701 12.701 0 0 0-8.688 3.605l-2.583-2.583a16.341 16.341 0 0 1 11.271-4.677v3.655Zm9.061 3.605a12.7 12.7 0 0 0-8.688-3.605v-3.655a16.344 16.344 0 0 1 11.271 4.677l-2.583 2.583Zm-.157 8.951a8.691 8.691 0 0 0-2.424-5.843l2.581-2.581a12.328 12.328 0 0 1 3.495 8.424h-3.652Zm-2.424 6.216a8.691 8.691 0 0 0 2.424-5.843h3.652a12.332 12.332 0 0 1-3.495 8.425l-2.581-2.582Zm-6.107 2.688a8.689 8.689 0 0 0 5.843-2.424l2.581 2.581a12.324 12.324 0 0 1-8.424 3.495v-3.652Zm-6.216-2.424a8.691 8.691 0 0 0 5.843 2.424v3.652a12.325 12.325 0 0 1-8.424-3.495l2.581-2.581Zm-2.687-6.107a8.686 8.686 0 0 0 2.424 5.843l-2.582 2.582a12.332 12.332 0 0 1-3.495-8.425h3.653Zm2.424-6.216a8.686 8.686 0 0 0-2.424 5.843H17.29a12.328 12.328 0 0 1 3.495-8.424l2.582 2.581Zm6.106-2.688a8.687 8.687 0 0 0-5.843 2.425l-2.581-2.582a12.33 12.33 0 0 1 8.424-3.495v3.652Zm6.216 2.425a8.685 8.685 0 0 0-5.843-2.425V24.19a12.328 12.328 0 0 1 8.424 3.495l-2.581 2.582Zm-1.337 6.106a4.687 4.687 0 0 0-1.244-2.998l2.581-2.581a8.317 8.317 0 0 1 2.315 5.579h-3.652Zm-1.244 3.371a4.685 4.685 0 0 0 1.244-2.998h3.652a8.317 8.317 0 0 1-2.315 5.579l-2.581-2.581Zm-3.262 1.507a4.676 4.676 0 0 0 2.998-1.244l2.582 2.582a8.32 8.32 0 0 1-5.58 2.315v-3.653Zm-3.37-1.244a4.671 4.671 0 0 0 2.997 1.244v3.653a8.317 8.317 0 0 1-5.579-2.315l2.582-2.582Zm-1.508-3.261a4.68 4.68 0 0 0 1.244 2.998l-2.582 2.581a8.311 8.311 0 0 1-2.314-5.579h3.652Zm1.244-3.371a4.681 4.681 0 0 0-1.244 2.998h-3.652a8.311 8.311 0 0 1 2.314-5.579l2.582 2.581Zm3.261-1.507a4.676 4.676 0 0 0-2.997 1.243l-2.582-2.581a8.317 8.317 0 0 1 5.579-2.315v3.653Zm3.371 1.243a4.68 4.68 0 0 0-2.998-1.243v-3.653a8.321 8.321 0 0 1 5.58 2.315l-2.582 2.581Zm-3.184 7.772a4.328 4.328 0 0 1-4.324-4.323 4.329 4.329 0 0 1 4.324-4.324 4.328 4.328 0 0 1 4.323 4.324 4.328 4.328 0 0 1-4.323 4.323Zm0-25.121c-11.468 0-20.798 9.329-20.798 20.798 0 11.468 9.33 20.798 20.798 20.798 11.467 0 20.797-9.33 20.797-20.798 0-11.469-9.33-20.798-20.797-20.798Z" style="fill:#005aaa;fill-rule:nonzero" transform="translate(0 -3.704) scale(4.16667)"/><path d="m44.313 15.637-9.945-2.642 1.713-3.349a.185.185 0 0 0-.03-.222.182.182 0 0 0-.221-.029l-3.35 1.713-2.642-9.946a.183.183 0 0 0-.178-.14.186.186 0 0 0-.179.14l-2.642 9.946-3.349-1.713a.182.182 0 0 0-.221.029.185.185 0 0 0-.03.222l1.713 3.349-9.946 2.642a.183.183 0 0 0 0 .356l9.946 2.642-1.713 3.35a.183.183 0 0 0 .251.25l3.349-1.712 2.642 9.945c.021.082.095.14.179.14a.183.183 0 0 0 .178-.14l2.642-9.945 3.35 1.712a.183.183 0 0 0 .251-.25l-1.713-3.35 9.945-2.642a.183.183 0 0 0 0-.356Z" style="fill:#fff;fill-rule:nonzero" transform="translate(0 -3.704) scale(4.16667)"/><path d="M29.641 30.542a.404.404 0 0 1-.393-.307l-2.428-9.712-3.117 1.781a.403.403 0 0 1-.551-.551l1.781-3.118-9.713-2.428a.403.403 0 0 1 .001-.784l9.712-2.428-1.781-3.117a.404.404 0 0 1 .551-.552l3.117 1.782 2.429-9.713a.403.403 0 0 1 .784.001l2.428 9.712 3.118-1.782a.404.404 0 0 1 .551.551l-1.781 3.118 9.712 2.428a.403.403 0 0 1-.001.784l-9.711 2.428 1.781 3.118a.404.404 0 0 1-.066.487.413.413 0 0 1-.485.064l-3.118-1.781-2.428 9.712a.404.404 0 0 1-.392.307Z" style="fill:none;stroke:#005aaa;stroke-width:.3px" transform="translate(0 -3.704) scale(4.16667)"/><path d="M29.641 30.542a.404.404 0 0 1-.393-.307l-2.428-9.712-3.117 1.781a.403.403 0 0 1-.551-.551l1.781-3.118-9.713-2.428a.403.403 0 0 1 .001-.784l9.712-2.428-1.781-3.117a.404.404 0 0 1 .551-.552l3.117 1.782 2.429-9.713a.403.403 0 0 1 .784.001l2.428 9.712 3.118-1.782a.404.404 0 0 1 .551.551l-1.781 3.118 9.712 2.428a.403.403 0 0 1-.001.784l-9.711 2.428 1.781 3.118a.404.404 0 0 1-.066.487.413.413 0 0 1-.485.064l-3.118-1.781-2.428 9.712a.404.404 0 0 1-.392.307Z" style="fill:none;stroke:#005aaa;stroke-width:.4px" transform="translate(0 -3.704) scale(4.16667)"/><path d="m15.831 15.815 9.718-2.426 4.092 2.426h-13.81ZM43.451 15.815l-9.718 2.426-4.092-2.426h13.81ZM29.641 29.625l-2.426-9.718 2.426-4.092v13.81Z" style="fill:#faa619;fill-rule:nonzero" transform="translate(0 -3.704) scale(4.16667)"/><path d="m29.641 2.005 2.425 9.718-2.425 4.092V2.005Z" style="fill:#faa619;fill-rule:nonzero" transform="translate(0 -3.704) scale(4.16667)"/><path d="m23.886 10.05 3.709 2.145 2.046 3.62-5.755-5.765ZM35.459 21.622l-3.709-2.144-2.109-3.663 5.818 5.807ZM23.887 21.623l2.145-3.709 3.609-2.099-5.754 5.808ZM35.459 10.05l-2.145 3.708-3.673 2.057 5.818-5.765Z" style="fill:#faa619;fill-rule:nonzero" transform="translate(0 -3.704) scale(4.16667)"/></svg>