<svg version="1.1" id="Layer_1" xmlns="http://www.w3.org/2000/svg" xmlns:xlink="http://www.w3.org/1999/xlink" x="0px" y="0px" viewBox="0 0 172 71.1" style="enable-background:new 0 0 172 71.1;" xml:space="preserve">
 <style type="text/css">
  .st0{fill:#202020;}
 </style>
 <g>
  <path class="st0" d="M20.8,37.2c3.7,4.8,8.1,9.4,12.5,13.9c7.7,7.7,16.4,14.6,25.2,19.8H32.7C19.5,61.3,7.7,48.3,0,35.4
		C7.7,22.7,19.5,9.8,32.7,0.2h25.8C49.7,5.6,41,12.3,33.3,20c-4.4,4.4-8.9,9.2-12.5,13.9l0,0c-0.4,0.4-0.6,1-0.6,1.5
		C20.2,36.2,20.4,36.8,20.8,37.2L20.8,37.2 M151.2,37.2c-3.7,4.8-8.1,9.4-12.5,13.9c-7.7,7.7-16.4,14.6-25.2,19.8h25.8
		c13.3-9.6,25-22.5,32.7-35.4C164.3,22.5,152.5,9.6,139.3,0h-25.8c8.9,5.6,17.5,12.3,25.2,20c4.4,4.4,8.9,9.2,12.5,13.9l0,0
		c0.4,0.4,0.6,1,0.6,1.5C151.8,36.2,151.6,36.8,151.2,37.2L151.2,37.2 M85.9,50.8c8.5,0,15.2-6.7,15.2-15.2s-6.7-15.2-15.2-15.2
		s-15.2,6.7-15.2,15.2C70.9,43.9,77.6,50.8,85.9,50.8 M85.9,0.2c19.6,0,35.4,15.8,35.4,35.4s-15.8,35.4-35.4,35.4
		S50.5,55.3,50.5,35.6C50.7,16,66.5,0.2,85.9,0.2">
  </path>
 </g>
</svg>
