<svg width="114" height="47" viewBox="0 0 114 47" fill="none" xmlns="http://www.w3.org/2000/svg">
<g id="Group 67">
<g id="Group">
<g id="Vector">
<path d="M5.73777 37.6785C5.45357 37.4851 5.11138 37.8259 5.32944 38.0916C9.26725 42.8907 15.0669 46.1031 21.6264 46.6224C21.6608 46.6254 21.6937 46.6283 21.7282 46.6298C21.8644 46.6403 22.0021 46.6478 22.1398 46.6553C22.2656 46.6628 22.3898 46.6688 22.5156 46.6733C22.6099 46.6777 22.7057 46.6807 22.8015 46.6837C23.035 46.6897 23.27 46.6957 23.5065 46.6957C23.743 46.6957 23.9766 46.6912 24.2116 46.6837C24.3074 46.6807 24.4017 46.6762 24.4975 46.6733C24.6233 46.6688 24.749 46.6613 24.8732 46.6553C25.011 46.6478 25.1472 46.6388 25.2849 46.6298C25.3193 46.6268 25.3523 46.6239 25.3867 46.6224C31.9465 46.1031 37.7465 42.8915 41.6843 38.0911C41.9023 37.8253 41.5602 37.4847 41.276 37.6781C36.4307 40.9763 30.2455 42.9548 23.508 42.9548C16.7709 42.9548 10.5834 40.9764 5.73777 37.6785Z" fill="#1D1C1C"/>
<path d="M6.3919 13.3137C9.76121 7.47923 14.5664 3.11201 19.8457 0.564781C20.1553 0.415392 20.0313 -0.0513223 19.6921 0.00463031C13.5661 1.01518 7.88485 4.43176 4.15546 9.85276C4.136 9.8812 4.11654 9.90815 4.09708 9.93659C4.01924 10.0504 3.94439 10.1641 3.86954 10.2794C3.80068 10.3842 3.73332 10.4905 3.66596 10.5967C3.61506 10.6776 3.56416 10.7569 3.51327 10.8378C3.39052 11.0368 3.26927 11.2374 3.15101 11.4425C3.03275 11.6461 2.92048 11.8527 2.8082 12.0578C2.7633 12.1416 2.71839 12.2254 2.67498 12.3108C2.6166 12.4215 2.55971 12.5338 2.50283 12.6461C2.44145 12.7688 2.37858 12.8916 2.3202 13.0158C2.30523 13.0458 2.29176 13.0772 2.27679 13.1071C-0.553397 19.0474 -0.671912 25.6766 1.5152 31.4864C1.63631 31.8081 2.10243 31.6822 2.07702 31.3394C1.64377 25.4943 3.02255 19.1496 6.3919 13.3137Z" fill="#1D1C1C"/>
<path d="M44.7333 13.1071C44.7183 13.0772 44.7048 13.0458 44.6899 13.0158C44.63 12.8931 44.5686 12.7688 44.5072 12.6461C44.4504 12.5338 44.3935 12.423 44.3351 12.3108C44.2917 12.2269 44.2468 12.1416 44.2019 12.0578C44.0911 11.8512 43.9773 11.6461 43.8591 11.4425C43.7408 11.2389 43.6196 11.0368 43.4968 10.8378C43.4474 10.7569 43.395 10.6761 43.3441 10.5967C43.2767 10.4905 43.2094 10.3857 43.1405 10.2794C43.0657 10.1641 42.9893 10.0489 42.913 9.93659C42.8935 9.90815 42.8741 9.8812 42.8546 9.85276C39.1253 4.4319 33.443 1.01535 27.3181 0.00470656C26.9789 -0.051261 26.8549 0.41544 27.1645 0.564832C32.4437 3.11207 37.2487 7.47927 40.6167 13.3137C43.986 19.1496 45.3648 25.4943 44.9316 31.3394C44.9061 31.6822 45.3723 31.8081 45.4934 31.4864C47.6808 25.6766 47.5635 19.0474 44.7333 13.1071Z" fill="#1D1C1C"/>
</g>
</g>
<g id="orb.">
<path d="M63.1945 24.2299C63.1945 23.1226 63.3884 22.0899 63.7764 21.1318C64.186 20.1736 64.7356 19.3432 65.4253 18.6405C66.1366 17.9378 66.9664 17.3949 67.9148 17.0116C68.8848 16.607 69.9301 16.4048 71.051 16.4048C72.1718 16.4048 73.2064 16.607 74.1548 17.0116C75.1247 17.3949 75.9545 17.9378 76.6443 18.6405C77.3556 19.3432 77.9052 20.1736 78.2932 21.1318C78.7027 22.0899 78.9075 23.1226 78.9075 24.2299C78.9075 25.3584 78.7027 26.4017 78.2932 27.3599C77.9052 28.2968 77.3556 29.1165 76.6443 29.8192C75.9545 30.5219 75.1247 31.0755 74.1548 31.48C73.2064 31.8633 72.1718 32.0549 71.051 32.0549C69.9301 32.0549 68.8848 31.8633 67.9148 31.48C66.9664 31.0755 66.1366 30.5219 65.4253 29.8192C64.7356 29.1165 64.186 28.2968 63.7764 27.3599C63.3884 26.4017 63.1945 25.3584 63.1945 24.2299ZM66.2659 24.2299C66.2659 24.9112 66.3845 25.5606 66.6216 26.1781C66.8587 26.7743 67.182 27.296 67.5915 27.7432C68.0226 28.1903 68.5291 28.5416 69.1111 28.7972C69.693 29.0527 70.3397 29.1804 71.051 29.1804C71.7622 29.1804 72.4089 29.0527 72.9908 28.7972C73.5728 28.5416 74.0685 28.1903 74.4781 27.7432C74.9092 27.296 75.2432 26.7743 75.4803 26.1781C75.7174 25.5606 75.836 24.9112 75.836 24.2299C75.836 23.5485 75.7174 22.9097 75.4803 22.3135C75.2432 21.696 74.9092 21.1637 74.4781 20.7165C74.0685 20.2694 73.5728 19.9181 72.9908 19.6625C72.4089 19.407 71.7622 19.2793 71.051 19.2793C70.3397 19.2793 69.693 19.407 69.1111 19.6625C68.5291 19.9181 68.0226 20.2694 67.5915 20.7165C67.182 21.1637 66.8587 21.696 66.6216 22.3135C66.3845 22.9097 66.2659 23.5485 66.2659 24.2299Z" fill="#1D1C1C"/>
<path d="M89.55 19.407C89.2267 19.3219 88.8279 19.2793 88.3538 19.2793C87.5562 19.2793 86.7803 19.5241 86.0259 20.0139C85.2715 20.4823 84.6788 21.0785 84.2477 21.8025V31.7356H81.1762V16.7241H84.1507V18.4489C84.5171 17.9378 85.0883 17.4694 85.8642 17.0435C86.6402 16.6177 87.5886 16.4048 88.7094 16.4048C88.8818 16.4048 89.0758 16.4154 89.2914 16.4367C89.5285 16.4367 89.7332 16.458 89.9057 16.5006L89.55 19.407Z" fill="#1D1C1C"/>
<path d="M94.6508 31.7356H91.6763V9.05875H94.7478V18.0337C95.4375 17.48 96.1811 17.0755 96.9786 16.82C97.7761 16.5432 98.5844 16.4048 99.4035 16.4048C100.115 16.4048 100.783 16.4899 101.408 16.6603C102.033 16.8306 102.604 17.0648 103.122 17.3629C104.285 18.0443 105.223 18.9812 105.934 20.1736C106.667 21.366 107.034 22.7181 107.034 24.2299C107.034 25.7416 106.678 27.0937 105.967 28.2861C105.255 29.4572 104.318 30.3835 103.154 31.0648C102.637 31.3629 102.044 31.5972 101.376 31.7675C100.708 31.9591 100.029 32.0549 99.3388 32.0549C97.4851 32.0549 95.9225 31.4907 94.6508 30.3622V31.7356ZM94.7478 27.0405C95.2651 27.7219 95.8901 28.2542 96.623 28.6375C97.3774 28.9994 98.1426 29.1804 98.9185 29.1804C99.6513 29.1804 100.32 29.0527 100.923 28.7972C101.548 28.5203 102.087 28.1584 102.54 27.7112C102.992 27.2641 103.337 26.7424 103.574 26.1462C103.833 25.55 103.962 24.9112 103.962 24.2299C103.962 23.5698 103.844 22.9416 103.607 22.3454C103.369 21.7492 103.035 21.2276 102.604 20.7804C102.195 20.312 101.688 19.95 101.085 19.6945C100.481 19.4177 99.813 19.2793 99.0802 19.2793C98.1533 19.2793 97.3127 19.4816 96.5583 19.8861C95.8255 20.2907 95.222 20.8017 94.7478 21.4192V27.0405Z" fill="#1D1C1C"/>
<path d="M109.474 29.8192C109.474 29.2017 109.689 28.68 110.12 28.2542C110.573 27.807 111.112 27.5835 111.737 27.5835C112.362 27.5835 112.89 27.807 113.321 28.2542C113.774 28.68 114 29.2017 114 29.8192C114 30.4367 113.774 30.969 113.321 31.4162C112.89 31.842 112.362 32.0549 111.737 32.0549C111.112 32.0549 110.573 31.842 110.12 31.4162C109.689 30.969 109.474 30.4367 109.474 29.8192Z" fill="#1D1C1C"/>
</g>
</g>
</svg>
