<?xml version="1.0" encoding="utf-8"?>
<!-- Generator: Adobe Illustrator 19.0.0, SVG Export Plug-In . SVG Version: 6.00 Build 0)  -->
<svg version="1.1" id="layer" xmlns="http://www.w3.org/2000/svg" xmlns:xlink="http://www.w3.org/1999/xlink" x="0px" y="0px"
	 viewBox="-153 -46 652 652" style="enable-background:new -153 -46 652 652;" xml:space="preserve">
<style type="text/css">
	.st0{fill:#D4021D;}
	.st1{fill:#90B9D7;}
	.st2{fill:#008EBD;}
	.st3{fill:#FFFFFF;}
</style>
<g>
	<g>
		<path class="st0" d="M-90.9,224.9c-8.1,3.7-15,8.1-20.4,13c-12.7,11.2-16.4,24.8-14,42.2c2.2,14,8.2,26.4,17.1,36.7
			c0,0,0.2,0.1,0.1,0.1l14.8-78.2C-92.4,234.5-90.9,224.9-90.9,224.9 M-31.7,237.8c0-7.6-3.1-15.7-12.4-15.7
			c-10.6,0-20.4,12-23.9,30.8l-3.5,20.6c3.1,3,7.5,4.7,12.9,4.7C-43.4,278.2-31.7,256.6-31.7,237.8 M-2.2,229.5
			c-0.4-0.4-0.2-0.2-0.2-0.2c0.3,2.1,0.4,4.2,0.4,6.4c0,33.4-22.1,63.9-55.5,63.9c-7.9,0-14.5-1.9-17.8-3.9h-0.4l-7.8,40.3l0.3,0.2
			c8.6,4.5,18.2,7.9,28.5,9.7c18,2.6,30.6-1.5,40.8-13.5C-3.8,321,3.6,302.1,7.2,279.4C9.9,257.3,7.5,240.8-2.2,229.5"/>
		<path class="st1" d="M466.1,247.3c3.5,0,6,2.8,6,6.4s-2.6,6.4-6,6.4c-3.5,0-6.1-2.8-6.1-6.4S462.6,247.3,466.1,247.3
			C466,247.3,466.1,247.3,466.1,247.3z M466.1,245.6c-4.5,0-8,3.5-8,8s3.6,8,8,8c4.5,0,8-3.6,8-8S470.6,245.6,466.1,245.6
			L466.1,245.6z M464.8,250.9c0.2,0,0.5,0,1,0c1.2,0,1.7,0.4,1.7,1.2c0,0.8-0.8,1.2-1.9,1.2h-0.8V250.9z M464.8,254.6h0.9
			c1,0,1.5,0.4,1.7,1.2c0.2,1,0.4,1.6,0.6,1.9h1.8c-0.2-0.3-0.3-0.7-0.6-1.9c-0.3-1.1-0.6-1.7-1.4-2v-0.1c0.9-0.3,1.7-0.9,1.7-1.9
			c0-0.7-0.4-1.4-0.8-1.7c-0.6-0.4-1.2-0.7-2.6-0.7c-1.3,0-2.2,0.1-2.9,0.3v8h1.7V254.6z M435.9,304.3c1.9,1.5,5.2,2.5,8.4,2.5
			c6.9,0,12.7-4.1,12.7-12.6c0-5.9-3.8-9.7-8.8-12.9c-4.2-2.9-5.2-4.5-5.2-7.4c0-2.7,1.9-5.3,5.5-5.3c2.2,0,4,0.8,5.6,1.9l1.9-5.1
			c-1.8-1.1-4.3-2.2-7.6-2.2c-6.6,0-11.6,4.9-11.6,11.7c0,4.9,3,8.5,8.5,12.1c4.3,2.9,5.4,5.1,5.4,8.3c0,3.8-2.4,6.1-6.2,6.1
			c-2.7,0-5.3-1.2-6.8-2.2L435.9,304.3z M417.8,256.6v7.2h-5.2v5.2h5.2v24.6c0,5.9,0.9,8.8,2.6,10.7c1.7,1.9,4,2.6,6.7,2.6
			c2.2,0,3.7-0.3,5-0.7l-0.3-5.2c-0.8,0.2-1.7,0.3-2.7,0.3c-2.5,0-4.5-1.5-4.5-7V269h8.2v-5.2h-8.2v-9.9L417.8,256.6z M389.4,280.6
			c0.3-5.8,2.6-12.3,6.9-12.3c3.3,0,6.5,3.7,6.3,12.3H389.4z M409,285.6c0.1-1.1,0.1-2.2,0.1-3.8c0-9.7-3.4-18.7-12.1-18.7
			c-8.5,0-14.3,8.6-14.3,22.4c0,13,5.2,21.3,15.4,21.3c3.3,0,6.9-0.7,9.3-2l-1.1-5c-1.7,1-4.1,1.7-7,1.7c-4.9,0-10-2.8-10.1-15.8
			C389.3,285.6,409,285.6,409,285.6z M361.9,245.6h-6.7v60.7h6.7v-16.1l2.4-3.9l9.2,20h7.5l-12.2-24.6l11.2-17.9h-7.3l-8.4,15
			c-0.8,1.4-1.5,3.1-2.3,4.7h-0.2L361.9,245.6L361.9,245.6z M331.6,306.2h6.7v-23.5c0-1.4,0.1-2.7,0.3-3.9c0.7-4.9,3.8-8.9,8.2-8.9
			c0.5,0,1,0,1.4,0.1v-6.9c-0.4,0-0.9-0.1-1.4-0.1c-3.9,0-7.5,3.4-9,7.4h-0.2l-0.4-6.7h-6c0.1,3.2,0.4,7.4,0.4,10.9
			C331.6,274.7,331.6,306.2,331.6,306.2z M315.6,292.9c0,0.7,0,1.6-0.2,2.4c-0.8,4.2-3.3,6.4-6.3,6.4c-2.4,0-5.2-2-5.2-7.5
			c0-9.2,8.2-9.8,11.6-9.8V292.9z M322.2,278.3c0-9.6-3.7-15.2-12.2-15.2c-4.2,0-8.2,1.5-9.9,2.8l1.5,4.8c2-1.3,4.4-2.2,7-2.2
			c5.3,0,6.7,3.9,6.7,9.7v1.3c-9.6,0.1-18.1,4.8-18.1,15.4c0,7.3,4.4,12.1,10.1,12.1c3.6,0,6.6-1.9,8.4-5.2h0.3l0.4,4.5h6.1
			c-0.4-2.7-0.4-6.4-0.4-9.7V278.3z M245.4,306.2h6.7v-26.9c0-1.3,0.1-2.6,0.3-3.7c0.8-4.5,3.6-6.8,6.3-6.8c5,0,5.9,4.9,5.9,9.7
			v27.8h6.7V279c0-1.4,0.1-2.7,0.3-3.8c1-3.9,3.4-6.3,6.2-6.3c5.2,0,6,5.3,6,10.9v26.6h6.7v-28.1c0-10.8-4.5-15-10.2-15
			c-2.2,0-4.2,0.5-5.9,1.7c-1.6,1.1-3.1,2.7-4.2,4.8h-0.2c-1.6-4.5-4.9-6.5-8.9-6.5c-4.5,0-7.7,2.6-9.6,6h-0.1l-0.4-5.2h-5.9
			c0.1,3.4,0.4,6,0.4,10.9V306.2z"/>
		<path class="st2" d="M205.1,263.4l11.7,39.7c0.2,0.5,0.4,1.1,0.4,1.6c0,0.6-0.3,1.1-0.6,1.9c-0.8,1.9-2,3.6-3.6,5.1
			c-1.8,1.6-3.7,2.9-5.7,3.6l3.5,9.9c1.8-0.5,6.1-2.6,9.7-6.7c4.6-5.5,7.5-13.9,9.6-21.9l8.8-33h-11.2l-3.6,22.5
			c-0.4,2.4-0.7,4.8-1.1,7h-0.2c-0.4-2.3-0.7-4.6-1.1-7.2l-4.2-22.3C217.5,263.4,205.1,263.4,205.1,263.4z M179.9,255.8v7.6h-5.1
			v8.2h5.1v20.2c0,6.7,1.3,10,3.7,12.3c2,1.9,4.9,2.7,8.2,2.7c3.1,0,5.4-0.4,7-0.8l-0.1-9c-1,0.2-1.9,0.3-3,0.3
			c-2.3,0-4.4-1.2-4.4-6.2v-19.5h8.4v-8.2h-8.4v-11.2L179.9,255.8z M137.8,306.2h11.5v-26.1c0-1.7,0.3-3.1,0.6-3.9
			c0.8-2.6,2.4-3.8,4.3-3.8c3.4,0,4.2,3.5,4.2,7.1v26.8h11.5v-27.5c0-9.6-3.3-16.1-11.4-16.1c-4.5,0-8.2,2.2-10.5,5.6h-0.2l-0.5-4.9
			h-9.9c0.1,4,0.4,8.2,0.4,12.9L137.8,306.2L137.8,306.2z M110.7,280.8c0.1-4.3,1.6-9.8,5.3-9.8c3.4,0,4.8,4.3,4.8,9.8
			C120.8,280.8,110.7,280.8,110.7,280.8z M130.9,288.9c0.3-1.2,0.4-2.9,0.4-6c0-13-5.3-20.2-14.6-20.2c-9.7,0-17.2,8.6-17.2,23
			c0,13.4,6.4,21.1,18,21.1c4.4,0,8.9-0.8,11.8-1.9l-1.6-8.2c-2,0.7-4.9,1.4-8.2,1.4c-5.1,0-9-2.5-9.1-9.1
			C110.5,288.9,130.9,288.9,130.9,288.9z M81.3,306.2h11.5v-60.7H81.3V306.2z M53.5,279c0-1.1,0.1-2.2,0.5-3.1
			c0.4-2,2.1-3.7,3.8-3.7c3.4,0,5.3,4.4,5.3,12.5c0,6.7-1.4,12.7-5.4,12.7c-1.3,0-2.8-0.7-3.7-3.4c-0.4-0.9-0.6-2.2-0.6-3.7
			C53.5,290.5,53.5,279,53.5,279z M42,323.1h11.5v-20.3h0.2c1.2,2,3.6,4.2,7.1,4.2c7.2,0,13.9-6.9,13.9-22.2
			c0-11.8-3.8-22.1-13.3-22.1c-3.9,0-7.2,2.1-9,5.6h-0.2l-0.6-4.9h-10c0.2,4,0.4,8.4,0.4,13.6L42,323.1L42,323.1z"/>
		<path class="st3" d="M-31.7,237.8c0,18.8-11.8,40.4-26.9,40.4c-5.5,0-9.8-1.8-12.9-4.7l3.5-20.6c3.5-18.8,13.3-30.7,23.9-30.7
			C-34.8,222.1-31.7,230.2-31.7,237.8 M-2.1,235.7c0-2.2-0.1-4.3-0.4-6.4c-0.3-0.3-0.5-0.6-0.8-0.9c-10.1-11.7-27.4-16.9-51.2-14
			c-13.5,2.1-25.9,5.7-36.5,10.5c-0.7,4.9-1.5,9.6-2.3,13.7l-14.7,78.2c6.7,7.7,15,14.2,24.4,19.2l7.8-40.3h0.4
			c3.4,1.9,10,3.9,17.8,3.9C-24.2,299.6-2.1,269-2.1,235.7"/>
	</g>
</g>
</svg>
