<svg xmlns="http://www.w3.org/2000/svg" viewBox="0 0 500 500" width="500" height="500" preserveAspectRatio="xMidYMid meet" style="width: 100%; height: 100%; transform: translate3d(0px, 0px, 0px); content-visibility: visible;"><defs><clipPath id="__lottie_element_131"><rect width="500" height="500" x="0" y="0"></rect></clipPath></defs><g clip-path="url(#__lottie_element_131)"><g style="display: block;" transform="matrix(3.799999952316284,0,0,3.799999952316284,252.85958862304688,89.10140991210938)" opacity="1"><g opacity="1" transform="matrix(1,0,0,1,0,0)"><path fill="rgb(255,255,255)" fill-opacity="1" d=" M42.90999984741211,46.83599853515625 C43.0099983215332,49.05400085449219 45.439998626708984,49.9900016784668 47.79800033569336,49.9900016784668 C49.946998596191406,49.9900016784668 52.44300079345703,49.505001068115234 52.44300079345703,46.9739990234375 C52.44300079345703,44.30500030517578 49.46200180053711,44.09700012207031 47.143001556396484,43.92399978637695 C42.74300003051758,43.542999267578125 38.30400085449219,42.2239990234375 38.30400085449219,37.20000076293945 C38.30400085449219,31.82699966430664 42.70399856567383,29.573999404907227 47.52399826049805,29.573999404907227 C52.064998626708984,29.573999404907227 56.77899932861328,31.479999542236328 56.77899932861328,36.922000885009766 C56.77899932861328,36.922000885009766 51.92599868774414,36.922000885009766 51.92599868774414,36.922000885009766 C51.64899826049805,34.94599914550781 49.604000091552734,34.08000183105469 47.5260009765625,34.08000183105469 C45.4109992980957,34.08000183105469 43.4010009765625,35.2239990234375 43.4010009765625,37.09600067138672 C43.4010009765625,39.244998931884766 45.51499938964844,39.55699920654297 48.04600143432617,39.83399963378906 C53.17599868774414,40.28499984741211 57.577999114990234,41.290000915527344 57.577999114990234,46.9739990234375 C57.577999114990234,52.69300079345703 52.62099838256836,54.42599868774414 47.8380012512207,54.529998779296875 C42.98500061035156,54.529998779296875 37.95899963378906,52.13800048828125 37.95899963378906,46.83000183105469 C37.95899963378906,46.83000183105469 42.90999984741211,46.83599853515625 42.90999984741211,46.83599853515625z"></path></g></g><g style="display: block;" transform="matrix(3.799999952316284,0,0,3.799999952316284,252.8583984375,89.10159301757812)" opacity="1"><g opacity="1" transform="matrix(1,0,0,1,0,0)"><path fill="rgb(255,255,255)" fill-opacity="1" d=" M39.12799835205078,53.58000183105469 C37.92499923706055,52.58599853515625 37.02199935913086,51.27799987792969 36.516998291015625,49.801998138427734 C36.516998291015625,49.801998138427734 29.945999145507812,49.801998138427734 29.945999145507812,49.801998138427734 C29.945999145507812,49.801998138427734 29.945999145507812,29.679000854492188 29.945999145507812,29.679000854492188 C29.945999145507812,29.679000854492188 24.746000289916992,29.679000854492188 24.746000289916992,29.679000854492188 C24.746000289916992,29.679000854492188 24.746000289916992,54.446998596191406 24.746000289916992,54.446998596191406 C24.746000289916992,54.446998596191406 39.12799835205078,54.446998596191406 39.12799835205078,54.446998596191406 C39.12799835205078,54.446998596191406 39.12799835205078,53.58000183105469 39.12799835205078,53.58000183105469z"></path></g></g><g style="display: block;" transform="matrix(3.799999952316284,0,0,3.799999952316284,252.85879516601562,89.10200500488281)" opacity="1"><g opacity="1" transform="matrix(1,0,0,1,0,0)"><path fill="rgb(255,255,255)" fill-opacity="1" d=" M21.83300018310547,54.426998138427734 C21.83300018310547,54.426998138427734 17.118999481201172,54.426998138427734 17.118999481201172,54.426998138427734 C17.118999481201172,54.426998138427734 15.97599983215332,52.55099868774414 15.97599983215332,52.55099868774414 C13.864999771118164,53.862998962402344 11.425000190734863,54.54899978637695 8.9399995803833,54.527000427246094 C2.2880001068115234,54.617000579833984 -3.178999900817871,49.29800033569336 -3.2690000534057617,42.645999908447266 C-3.2720000743865967,42.448001861572266 -3.2690000534057617,42.249000549316406 -3.26200008392334,42.05099868774414 C-3.26200008392334,34.56399917602539 1.7990000247955322,29.57200050354004 9.147000312805176,29.57200050354004 C15.524999618530273,29.57200050354004 21.52199935913086,33.904998779296875 21.52199935913086,42.05099868774414 C21.597999572753906,44.7140007019043 20.833999633789062,47.33399963378906 19.33799934387207,49.53799819946289 C19.33799934387207,49.53799819946289 21.83799934387207,53.66299819946289 21.83799934387207,53.66299819946289 C21.83799934387207,53.66299819946289 21.83300018310547,54.426998138427734 21.83300018310547,54.426998138427734z M9.147000312805176,49.678001403808594 C12.925000190734863,49.678001403808594 16.32200050354004,46.939998626708984 16.32200050354004,42.051998138427734 C16.32200050354004,37.130001068115234 12.92199993133545,34.529998779296875 9.112000465393066,34.529998779296875 C5.36899995803833,34.529998779296875 1.9709999561309814,37.19900131225586 1.9709999561309814,42.051998138427734 C1.9709999561309814,46.93899917602539 5.370999813079834,49.678001403808594 9.145999908447266,49.678001403808594"></path></g></g><g transform="matrix(0.949999988079071,0,0,0.949999988079071,250,249.99949645996094)" opacity="1" style="display: block;"><g opacity="1" transform="matrix(1,0,0,1,0,0)"><path fill="rgb(255,255,255)" fill-opacity="1" d="M0 0"></path><path stroke-linecap="square" stroke-linejoin="miter" fill-opacity="0" stroke-miterlimit="4" stroke="rgb(70,151,247)" stroke-opacity="1" stroke-width="40" d=" M-125.4729995727539,69 C-155.2519989013672,69 -207,69 -207,69 C-207,69 -207,-71 -207,-71 C-207,-71 -68,-71 -68,-71 C-68,-71 -68,-20.277000427246094 -68,8.737000465393066"></path></g></g><g style="display: block;" transform="matrix(3.799999952316284,0,0,3.799999952316284,252.85855102539062,89.10084533691406)" opacity="1"><g opacity="1" transform="matrix(1,0,0,1,0,0)"><path fill="rgb(255,255,255)" fill-opacity="1" d=" M-22.22100067138672,54.53099822998047 C-22.22100067138672,54.53099822998047 -12.741000175476074,54.53099822998047 -12.741000175476074,54.53099822998047 C-12.741000175476074,54.53099822998047 -12.741000175476074,64.52300262451172 -12.741000175476074,64.52300262451172 C-12.741000175476074,64.52300262451172 -22.22100067138672,64.52300262451172 -22.22100067138672,64.52300262451172 C-22.22100067138672,64.52300262451172 -22.22100067138672,54.53099822998047 -22.22100067138672,54.53099822998047z"></path></g></g></g></svg>