<svg width="300" height="301" viewBox="0 0 300 301" fill="none" xmlns="http://www.w3.org/2000/svg">
<rect width="300" height="300.507" fill="white"/>
<path fill-rule="evenodd" clip-rule="evenodd" d="M84.7794 212.748C84.7794 212.748 94.1988 216.534 94.1988 220.32C94.1988 220.32 93.6588 223.145 90.4188 223.145C87.2394 223.145 82.8594 218.096 82.8594 215.573C82.8594 213.049 84.7794 212.748 84.7794 212.748Z" fill="#17191C"/>
<path d="M74.8194 166.112C74.7594 165.932 74.6394 165.752 74.4594 165.692C74.2794 165.631 74.0994 165.571 73.9194 165.692C72.06 166.473 69 168.697 69 173.324C69 190.271 114.656 192.194 139.375 222.544C142.075 225.849 146.155 227.772 150.414 227.652C156.053 227.532 161.633 227.231 166.553 226.45C167.153 226.33 167.633 225.969 167.873 225.428C168.113 224.887 168.053 224.226 167.693 223.745C137.635 180.776 80.2794 190.752 74.8194 166.112ZM140.275 112.987C137.335 110.042 129.056 112.266 124.556 116.112C119.996 120.018 121.796 122.603 121.796 122.603C125.516 117.314 131.335 115.21 134.635 114.79C138.715 114.249 140.275 112.987 140.275 112.987Z" fill="#17191C"/>
<path d="M247.187 109.741C245.447 106.136 242.688 103.251 237.468 101.989C232.369 100.727 227.869 101.388 224.809 104.093L214.61 100.607C213.47 98.083 212.51 95.7992 211.79 93.8158C211.19 92.133 210.05 90.7513 208.49 89.8497C201.831 86.0033 183.712 76.9887 176.693 86.2437C176.693 86.2437 176.333 86.6644 175.853 87.3856L173.693 86.6644C172.553 82.6983 168.833 79.6932 163.673 78.4311C160.494 77.6498 157.374 77.8301 154.734 78.7917C152.815 79.5129 152.755 81.6766 154.674 82.3978L162.833 85.2821C164.693 85.9432 165.653 87.9866 164.993 89.7897C164.333 91.6528 162.293 92.6138 160.494 91.9533C160.494 91.9533 155.274 90.3907 151.675 89.3088C149.755 88.7078 148.015 90.5109 148.555 92.4335C149.755 96.3401 153.595 99.826 158.694 101.088C163.073 102.169 167.333 101.388 170.273 99.3452L172.193 100.006C172.313 104.453 175.733 109.742 178.972 111.665C183.892 114.61 188.392 111.965 193.492 109.501C193.492 109.501 206.27 119.778 200.391 148.805C184.012 150.547 178.073 156.437 172.133 162.387C168.413 160.884 157.134 160.163 151.135 161.545C152.815 159.862 155.634 157.819 159.114 156.497C160.674 155.896 161.694 154.394 161.694 152.711C161.694 152.711 169.193 150.307 169.193 147.543C169.193 144.778 159.894 145.079 156.114 125.186C155.514 122.903 154.794 120.92 151.255 119.297C151.255 119.297 150.295 117.193 151.675 114.97C153.115 112.686 154.134 111.665 153.775 109.862C153.415 108.059 150.775 106.557 150.775 106.557V103.552C150.775 103.552 143.215 98.0229 143.215 90.0902C143.215 82.1574 153.475 72.662 156.294 69.8973C156.474 69.717 156.534 69.5367 156.474 69.2963C156.414 69.0559 156.294 68.8756 156.114 68.7554C152.515 66.5322 145.315 62.5054 134.276 62.5054C90.5388 62.4453 80.34 101.628 70.9806 120.619C70.8006 121.04 70.7406 121.521 70.9806 121.941C80.28 140.572 95.3388 139.069 96.1788 154.694C96.8388 167.194 93.8988 167.435 91.0188 167.194C89.0988 167.014 86.3394 165.332 84.5994 164.19C84.3594 164.009 84.0594 164.009 83.8194 164.19C83.5794 164.37 83.5194 164.671 83.5794 164.911C84.7194 168.336 88.0794 175.307 97.6782 175.307C102.598 175.307 104.158 170.86 104.158 166.773V152.651C104.158 151.269 103.678 149.946 102.658 149.045C99.3582 146.161 92.2788 139.31 92.2788 133.239C92.2788 130.656 94.0188 129.273 95.9988 129.273C99.7782 129.273 103.438 134.982 106.318 142.134C106.978 143.817 107.938 145.019 108.778 145.56C108.898 145.62 109.078 145.62 109.198 145.56C109.318 145.439 109.378 145.319 109.318 145.139C108.118 140.992 107.758 136.605 107.638 134.441C107.578 133.6 107.218 132.819 106.558 132.278C103.738 129.874 96.1188 122.302 96.1188 111.064C96.1188 95.8593 120.297 97.1214 125.156 97.5421C126.596 102.59 129.656 104.814 131.636 105.715C124.316 108.419 107.818 113.828 107.818 123.204C107.818 133.239 124.376 132.519 124.376 132.519C124.376 132.519 121.736 152.531 140.395 158.6C140.395 158.6 137.516 161.545 127.496 161.545C118.137 161.545 113.577 157.398 111.358 152.41C111.238 152.23 111.058 152.05 110.818 152.05C110.578 152.05 110.398 152.17 110.278 152.41C109.738 153.673 109.378 156.017 111.118 158.901C113.877 163.408 117.417 165.992 117.417 171.642C117.417 175.848 113.637 178.493 112.078 179.394C111.958 179.454 111.898 179.574 111.958 179.695C111.958 179.815 112.078 179.875 112.198 179.935C115.857 180.837 132.536 185.043 143.815 190.392C143.875 190.452 143.995 190.452 144.115 190.392C145.375 189.611 155.094 183.24 155.634 174.826C155.634 174.826 156.354 169.358 148.195 168.336C148.195 168.336 151.735 166.954 158.154 166.954C164.513 166.954 171.473 172.123 158.934 197.964C158.874 198.084 158.934 198.264 159.054 198.324C160.974 199.526 175.253 208.661 184.372 217.495C184.552 217.676 184.852 217.796 185.152 217.796C185.452 217.796 185.692 217.616 185.872 217.375C187.072 215.813 189.352 211.606 191.032 201.329C191.212 200.368 191.872 199.586 192.772 199.346C198.231 197.784 216.89 191.714 225.049 180.476C234.649 167.194 238.008 165.812 238.008 165.812C238.008 165.812 244.307 162.266 241.668 152.951C240.288 148.084 232.969 135.283 225.709 122.182C227.389 123.384 229.369 124.285 231.589 124.886C235.968 125.968 240.288 125.307 243.348 123.384C244.007 122.963 244.427 122.182 244.307 121.401C244.247 120.619 243.707 119.958 242.928 119.658L234.829 116.833C232.849 116.172 231.829 114.009 232.549 112.025V111.965C233.209 109.982 235.369 108.96 237.348 109.681L244.607 112.206C245.327 112.446 246.107 112.266 246.707 111.725C247.247 111.244 247.547 110.403 247.187 109.741ZM161.694 99.7058C154.734 99.7058 151.675 93.7557 151.675 93.7557C151.675 93.7557 159.654 101.328 170.753 95.1381C170.753 95.1982 168.653 99.7058 161.694 99.7058ZM153.475 129.574C153.475 129.574 156.234 141.593 161.754 145.86C161.754 145.86 161.514 147.062 159.834 147.062C158.094 147.062 154.794 144.297 153.535 137.807C152.155 131.257 153.475 129.574 153.475 129.574ZM131.396 92.6138C131.096 92.5537 130.856 92.3133 130.796 92.0128C129.596 83.1791 133.496 72.4817 133.496 72.4817C133.496 72.4817 124.136 80.0538 124.496 92.133C116.517 91.8932 104.818 92.7941 97.9182 98.6841C88.2594 106.977 86.6994 122.542 86.3994 126.629C86.3994 126.869 86.2794 127.049 86.0394 127.17C85.8594 127.29 85.6194 127.29 85.3794 127.17C83.0994 125.787 77.7 121.22 81.5994 110.463C86.3994 97.0613 101.278 69.1761 130.976 67.3135C130.976 67.3135 140.035 66.9529 146.215 70.1978C146.395 70.318 146.575 70.4983 146.575 70.7387C146.575 70.9791 146.515 71.2195 146.335 71.3397C143.815 73.3832 135.896 80.4745 133.076 92.1931C133.016 92.5537 132.656 92.734 132.356 92.734C132.056 92.6739 131.756 92.6138 131.396 92.6138ZM128.876 127.59C117.777 129.574 113.817 126.148 113.817 123.264C113.817 114.49 139.075 107.639 146.215 107.518C147.655 109.681 145.135 109.321 144.115 112.566C143.095 115.812 140.575 116.893 136.916 117.314C133.256 117.734 129.356 119.658 126.956 121.881C124.676 123.985 126.956 124.886 131.516 123.564C136.016 122.242 136.556 124.225 138.355 123.504C140.215 122.843 138.535 120.619 139.315 120.199C140.515 119.598 142.975 121.28 142.975 121.28L149.335 125.367C149.335 125.367 142.135 129.033 141.655 129.333C141.175 129.634 140.275 130.115 140.275 131.076C140.275 132.639 144.235 132.038 145.615 132.038C146.995 132.038 147.175 134.261 147.175 134.261C145.075 136.665 139.675 136.725 139.675 136.725C140.875 139.31 147.715 138.889 149.095 138.949C150.475 139.009 150.595 140.932 151.315 144.117C152.035 147.302 156.474 148.625 156.474 148.625C157.914 153.312 152.215 154.694 148.495 154.694C126.596 154.754 128.876 127.59 128.876 127.59ZM205.97 103.912L221.629 108.66C221.629 108.66 224.509 114.009 218.69 112.446C212.87 110.883 207.23 109.08 207.23 109.08C207.23 109.08 204.23 107.578 205.97 103.912ZM191.332 104.573C187.792 104.213 190.312 98.5037 187.792 98.1431C186.832 98.0229 186.592 104.573 185.452 103.612C183.172 101.628 184.852 97.5421 185.092 95.6189C185.332 93.6956 186.232 91.3523 184.192 92.7941C182.152 94.2365 181.072 97.2416 180.352 99.826C179.632 102.41 181.072 103.612 181.972 106.557C182.932 109.501 181.132 108.479 181.132 108.479C171.593 102.77 178.492 90.6912 178.492 90.6912C182.632 83.5998 188.812 85.7028 188.812 85.7028C190.012 86.1235 190.312 86.8447 190.312 88.3472C190.312 89.8497 190.732 90.3306 192.472 90.7513C194.272 91.172 195.111 93.335 195.111 96.881C195.171 100.486 192.892 104.754 191.332 104.573ZM199.191 104.573C199.191 104.573 196.791 104.093 197.571 100.486C197.931 99.2851 198.231 99.2851 198.231 97.4219C198.231 95.5588 198.711 93.3951 200.211 92.734C200.211 92.734 202.731 92.734 202.731 99.3452C202.731 102.29 199.191 104.573 199.191 104.573ZM199.191 163.529C199.191 163.529 192.952 175.307 184.492 175.307C181.012 175.307 178.552 172.844 178.552 169.418C178.552 165.992 182.752 153.733 200.931 153.733C205.25 153.733 208.67 154.514 208.67 157.158C208.67 159.802 204.59 164.37 199.191 163.529ZM231.589 150.367C231.589 150.367 230.629 157.279 222.109 157.279C213.53 157.279 206.09 145.139 203.15 117.374C205.25 120.679 207.41 123.865 209.03 127.59C209.03 123.684 210.83 117.193 202.191 110.523C202.191 110.523 225.169 115.331 225.769 139.009C225.769 143.095 223.369 147.302 221.869 148.865C221.869 148.865 220.789 149.766 221.449 151.088C222.109 152.41 223.669 152.11 225.889 150.607C227.929 149.105 231.589 146.641 231.589 150.367ZM233.749 121.821C233.749 121.821 227.809 123.324 221.689 116.953C221.689 116.953 224.089 117.254 224.689 113.768C224.689 113.768 227.989 120.679 233.749 121.821Z" fill="#17191C"/>
<path d="M136.975 133C136.975 133 133.735 133.84 134.635 138.348C135.535 142.855 139.135 142.975 139.135 142.975C135.955 139.189 136.975 133 136.975 133Z" fill="#17191C"/>
<path fill-rule="evenodd" clip-rule="evenodd" d="M82.979 195.019C94.1384 201.389 118.797 208.721 123.956 222.003C123.956 222.003 125.696 224.947 115.977 224.947C108.597 224.947 106.617 223.144 101.398 217.075C93.7184 208.18 78.4796 202.952 78.4796 196.101C78.4196 196.161 78.5396 192.555 82.979 195.019Z" fill="#17191C"/>
</svg>
