<svg width="88" height="110" viewBox="0 0 88 110" fill="none" xmlns="http://www.w3.org/2000/svg">
<g clip-path="url(#clip0_1_950)">
<path fill-rule="evenodd" clip-rule="evenodd" d="M37.5452 0.216675C16.8094 0.216675 0 17.0384 0 37.7922V106.93C0 109.143 2.6765 110.251 4.24303 108.683L24.6392 88.2803H50.4512C71.1898 88.2803 87.9994 71.4586 87.9994 50.7076V0.216675H37.5452Z" fill="#2BB656"/>
<path fill-rule="evenodd" clip-rule="evenodd" d="M24.6386 88.2812H5.86308L17.5935 95.3286L24.6386 88.2812Z" fill="#006B40"/>
<path fill-rule="evenodd" clip-rule="evenodd" d="M87.9991 0.216675H37.545V50.7076L87.9991 0.216675Z" fill="#0CA750"/>
<path fill-rule="evenodd" clip-rule="evenodd" d="M37.5452 0.216675C16.8094 0.216675 0 17.0413 0 37.7922V88.2803L37.5452 50.7076V0.216675Z" fill="#006B40"/>
<path fill-rule="evenodd" clip-rule="evenodd" d="M87.9991 0.216675L37.545 50.7076H87.9991V0.216675Z" fill="#75DD66"/>
</g>
<defs>
<clipPath id="clip0_1_950">
<rect width="88" height="110" fill="white"/>
</clipPath>
</defs>
</svg>
