<?xml version="1.0" encoding="UTF-8"?>
<svg id="Layer_1" xmlns="http://www.w3.org/2000/svg" viewBox="0 0 1080 1080"><defs><style>.cls-1{fill:#fff;}.cls-2{fill:#426eb5;}</style></defs><circle class="cls-2" cx="540" cy="540" r="540"/><g><path class="cls-1" d="M550.1,298.41s-17.99,6.92-17.99,25.23,17.99,47.72,17.99,47.72c0,0,17.99-29.42,17.99-47.72s-17.99-25.23-17.99-25.23Z"/><path class="cls-1" d="M670.76,362.66c-.51-.13-1.06-.11-1.6,.15l1.6-.15Z"/><path class="cls-1" d="M770.08,251.62c8.53-14.29,38.7-70.16,22.67-120.84-1.01-3.19-3.63-5.6-6.9-6.34-3.23-.74-6.67,.32-8.95,2.77-30.94,33.23-61.3,30.05-67.59,28.97-26.84-16.3-104.14-31.96-158.85-31.96s-133.33,15.59-160.23,32.4c-6.86,1.07-36.85,3.49-67.46-29.4-2.27-2.45-5.71-3.51-8.95-2.77-3.27,.74-5.9,3.15-6.9,6.34-16.02,50.66,14.65,106.02,23.41,120.32-2.67,13.38-3.87,28.37-3.87,47.91,0,29.67,9.1,57.51,27.07,82.88-28.09,25.73-133.03,131.27-142.02,278.57-4.02,65.75,11.98,130.32,47.41,192.97l2.22,3.88c18.76,32.38,42.62,64.26,71.81,95.5,1.84,1.97,4.35,2.98,6.88,2.98,1.96,0,3.93-.61,5.6-1.86l4.9-3.62c40.66-30.04,75.27-59.58,104.57-88.49,4.49-4.44,8.83-8.85,13.07-13.26,163.63-169.81,145.05-317.22,92.61-417.33-2.18-4.16-5.8-7.42-10.19-9.15-69.23-27.51-148.7-66.36-148.7-123.08,0-39.44,10.02-66.15,29.79-79.39,23.78-15.94,62.6-13,115.39,8.72,2.3,.95,4.87,.95,7.16,0,5.23-2.15,10.28-4.1,15.17-5.86,.22-.08,.41-.2,.62-.3,7.08-2.4,14.14-5.01,21.27-7.24l11.12-2.81,5.57-1.42,5.6-.84,11.22-1.62,11.15-.26,2.8-.06,2.71,.34,5.44,.65c3.73,.16,7.09,1.39,10.56,2.37,13.76,4.11,25.4,13.46,32.86,26.26,7.38,12.87,11.17,28.07,12.97,43.45,1.72,15.6,2.38,31.03-3.76,45.17-5.81,14.14-15.66,26.66-27.11,37.4-23.25,21.38-51.47,37.1-80.04,51.1,29.22-12.62,58.22-26.87,83.14-47.62,12.27-10.46,23.32-22.99,30.43-38.11,1.74-3.77,3.1-7.76,4.32-11.76,.86-4.1,2.09-8.17,2.23-12.41,.17-2.09,.42-4.22,.51-6.29v-6.1c.08-4.07-.2-8.15-.45-12.23-1.13-16.27-4.24-32.9-12.05-48.23-7.77-15.28-21.91-28.09-38.52-33.87-4.14-1.42-8.28-3.03-12.56-3.49l-6.4-1.08-3.21-.53-3.18-.11-12.77-.31c-4.18,.31-8.35,.77-12.53,1.16l-6.27,.65-6.09,1.22-12.21,2.47c-7.35,1.9-14.58,4.14-21.87,6.26-.64,.09-1.28,.24-1.9,.47-4.02,1.45-8.13,3.01-12.37,4.7-57.19-22.88-100.73-24.75-129.44-5.5-25.3,16.95-38.12,48.92-38.12,95.02,0,67.64,81.16,109.02,160.56,140.56l.47,.4c59.12,112.88,71.77,290.09-202.89,493.85-79.15-87.05-116.4-178.53-110.74-272.04,9.59-158.45,140.71-270.27,142.03-271.38,3.83-3.21,4.47-8.85,1.47-12.84-.12-.17-.25-.33-.39-.48-18.66-23.77-28.13-50.03-28.13-78.05,0-19.99,1.3-34.68,4.23-47.64,.57-2.51,.07-5.16-1.36-7.3-.35-.52-31.11-47.23-26.48-92.04,37.6,31.18,72.77,23.01,74.41,22.6,1.09-.27,2.13-.73,3.05-1.36,19.91-13.61,93.64-30.25,151.32-30.25s129.88,16.44,150.15,29.91c1.21,.8,2.56,1.29,3.93,1.48,6.45,1.33,38.97,6.17,73.48-22.41,4.8,44.98-25.45,92.22-25.79,92.75-1.37,2.11-1.84,4.69-1.3,7.14,3.14,14.35,4.73,30.21,4.73,47.12,0,32.97-13.12,63.43-38.99,90.53-2.71,2.84-3.37,7.06-1.66,10.59,9.07,18.76,16.65,37.75,22.53,56.45,.08,.25,.21,.47,.3,.71,11.47,35,18.16,71.72,17.98,108.71,.04,18.63-2,37.21-5.12,55.62-3.33,18.39-8.46,36.46-14.76,54.14-12.73,35.35-31.4,68.58-53.73,99.09-18.86,25.43-40.18,49.26-64.09,70.24l1.23-.03c24.5-19.89,46.67-42.73,66.55-67.37,23.81-29.88,44.19-62.85,58.73-98.56,7.2-17.86,13.25-36.27,17.48-55.17,4.01-18.92,6.93-38.17,7.68-57.6,1.76-38.37-3.6-76.99-14.03-114-.07-.47-.14-.94-.29-1.4-5.54-17.63-12.52-35.5-20.78-53.19,26.39-29.55,39.76-62.73,39.76-98.74,0-16.81-1.47-32.74-4.38-47.38Z"/><path class="cls-1" d="M504.14,277.79c-4.5-33.57-48.71-43.19-72.24-21.43,12.41-.13,25.01-1.33,36.98,1.15-11.23,3.51-19.43,13.86-19.43,26.25,0,15.26,12.37,27.63,27.63,27.63s27.63-12.37,27.63-27.63c0-2.11-.28-4.15-.73-6.12,.06,.06,.12,.1,.18,.16Z"/><path class="cls-1" d="M623.13,311.38c15.26,0,27.63-12.37,27.63-27.63,0-12.26-8.04-22.53-19.09-26.14,12.11-2.62,24.91-1.39,37.49-1.25-22.16-20.48-62.61-13.15-71.03,15.82-1.64,3.53-2.62,7.43-2.62,11.57,0,15.26,12.37,27.63,27.63,27.63Z"/></g></svg>