<svg width="54" height="54" viewBox="0 0 54 54" fill="none" xmlns="http://www.w3.org/2000/svg">
<path d="M17.9831 51.8115C17.984 52.1133 18.0471 52.4115 18.1684 52.6881C18.2896 52.9641 18.4666 53.2125 18.688 53.4171C18.9095 53.6217 19.1708 53.7789 19.4557 53.8779C19.7405 53.9775 20.0426 54.0165 20.3434 53.9937C31.7739 53.1759 42.5696 45.086 46.0165 32.4513C46.1971 31.7247 46.7425 31.3602 47.4691 31.3602C47.8411 31.3752 48.1927 31.5364 48.4471 31.8088C48.7015 32.0813 48.8383 32.443 48.8281 32.8157C48.8281 35.633 45.2065 42.9957 40.0283 47.2682C39.7644 47.4902 39.554 47.7692 39.4127 48.0842C39.2714 48.3987 39.203 48.7412 39.2125 49.0863C39.2177 49.3665 39.2782 49.6431 39.3906 49.8999C39.5029 50.1573 39.6649 50.3895 39.8671 50.5833C40.0694 50.7777 40.308 50.9301 40.5692 51.0321C40.8305 51.1335 41.1092 51.1827 41.3895 51.1767C41.8432 51.1767 42.5696 50.9037 43.4771 50.0859C47.0983 46.8122 54.0001 37.6319 54.0001 27.5414C54.0001 12.7479 42.5632 0 26.6018 0C12.3595 0 0.0214825 11.6355 0.0214825 25.0886C0.0214825 33.9963 7.09794 40.7218 16.4409 40.7218C23.6089 40.7218 30.2317 35.633 32.0465 28.6325C32.2276 27.9058 32.7708 27.5414 33.4972 27.5414C33.8698 27.5564 34.2214 27.7175 34.4762 27.9899C34.7309 28.2623 34.8682 28.624 34.8584 28.9969C34.8584 32.1786 28.8704 43.2748 16.7135 43.2748C13.8101 43.2748 10.1824 42.4565 7.64112 41.001C7.30092 40.8361 6.93036 40.7433 6.5526 40.7283C6.2634 40.7171 5.97498 40.766 5.70552 40.8718C5.43612 40.9776 5.19144 41.138 4.98696 41.343C4.78254 41.5479 4.62264 41.793 4.5174 42.0627C4.41222 42.3325 4.36392 42.6211 4.37556 42.9104C4.38732 43.281 4.49346 43.6425 4.68396 43.9607C4.87446 44.2788 5.14296 44.543 5.46408 44.7282C8.82126 46.646 12.8132 47.6372 16.8946 47.6372C27.0556 47.6372 36.309 40.7283 39.0314 30.5483C39.2125 29.8216 39.7578 29.4572 40.4821 29.4572C40.8546 29.4722 41.2063 29.6333 41.461 29.9057C41.7157 30.1781 41.8531 30.5398 41.8432 30.9127C41.8432 35.0938 34.4047 48.5469 20.0707 49.6383C19.5161 49.6791 18.9962 49.9239 18.611 50.3253C18.2257 50.7261 18.0021 51.2559 17.9831 51.8115Z" fill="#4F43DD"/>
<path d="M32.187 16.9992C34.1435 16.9846 36.064 17.5255 37.7255 18.5591C37.8934 17.6398 37.9859 16.7083 38.0024 15.7739C38.0024 11.4585 34.7134 7.59287 30.7087 7.59287C27.5944 7.59287 25.6474 10.1735 25.6474 13.3615C25.6325 15.0838 26.2374 16.7538 27.3515 18.0668C28.8609 17.3469 30.5149 16.9817 32.187 16.9992Z" fill="white"/>
<path d="M41.5705 32.6324C42.1264 30.7315 42.3714 29.4124 42.3714 28.5557C42.3545 28.1858 42.196 27.8365 41.9287 27.5803C41.6614 27.324 41.3059 27.1804 40.9357 27.1791C40.5908 27.1855 40.258 27.3071 39.9901 27.5245C39.7222 27.7419 39.5347 28.0426 39.4573 28.3789C39.3061 29.0033 38.9823 30.6953 38.6627 31.7694C38.7949 31.3673 38.9155 30.9588 39.0249 30.544C39.206 29.8152 39.7513 29.4529 40.4755 29.4529C40.8479 29.4674 41.1996 29.628 41.4544 29.9001C41.7092 30.1721 41.8465 30.5336 41.8367 30.9063C41.8196 31.4921 41.7258 32.0731 41.5577 32.6346L41.5705 32.6324Z" fill="#352D8E"/>
<path d="M49.2817 30.6463C49.2643 30.2769 49.1059 29.9283 48.8389 29.6721C48.5725 29.416 48.2179 29.272 47.8483 29.2697C47.5033 29.2766 47.1715 29.3983 46.9039 29.6157C46.6363 29.833 46.4491 30.1335 46.3717 30.4695C46.2187 31.1088 45.8881 32.8264 45.5647 33.8983H45.5797C45.7369 33.4209 45.8839 32.9372 46.0057 32.4449C46.1863 31.7161 46.7317 31.3538 47.4583 31.3538C47.8303 31.3683 48.1819 31.529 48.4363 31.8011C48.6907 32.0732 48.8275 32.4347 48.8173 32.8072C48.8071 33.2596 48.7447 33.7094 48.6319 34.1476C49.0837 32.5621 49.2817 31.4157 49.2817 30.6463Z" fill="#352D8E"/>
<path d="M32.187 16.9992C33.1593 16.9972 34.1275 17.1271 35.065 17.3849C35.5571 16.7135 35.8031 15.8929 35.7614 15.0613C35.7197 14.2297 35.393 13.4378 34.8361 12.8189C34.2793 12.2001 33.5263 11.792 32.704 11.6634C31.8817 11.5348 31.0401 11.6935 30.3211 12.1128L31.8122 14.5677L29.0195 13.3594C28.6412 13.9701 28.4516 14.6788 28.4743 15.3968C28.4971 16.1148 28.7312 16.8102 29.1473 17.3956C30.1384 17.1284 31.1606 16.9951 32.187 16.9992Z" fill="#163B36"/>
<path d="M10.6723 32.7987C11.8488 32.7987 12.8025 31.8446 12.8025 30.6677C12.8025 29.4907 11.8488 28.5367 10.6723 28.5367C9.4959 28.5367 8.5422 29.4907 8.5422 30.6677C8.5422 31.8446 9.4959 32.7987 10.6723 32.7987Z" fill="#352D8E"/>
<path d="M10.6723 24.2746C11.8488 24.2746 12.8025 23.3205 12.8025 22.1436C12.8025 20.9666 11.8488 20.0125 10.6723 20.0125C9.4959 20.0125 8.5422 20.9666 8.5422 22.1436C8.5422 23.3205 9.4959 24.2746 10.6723 24.2746Z" fill="#352D8E"/>
<path d="M6.41196 28.5367C7.58844 28.5367 8.54214 27.5825 8.54214 26.4056C8.54214 25.2287 7.58844 24.2746 6.41196 24.2746C5.23548 24.2746 4.28178 25.2287 4.28178 26.4056C4.28178 27.5825 5.23548 28.5367 6.41196 28.5367Z" fill="#352D8E"/>
<path d="M15.9977 40.7176H16.4237C23.5918 40.7176 30.2145 35.6287 32.0294 28.6283C32.2105 27.9016 32.7537 27.5372 33.4801 27.5372C33.8526 27.5522 34.2043 27.7133 34.459 27.9857C34.7138 28.2581 34.8511 28.6198 34.8412 28.9927C34.8088 29.7366 34.6406 30.4681 34.3449 31.1514C34.3963 31.0721 34.4412 30.9887 34.4791 30.9021C35.0181 29.6696 35.2966 28.339 35.2971 26.9938C35.2971 24.9032 33.8443 23.5394 31.7589 23.5394C28.1227 23.5394 27.3941 26.7146 25.8604 30.1093C24.2692 33.6341 21.3466 37.4465 13.9762 37.4465C6.31824 37.4465 -1.55064 32.0827 0.368642 21.1761C0.392102 21.0397 0.411242 20.9182 0.426182 20.8053C0.144902 22.2143 0.00222207 23.6475 0.00012207 25.0844C0.0214221 33.8642 6.87846 40.513 15.9977 40.7176Z" fill="#352D8E"/>
</svg>
