<svg width="63" height="41" viewBox="0 0 63 41" fill="none" xmlns="http://www.w3.org/2000/svg">
<path d="M19.7999 40.2C8.79994 40.2 -6.10352e-05 31.4 -6.10352e-05 20.4C-6.10352e-05 9.39997 8.79994 0.599976 19.7999 0.599976H42.9999C53.9999 0.599976 62.7999 9.39997 62.7999 20.4C62.7999 31.4 53.9999 40.2 42.9999 40.2H19.7999ZM42.3999 33.2C49.5999 33.2 55.1999 27.4 55.1999 20.4C55.1999 13.2 49.3999 7.59998 42.3999 7.59998H20.3999C13.1999 7.59998 7.59994 13.4 7.59994 20.4C7.59994 27.4 13.3999 33.2 20.3999 33.2H42.3999Z" fill="#C74634"/>
</svg>
