<svg width="60" height="60" viewBox="0 0 60 60" fill="none" xmlns="http://www.w3.org/2000/svg">
<path fill-rule="evenodd" clip-rule="evenodd" d="M20.0383 31.0959C19.7698 31.9622 19.1872 32.732 18.3291 33.2241L5.61895 40.5343C3.82376 41.5624 1.53682 40.9529 0.506504 39.1747C-0.530331 37.3865 0.0799556 35.1116 1.87361 34.0804L8.97686 30.0023L1.87361 25.9134C0.0799556 24.8838 -0.5334 22.6085 0.506504 20.8268C1.53682 19.044 3.82376 18.4326 5.61895 19.4607L18.3291 26.7663C19.2228 27.2796 19.8201 28.0936 20.071 29.0039C20.1553 29.2965 20.1929 29.5891 20.2075 29.8833C20.2175 30.2884 20.1653 30.6989 20.0383 31.0959ZM23.4872 37.9425C25.4228 38.0811 26.951 39.693 26.951 41.6541V56.2704C26.951 58.3316 25.2712 60 23.2091 60C21.1369 60 19.4637 58.3316 19.4637 56.2704V48.0953L12.3363 52.1861C10.5492 53.2223 8.26377 52.6093 7.22541 50.8295C6.19356 49.0464 6.80384 46.7599 8.59443 45.7303L21.3145 38.4292C21.9981 38.0322 22.7564 37.8801 23.4872 37.9425ZM36.5149 22.0579C34.5747 21.9154 33.0496 20.3009 33.0496 18.3413V3.72309C33.0496 1.66883 34.7197 0 36.7934 0C38.8652 0 40.5387 1.66883 40.5387 3.72309V11.9032L47.6612 7.80583C49.4518 6.77619 51.7383 7.38728 52.7706 9.16738C53.8005 10.9571 53.1937 13.2336 51.4015 14.2632L38.683 21.5708C37.9994 21.9628 37.2426 22.1164 36.5149 22.0579ZM8.59443 14.2632C6.80384 13.2336 6.19356 10.9571 7.22541 9.16738C8.26377 7.38728 10.5492 6.77619 12.3363 7.80583L19.4637 11.9032V3.72309C19.4637 1.66883 21.1369 0 23.2091 0C25.2712 0 26.951 1.66883 26.951 3.72309V18.3413C26.951 20.3009 25.4228 21.9154 23.4872 22.0579C22.7564 22.1164 21.9981 21.9628 21.3145 21.5708L8.59443 14.2632ZM31.4385 36.6857C31.287 36.8409 30.9955 36.9668 30.7742 36.9668H29.2199C29.0066 36.9668 28.7105 36.8409 28.5559 36.6857L23.2724 31.4309C23.1212 31.2822 22.9989 30.9846 22.9989 30.7755V29.2245C22.9989 29.0104 23.1212 28.7131 23.2724 28.5626L28.5559 23.3062C28.7105 23.153 29.0066 23.0301 29.2199 23.0301H30.7742C30.9909 23.0301 31.287 23.153 31.4385 23.3062L36.7251 28.5626C36.8763 28.7131 36.9982 29.0104 36.9982 29.2245V30.7755C36.9982 30.9846 36.8763 31.2822 36.7251 31.4309L31.4385 36.6857ZM32.4995 29.9715C32.4995 29.759 32.371 29.4632 32.2195 29.3061L30.6879 27.7894C30.5383 27.6392 30.2406 27.5149 30.0273 27.5149H29.9671C29.7538 27.5149 29.4577 27.6392 29.3092 27.7894L27.778 29.3061C27.6249 29.4632 27.5075 29.759 27.5075 29.9715V30.032C27.5075 30.241 27.6249 30.5337 27.778 30.6873L29.3092 32.2071C29.4592 32.3577 29.7538 32.4817 29.9671 32.4817H30.0273C30.2406 32.4817 30.5383 32.3577 30.6879 32.2071L32.2195 30.6873C32.371 30.5337 32.4995 30.241 32.4995 30.032V29.9715ZM51.4015 45.7303C53.1937 46.7599 53.8005 49.0464 52.7706 50.8295C51.7383 52.6093 49.4498 53.2223 47.6612 52.1861L40.5387 48.0953V56.2704C40.5387 58.3316 38.8652 60 36.7934 60C34.7197 60 33.0496 58.3316 33.0496 56.2704V41.6541C33.0496 39.693 34.5747 38.0811 36.5149 37.9425C37.2426 37.8801 37.9994 38.0322 38.683 38.4292L51.4015 45.7303ZM51.0222 30.0023L58.1254 34.0804C59.9191 35.1116 60.5328 37.3865 59.496 39.1747C58.4607 40.9529 56.1707 41.5624 54.3835 40.5343L41.6634 33.2241C40.8138 32.732 40.2261 31.9622 39.9641 31.0959C39.8402 30.6989 39.7815 30.2884 39.7965 29.8833C39.803 29.5891 39.8468 29.2965 39.9281 29.0039C40.182 28.0936 40.7796 27.2796 41.6634 26.7663L54.3835 19.4607C56.1707 18.4326 58.4607 19.044 59.496 20.8268C60.5328 22.6085 59.9191 24.8838 58.1254 25.9134L51.0222 30.0023Z" fill="#29B5E8"/>
</svg>
