<?xml version="1.0" encoding="UTF-8"?>
<svg id="Ebene_1" xmlns="http://www.w3.org/2000/svg" version="1.1" viewBox="0 0 240.2 155.8">
  <!-- Generator: Adobe Illustrator 29.0.0, SVG Export Plug-In . SVG Version: 2.1.0 Build 186)  -->
  <defs>
    <style>
      .st0 {
        fill: #0d0d0d;
      }

      .st1 {
        fill: #2eafff;
        fill-rule: evenodd;
      }

      .st2 {
        fill: #1a1a1a;
      }
    </style>
  </defs>
  <path class="st2" d="M120,2c-24.3,0-44,19.7-44,44s19.7,44,44,44,44-19.7,44-44S144.3,2,120,2Z"/>
  <path class="st1" d="M115.1,24c8,0,15,4.3,18.7,10.7h4c5.5,0,10.1,4.4,10.1,10h0c0,5.5-4.5,10.1-10.1,10.1h-2.9c-3.3,7.3-10.5,12.4-18.9,12.7h-2c-11.5-.6-20.6-10.1-20.6-21.7h0c0-12,9.7-21.8,21.7-21.8h0ZM115.1,30.6c-8.3,0-15.1,6.8-15.1,15.1h0c0,8.4,6.8,15.1,15.1,15.1s12.4-4.4,14.4-10.4l.7-2.3h7.6c1.8,0,3.4-1.6,3.4-3.4h0c0-1.8-1.5-3.4-3.4-3.4h-8.1l-.9-1.9c-2.4-5.2-7.6-8.8-13.7-8.8Z"/>
  <path class="st0" d="M15.4,113H2v40.3h13.4c9,0,16.3-9,16.3-20.2s-7.3-20.1-16.3-20.1ZM15.4,146.7h-7.3v-27.2h7.3c5.7,0,10.2,6.1,10.2,13.5s-4.5,13.7-10.2,13.7h0Z"/>
  <path class="st0" d="M79.8,147.1h-1.5c-3.5,0-6.4-3-6.4-6.7v-6.9c0-3.7,2.9-6.8,6.4-6.8h1.5c3.6,0,6.6,2.8,6.6,6.3h6.2c0-6.9-5.8-12.7-12.8-12.7h-1.5c-6.9,0-12.5,5.9-12.5,13.1v6.9c0,7.3,5.6,13.2,12.5,13.2h1.5c7.2,0,13.1-5.7,13.1-12.6h-6.2c0,3.3-3.1,6.1-6.9,6.1h0Z"/>
  <path class="st0" d="M54.9,140.4c0,4-2.3,6.8-5.5,6.8h-1.5c-3.2,0-5.5-2.8-5.5-6.8v-18.4h-6.1v19.6c0,7.1,4.8,12.1,11.5,12.1h1.8c6.7,0,11.5-5.1,11.5-12.1v-19.6h-6.1v18.4h-.1Z"/>
  <path class="st0" d="M122.2,120.5h-8.5l-10,11.4v-18.8h-6.1v40.1h6.1v-11.8l2.9-3.3,10,15.1h7.5l-13.3-20,11.4-12.7h0Z"/>
  <path class="st0" d="M209.3,120.5h-8.6l-10,11.4v-18.8h-6.1v40.1h6.1v-11.8l2.9-3.3,10,15.1h7.5l-13.3-20,11.4-12.7h.1Z"/>
  <path class="st0" d="M133.8,113h-6v40.3h23.2v-6.5h-17.2v-33.8Z"/>
  <path class="st0" d="M231.9,142.1c-.6,2.8-3.4,5-6.8,5h-1.5c-3.5,0-6.4-3-6.4-6.7v-2.3h20.7v-5.1c0-6.9-5.8-12.7-12.8-12.7h-1.5c-6.9,0-12.5,5.9-12.5,13.1v6.9c0,7.3,5.6,13.2,12.5,13.2h1.5c6.9,0,12.5-5.1,13.1-11.6h-6.3v.2h0ZM225.1,126.8c3.6,0,6.5,2.9,6.6,6.4h-14.6c.2-3.6,3-6.4,6.4-6.4,0,0,1.6,0,1.6,0Z"/>
  <path class="st0" d="M172.4,125.3c-1.8-2.3-4.2-3.7-6.9-3.7h-1.5c-6.7,0-11.4,5.4-11.4,13.2v5.8c0,7.7,4.7,13.2,11.4,13.2h1.5c2.7,0,5.1-1.4,6.9-3.7v3.1h5.8v-31.2h-5.8v3.4h0ZM172.9,139c0,5.1-3.1,8.7-7.4,8.7h-1.5c-3.5,0-5.9-3-5.9-7.2v-5.8c0-4.3,2.4-7.4,5.9-7.4h1.5c4.3,0,7.4,3.5,7.4,8.4v3.2h0Z"/>
</svg>