<?xml version="1.0" encoding="UTF-8"?>
<svg width="84px" height="34px" viewBox="0 0 84 34" version="1.1" xmlns="http://www.w3.org/2000/svg" xmlns:xlink="http://www.w3.org/1999/xlink">
    <!-- Generator: Sketch 52.5 (67469) - http://www.bohemiancoding.com/sketch -->
    <title>abicart_orange</title>
    <desc>Created with Sketch.</desc>
    <g id="Page-1" stroke="none" stroke-width="1" fill="none" fill-rule="evenodd">
        <g id="abicart_orange" transform="translate(0.214286, 0.035714)" fill="#FD9733">
            <g id="abicart_logo">
                <g id="Abicart">
                    <path d="M68.1071429,32.9821429 C67.125,32.9821429 66.1785714,32.9821429 65.2142857,32.9821429 C65.2142857,27.8392857 65.2142857,23.125 65.2142857,17.9464286 C66.1071429,17.9464286 67,17.9464286 67.9464286,17.9464286 C67.9464286,18.8392857 67.9464286,20.625 67.9464286,20.625 C67.9642857,20.5892857 68.0892857,20.4107143 68.1785714,20.2678571 C69.2857143,18.3392857 72,17.7321429 74.1428571,17.8928571 C74.1428571,17.8928571 74.1428571,19.7142857 74.1428571,20.3928571 C73.3392857,20.3928571 72.7678571,20.4464286 72.0357143,20.5535714 C70.0535714,20.875 68.8928571,23 68.4464286,24.5714286 C68.1607143,25.5714286 68.1428571,26.0714286 68.1071429,27.125 C68.0535714,29.0357143 68.0892857,30.5535714 68.0892857,32.4464286 C68.1071429,32.625 68.1071429,32.7857143 68.1071429,32.9821429 Z" id="Path"></path>
                    <path d="M60.3928571,25.8035714 C58.9285714,25.8392857 56.5,25.7321429 54.8928571,26.8928571 C54.1428571,27.4642857 53.8571429,28.3928571 53.9821429,29.3035714 C54.1071429,30.2142857 54.6964286,30.5892857 55.5357143,30.875 C57.1964286,31.4107143 58.75,31.2142857 60.4107143,30.875 C60.3928571,29.1071429 60.3928571,27.5357143 60.3928571,25.8035714 Z M60.4107143,23.6964286 C60.4107143,23.1071429 60.4642857,22.6964286 60.4107143,22.1607143 C60.25,20.7857143 59.375,20.0892857 57.9464286,19.9642857 C56.0357143,19.8392857 54.0535714,20.4107143 52.6428571,21.2142857 C52.6428571,20.4285714 52.6428571,18.7321429 52.6428571,18.7321429 C53.5178571,18.0357143 57.3928571,17.2678571 59.8928571,17.8928571 C61.8571429,18.3928571 62.9285714,19.6785714 63.1428571,21.7142857 C63.1785714,22.125 63.1964286,22.4107143 63.1964286,22.8392857 C63.1964286,26 63.1964286,28.9285714 63.1964286,32.0714286 C63.1964286,32.8214286 62.2142857,33.1071429 61.9285714,33.1607143 C58.875,33.5714286 54.9285714,34.3571429 52.6607143,32.3214286 C50.7321429,30.9464286 50.625,27.8035714 52.375,26.0178571 C53.5714286,24.8571429 55.7678571,23.6964286 60.4107143,23.6964286 Z" id="Shape" fill-rule="nonzero"></path>
                    <path d="M83.1071429,17.875 C83.1071429,18.7142857 83.1071429,19.4821429 83.1071429,20.3214286 C81.6428571,20.3214286 80.1964286,20.3214286 78.7142857,20.3214286 C78.7142857,20.5357143 78.7142857,20.7321429 78.7142857,20.8928571 C78.7142857,23.25 78.7142857,25.5892857 78.7142857,27.9285714 C78.7142857,28.375 78.75,28.8035714 78.7678571,29.25 C78.8571429,30.2142857 79.3571429,30.875 80.3571429,31 C81.1964286,31.0892857 83.2857143,30.9107143 83.4464286,30.875 C83.4464286,30.875 83.4464286,31.125 83.4464286,31.2142857 C83.4464286,31.8392857 83.4464286,32.5 83.4464286,33.1964286 C81.6071429,33.6071429 79.7857143,33.8214286 78.0357143,33.0714286 C76.625,32.4821429 75.9821429,31.3392857 75.875,29.875 C75.8392857,29.1607143 75.7857143,28.4285714 75.7857143,27.7142857 C75.7857143,23.6071429 75.7857143,19.5892857 75.7857143,15.4821429 C75.7857143,15.1428571 75.875,14.9464286 76.1964286,14.7678571 C76.9821429,14.2857143 77.8214286,13.8035714 78.7321429,13.2678571 C78.7321429,14.875 78.7321429,16.3392857 78.7321429,17.9107143 C78.75,17.9107143 82.7678571,17.8928571 83.1071429,17.875 Z" id="Path"></path>
                    <path d="M49.9285714,21.0714286 C48.8392857,20.4821429 47.75,20.0714286 46.625,20.0714286 C43.9464286,20.1428571 42.0714286,21.8214286 41.75,24.5178571 C41.5892857,25.8392857 41.6964286,27.1428571 42.2857143,28.375 C43.0714286,30 44.4107143,30.8571429 46.1607143,31 C47.4464286,31.125 48.5,30.9107143 49.625,30.3035714 C49.6964286,30.2678571 49.75,30.2321429 49.9107143,30.1607143 C49.9107143,30.9464286 49.9107143,31.875 49.9107143,32.5892857 C49.9107143,32.5892857 49.8571429,32.6428571 49.6607143,32.75 C45.1964286,35.1964286 39.5892857,32.3035714 38.875,27.2857143 C38.625,25.4642857 38.7142857,23.6785714 39.4642857,21.9821429 C40.6785714,19.1607143 43.4285714,17.4642857 46.5,17.5892857 C47.5535714,17.625 48.9285714,18.0535714 49.9285714,18.5357143 C49.9285714,18.5178571 49.9285714,20.3214286 49.9285714,21.0714286 Z" id="Path"></path>
                    <path d="M33.7857143,14.0178571 C33.3571429,13.5535714 33.1071429,12.9285714 33.1071429,12.1071429 C33.1071429,11.2857143 33.3928571,10.6071429 33.9821429,10.0357143 C34.5714286,9.46428571 35.3214286,9.21428571 36.1964286,9.21428571 C36.9821429,9.21428571 37.625,9.42857143 38.125,9.83928571 C38.625,10.25 38.875,10.875 38.875,11.625 C38.875,12.5714286 38.5892857,13.3214286 38.0357143,13.8571429 C37.4821429,14.4285714 36.7321429,14.6785714 35.8214286,14.6785714 C34.9285714,14.7142857 34.25,14.4642857 33.7857143,14.0178571 Z" id="Path"></path>
                    <path d="M35.8035714,16.8392857 C34.8035714,16.8392857 34.0892857,16.9642857 33.6428571,17.2857143 C33.2142857,17.5714286 33.0892857,18.1071429 32.8928571,18.8571429 C32.625,19.9642857 32.3571429,21.5535714 32.125,23.25 C31.6428571,23.5 31.0714286,23.7321429 30.3214286,23.8392857 C30.3035714,23.6785714 30.3035714,23.5178571 30.2857143,23.3392857 C30.1071429,21.5535714 29.5,20.0535714 28.4821429,18.8214286 C27.4821429,17.6071429 26.1785714,16.9464286 24.5535714,16.8214286 C26.3035714,14.6607143 27.5178571,12.625 28.2678571,10.6428571 C29.0178571,8.69642857 29.2321429,7.32142857 29.2321429,5.32142857 C29.2321429,3.78571429 28.8928571,2.57142857 28.2321429,1.58928571 C27.5535714,0.642857143 26.6785714,0.142857143 25.5535714,0.142857143 C23.5,0.142857143 21.75,1.42857143 20.2857143,4 C18.8214286,6.57142857 17.8214286,9.10714286 17.0714286,12.75 C16.2857143,16.4107143 15.9107143,19.8035714 15.9107143,22.9107143 C15.9107143,25.0535714 16.125,26.875 16.5178571,28.4107143 C15.8035714,29.4285714 15,30.25 14.0892857,30.0714286 C13.5357143,29.9821429 13.1785714,29.1071429 13.1785714,28.7321429 C13.1785714,27.6428571 13.4642857,25.7321429 14.0178571,22.9285714 C14.3571429,21.0178571 14.5535714,19.8035714 14.5535714,19.2857143 C14.5535714,18.4464286 13.8035714,18.3392857 12.625,18.3392857 C12.0714286,18.3392857 11.2857143,16.6428571 9.66071429,16.75 C8,16.8392857 6.41071429,17.25 4.94642857,18.3214286 C3.44642857,19.3928571 2.28571429,20.7678571 1.39285714,22.4821429 C0.482142857,24.2142857 0.0535714286,26.0178571 0.0535714286,27.9642857 C0.0535714286,29.75 0.482142857,31.1607143 1.39285714,32.25 C2.26785714,33.3214286 3.44642857,33.875 5.01785714,33.875 C6.89285714,33.875 8.48214286,32.875 9.73214286,30.8392857 C10.0714286,31.7857143 10.5714286,32.5357143 11.2321429,33.0714286 C11.8928571,33.6071429 12.6428571,33.9107143 13.4107143,33.8928571 C15.2857143,33.8035714 16.75,32.8035714 17.7857143,31.3571429 C18.8928571,32.9821429 20.5892857,33.8035714 22.875,33.8035714 C24.5,33.8035714 25.9642857,33.1785714 27.3035714,31.9464286 C28.5178571,30.8392857 29.3571429,29.3392857 29.8571429,27.5892857 C30.5,27.6071429 31.1071429,27.5178571 31.6428571,27.3571429 C31.3928571,29.7142857 31.2321429,31.625 31.2321429,31.7857143 C31.2321429,32.4464286 31.3571429,32.9464286 31.6428571,33.25 C31.9285714,33.5714286 32.4464286,33.7142857 33.2678571,33.75 C34.1071429,33.75 34.7678571,33.5892857 35.1785714,33.2857143 C35.5892857,32.9821429 35.8035714,32.4464286 35.8571429,31.6607143 C36.0714286,28.1428571 36.5357143,24.3035714 37.3214286,18.8035714 C37.3571429,18.4642857 37.375,18.2321429 37.375,18.1071429 C37.375,17.25 36.8392857,16.8392857 35.8035714,16.8392857 Z M8.80357143,26.75 C8.58928571,27.7857143 8.21428571,28.625 7.75,29.25 C7.28571429,29.875 6.78571429,30.1964286 6.25,30.1607143 C5.71428571,30.1607143 5.32142857,30 5,29.625 C4.71428571,29.2857143 4.57142857,28.7142857 4.57142857,27.9642857 C4.57142857,26.5892857 4.82142857,25.3392857 5.32142857,24.1071429 C5.82142857,22.9107143 6.5,21.9464286 7.35714286,21.1964286 C8.23214286,20.4821429 9.16071429,20.1071429 10.1607143,20.0714286 L8.80357143,26.75 Z M21.4285714,11.3928571 C21.8928571,8.91071429 23.3035714,3.71428571 24.7678571,3.78571429 C25.0714286,3.78571429 25.8928571,4.66071429 25.8928571,6.28571429 C25.8928571,8.48214286 25.4642857,9.32142857 24.4821429,11.5535714 C23.5535714,13.7857143 21.9821429,16.0892857 20.4285714,19.0178571 C20.6428571,16.0892857 20.9285714,13.875 21.4285714,11.3928571 Z M25.0178571,29.0714286 C24.4285714,29.6964286 23.7678571,30.0178571 23.0178571,30.0178571 C22.3392857,30.0178571 21.7142857,29.6428571 21.2142857,28.9285714 C20.6785714,28.2142857 20.4285714,27.1428571 20.4285714,25.7678571 C20.4285714,24.1428571 20.7678571,22.8214286 21.4285714,21.8571429 C21.4642857,21.8214286 21.4821429,21.7857143 21.5178571,21.7321429 C21.6071429,21.5714286 21.7678571,21.3928571 21.9464286,21.2321429 L21.9821429,21.1964286 C22.0357143,21.1607143 22.0714286,21.1071429 22.1428571,21.0714286 C22.1964286,21 22.2678571,20.9821429 22.3214286,20.9107143 C22.9464286,20.4464286 23.7857143,20.0357143 24.5714286,20.0178571 C24.1964286,22.3928571 25.1071429,24.4821429 26.3035714,25.8214286 C26.25,26.1071429 26.1785714,26.3928571 26.1071429,26.7142857 C25.8928571,27.7142857 25.5178571,28.5 25.0178571,29.0714286 Z" id="Shape" fill-rule="nonzero"></path>
                </g>
            </g>
        </g>
    </g>
</svg>