<svg width="55" height="55" xmlns="http://www.w3.org/2000/svg">
<g id="cin7-blue" fill-rule="evenodd" stroke="none">
<path d="m6.949 30.445 4.997 2.406 1.455.7L5.742 0H0l6.949 30.445z" transform="translate(11.486 19.43)" id="Fill-7" fill="#7F96FF"/>
<path d="m5.53 24.23 6.453 3.107L5.743 0H0l5.53 24.23z" transform="translate(0 19.43)" id="Fill-8" fill="#7F96FF"/>
<path d="M9.342 15.77 5.742 0H0l6.47 28.35 2.872-12.58z" transform="translate(22.971 19.43)" id="Fill-12" fill="#7F96FF"/>
<path d="M5.597 44.195 0 46.89 10.702 0l3.874 4.855-8.98 39.34z" transform="translate(33.518 4.858)" id="Fill-9" fill="#002DFF"/>
<path d="M5.601 29.09 0 31.789 7.255 0l3.877 4.861-5.53 24.23z" transform="translate(44.711 14.57)" id="Fill-10" fill="#002DFF"/>
<path d="m15.495 0-3.873 4.857h22.635l-1.109 4.858h-25.4l-3.874 4.857H32.04L30.93 19.43H0l1.109 4.857h28.713l-6.389 27.994 4.488 2.161L40.348 0H15.495z" id="Fill-11" fill="#002DFF"/>
</g>
</svg>