<?xml version="1.0" encoding="utf-8"?>
<!-- Generator: Adobe Illustrator 25.0.1, SVG Export Plug-In . SVG Version: 6.00 Build 0)  -->
<svg version="1.0" id="Layer_1" xmlns="http://www.w3.org/2000/svg" xmlns:xlink="http://www.w3.org/1999/xlink" x="0px" y="0px"
	 viewBox="0 0 900 589" style="enable-background:new 0 0 900 589;" xml:space="preserve">
<style type="text/css">
	.st0{fill:#3E525D;}
	.st1{fill:#05CBBF;}
	.st2{fill:none;}
</style>
<path class="st0" d="M86.8,218.4c2.3-4.6,8-4.3,12.3-4.6c24.3,0,48.5,0.1,72.7,0c12.7-0.2,25.5,2,37,7.5c-24.1,44-48.2,88-72.4,132
	c-3.3,6-5.7,12.8-11.3,17.3c3.5-13.6,10-26.1,14.9-39.2c10.5-27,22.5-53.4,32.1-80.7c-14.6,0.1-29.2-0.3-43.8,0.3
	c3.6,13.9,7.7,27.7,11.3,41.6c2.2,6.3-0.8,12.6-2.9,18.5c-5.8,15.2-10.1,30.9-16.3,46c-12-40.2-21.8-81.1-33.2-121.4
	C86.2,230.1,83.1,223.6,86.8,218.4"/>
<path class="st1" d="M285.6,239.2c4.1-14.7,18.6-24.8,33.7-25.1c24.3-0.6,48.7-0.1,73-0.3c31-0.6,61.1,21.1,69.6,51.1
	c4.5,14.9,3.8,33.1-7.7,44.7c-7.7,8.2-19.1,11.2-30,11.1c-29.3,0.2-58.5-0.2-87.8,0.2c3.2,9.2,11.1,17.4,21.5,17.3
	c32.2,0.3,64.5,0,96.7,0.1c4.9,14,12.6,27,23.8,36.8c-36.6,0.1-73.2,0.1-109.8,0c-22.9,0-45-12.4-58.1-31
	c-10.5-14.8-12.5-33.3-17.6-50.3C288.7,276.1,280.1,257.8,285.6,239.2 M322.3,258.5c-1.4,8.6,2.8,16.9,4.6,25.2
	c28.2,0.1,56.3,0,84.5,0.1c5.4,0.2,12.2-0.8,14.1-6.7c3.8-12.7-7.4-26.4-20.5-26.3c-22.9-0.3-45.8,0-68.7-0.1
	C330.7,250.3,323.9,252.2,322.3,258.5 M494.9,213.9h83.5c23-0.1,45.4,11.7,58.7,30.4c9.3,12.2,11.8,27.7,15.8,42.2
	c3.4,13,7.2,25.8,10.3,38.8c3.1,14.2,0.6,31.2-11.1,40.9c-8.3,7.7-20,9.3-30.9,9.1c-22.9-0.1-45.7,0.1-68.6-0.1
	c-30.3-0.7-58.9-22.8-66.7-52.1c-4.1-14.3-3.3-31.6,7.3-43c7.4-8.3,18.7-11.8,29.5-11.8c29.6-0.2,59.2,0.1,88.8-0.1
	c-2.6-9.1-10.4-17.2-20.4-17.4c-28.7-0.4-57.5-0.1-86.2-0.1C501.5,238.4,498,226.2,494.9,213.9 M522.5,312.1
	c-4.2,13.2,8.3,26.9,21.6,26.2c23.5,0,47.1,0.3,70.6-0.1c6,0.3,11.1-4.2,11.5-10.2c0-0.4,0-0.8,0-1.1c-0.8-7.3-3.3-14.4-5-21.5
	c-27.2-0.5-54.3,0-81.5-0.2C533.5,305,525,305.1,522.5,312.1 M680.3,231.8c7.8-12.3,22.9-18,37-18c29.1,0,58.3-0.1,87.4,0.1
	c3.3,12.9,6.9,25.8,10.3,38.7c-28.3,0-56.6,0-84.9,0c-4.8,0.1-11,0-13.8,4.8c-1.9,4.5-0.7,9.5,0.4,14c9.3,34.6,18.6,69.2,27.8,103.9
	c-12.9,0.1-25.8,0-38.7,0c-9.6-35.5-19-71-28.6-106.5C673.8,256.6,673.2,242.7,680.3,231.8 M209.2,259.3
	c5.9-9.4,11.5-18.9,17.5-28.1c8.6,7.1,16.6,15.1,22.6,24.5c10.8,16,13.8,35.5,19,53.7c4.3,15.7,3.1,33.6-6.8,47
	c-9.3,12.5-25.2,18.6-40.4,18.8c-27.7,0.2-55.3,0-82.9,0c7.2-12.5,15-24.6,22.4-36.9c16.6-0.3,33.2,0.5,49.8-0.3
	c9.8-0.3,19.8-7.3,21-17.5c1.5-12.5-4.1-24.4-6.8-36.3C222.2,274.3,216.3,266,209.2,259.3L209.2,259.3z"/>
<rect x="50" y="187" class="st2" width="800" height="215"/>
</svg>
