<svg xmlns="http://www.w3.org/2000/svg" class="picqer-logo" viewBox="0 0.5 64.5 64.5">
    <path d="M48.8 39C48.5 39.2 48.2 39.4 47.8 39.4L16.7 39.4C16.3 39.4 15.9 39.2 15.6 38.9 14.4 37.4 13.7 35.5 13.7 33.4 13.7 28.6 17.5 24.8 22.3 24.8 23.9 24.8 25.4 25.2 26.7 26 27.7 26.6 28.6 27.4 29.3 28.3 29.3 28.3 29.3 28.3 29.3 28.3 29.3 28.3 29.4 28.3 29.3 28.3 28.3 26.2 26.5 24.6 24.3 23.8 25.9 20.4 29.4 18 33.4 18 38.5 18 42.7 21.8 43.3 26.7 41.8 27.1 40.5 28 39.6 29.2 39.5 29.2 39.5 29.2 39.6 29.2 39.6 29.2 39.6 29.2 39.6 29.2 39.9 28.9 40.3 28.6 40.7 28.4 41.7 27.8 42.9 27.5 44.1 27.5 47.8 27.5 50.8 30.5 50.8 34.2 50.8 36.1 50 37.8 48.8 39L48.8 39ZM49.5 43.9L49.5 43.9 49.5 46.8C49.5 47.2 49.2 47.5 48.8 47.5L45.9 47.5C45.5 47.5 45.2 47.2 45.2 46.8L45.2 44.2C45.2 44 45.1 43.9 44.9 43.9L34.7 43.9C34.5 43.9 34.4 44 34.4 44.2L34.4 46.8C34.4 47.2 34.1 47.5 33.7 47.5L30.8 47.5C30.4 47.5 30.1 47.2 30.1 46.8L30.1 44.2C30.1 44 30 43.9 29.8 43.9L19.6 43.9C19.4 43.9 19.3 44 19.3 44.2L19.3 46.8C19.3 47.2 19 47.5 18.6 47.5L15.7 47.5C15.3 47.5 15 47.2 15 46.8L15 43.2 15 43.2 15 42.5C15 42.1 15.3 41.9 15.7 41.9L48.8 41.9C49.2 41.9 49.5 42.1 49.5 42.5L49.5 43.9ZM32.2 0.5C14.4 0.5 0 14.9 0 32.7 0 50.6 14.4 65 32.2 65 50.1 65 64.5 50.6 64.5 32.7 64.5 14.9 50.1 0.5 32.2 0.5L32.2 0.5Z" fill="#0379BF"/>
</svg>