<svg width="171" height="27" viewBox="0 0 171 27" fill="none" xmlns="http://www.w3.org/2000/svg">
<g clip-path="url(#clip0)">
<path d="M19.4327 24.5189C18.4314 25.2122 17.3188 25.796 16.1692 26.1973C14.9453 26.5987 13.6845 26.8176 12.3865 26.8176C10.6435 26.8541 8.90046 26.4527 7.34288 25.6865C5.85947 24.9568 4.5244 23.9716 3.41184 22.7311C2.29928 21.4905 1.44632 20.0676 0.890046 18.5351C0.296682 16.9662 0 15.3243 0 13.6824C0 11.9676 0.333767 10.2892 0.927131 8.72028C1.52049 7.18784 2.41054 5.76487 3.56018 4.52433C4.67274 3.32028 6.00781 2.33514 7.49122 1.6419C9.0488 0.912168 10.7176 0.547303 12.4236 0.58379C14.1666 0.547303 15.9096 0.948655 17.4671 1.75136C18.9506 2.48109 20.2856 3.50271 21.3611 4.77974C22.4366 6.02028 23.2895 7.44325 23.8829 9.01217C24.4763 10.5446 24.7729 12.1865 24.7729 13.7919C24.7729 15.5068 24.4763 17.1851 23.8087 18.7905C23.2154 20.323 22.3253 21.746 21.2128 22.9865L24.5504 26.6351H21.2869L19.4327 24.5189ZM12.4236 23.8622C13.3507 23.8622 14.2778 23.7162 15.1308 23.4243C15.9466 23.1324 16.7254 22.7311 17.4301 22.2203L13.907 18.1703H17.1705L19.1731 20.4689C20.6565 18.4987 21.4353 16.127 21.4353 13.6824C21.4353 12.3689 21.2128 11.0919 20.7677 9.85136C20.3598 8.6473 19.7293 7.55271 18.9135 6.56757C18.1347 5.61893 17.1705 4.85271 16.0579 4.30541C14.9453 3.72163 13.6845 3.46622 12.4236 3.46622C11.1256 3.46622 9.7905 3.7946 8.64086 4.37838C7.5283 4.96217 6.56409 5.72838 5.82238 6.71352C5.04359 7.69866 4.41314 8.79325 4.00521 9.9973C3.15224 12.4419 3.15224 15.1054 4.00521 17.5135C4.41314 18.7176 5.04359 19.8122 5.85947 20.7973C6.63826 21.746 7.60247 22.5122 8.71503 23.0595C9.86467 23.6068 11.1256 23.8987 12.4236 23.8622Z" fill="#5BA5E5"/>
<path d="M33.3397 27C31.3001 27 29.7796 26.3432 28.7412 24.9932C27.7028 23.6432 27.1836 21.673 27.1836 19.0094V7.58917H30.4471V18.3892C30.4471 22.2932 31.8192 24.227 34.5636 24.227C35.9357 24.227 37.2337 23.7892 38.3092 22.9865C39.4959 22.1108 40.423 20.9067 40.9422 19.5203V7.58917H44.2057V22.6946C44.2057 23.4608 44.5395 23.8257 45.2441 23.8621V26.6351C44.8732 26.6716 44.5766 26.7081 44.3911 26.7446C44.2057 26.7811 43.9832 26.7446 43.7607 26.7446C43.1673 26.7811 42.611 26.5621 42.166 26.1608C41.7581 25.7959 41.4985 25.2851 41.4985 24.7743L41.4243 22.5486C40.6084 23.9351 39.4217 25.0662 38.0125 25.8324C36.5662 26.5986 34.9715 27 33.3397 27Z" fill="#5BA5E5"/>
<path d="M48.1738 4.01351V0H51.4373V4.01351H48.1738ZM48.1738 26.6351V7.58919H51.4373V26.6351H48.1738Z" fill="#5BA5E5"/>
<path d="M53.9219 17.0757C53.9219 15.7622 54.1444 14.4852 54.6265 13.2811C55.0715 12.1135 55.7391 11.0554 56.6291 10.1798C57.5191 9.26759 58.5575 8.57435 59.7443 8.06354C61.0052 7.51624 62.3773 7.26084 63.7865 7.26084C65.5296 7.22435 67.2726 7.66219 68.756 8.53786C70.1281 9.34056 71.2036 10.5081 71.9453 11.8946L68.756 12.8798C68.2739 12.0041 67.5692 11.2743 66.6792 10.7635C65.7892 10.2527 64.7508 9.99732 63.7124 10.0338C61.9694 10.0338 60.3005 10.7635 59.1509 12.0406C58.5575 12.6973 58.1125 13.4635 57.8158 14.2662C57.4821 15.1784 57.2966 16.1271 57.2966 17.0757C57.2966 18.0243 57.4821 18.973 57.8158 19.8852C58.1496 20.7243 58.5946 21.4906 59.2251 22.1838C59.7813 22.8041 60.486 23.3514 61.2648 23.7162C62.0435 24.0811 62.8965 24.2635 63.7865 24.2635C64.3428 24.2635 64.9362 24.1906 65.4925 24.0081C66.0117 23.8622 66.5309 23.6433 67.013 23.3514C67.458 23.096 67.8659 22.7676 68.2368 22.4392C68.5705 22.1108 68.8301 21.7095 68.9785 21.2716L72.1678 22.2203C71.8711 22.9135 71.4632 23.5703 70.944 24.1541C70.4248 24.7379 69.7944 25.2487 69.0897 25.65C68.348 26.0879 67.5322 26.4162 66.7163 26.6352C65.7891 26.8906 64.862 27 63.8978 27C61.2277 27.0365 58.6317 25.9784 56.7774 24.0446C55.8874 23.1325 55.2199 22.0743 54.7748 20.8703C54.1444 19.6662 53.9219 18.3892 53.9219 17.0757Z" fill="#5BA5E5"/>
<path d="M87.9291 26.6351L81.2538 17.3311L77.5452 20.7608V26.6351H74.2817V0H77.5452V17.5135L87.4841 7.62568H91.0814L83.3676 15.5068L91.4522 26.6351H87.9291Z" fill="#5BA5E5"/>
<path d="M102.726 27C101.28 27 99.8704 26.6351 98.6095 25.9054C97.4228 25.2122 96.3844 24.227 95.6798 23.0595V26.6351H92.7871V0H96.0506V11.3838C96.8294 10.1797 97.8307 9.15811 99.0545 8.39189C101.428 7.00541 104.358 6.89595 106.805 8.1C107.844 8.6473 108.771 9.41351 109.55 10.2892C110.328 11.2378 110.922 12.2959 111.293 13.4635C111.701 14.6676 111.886 15.9081 111.886 17.1486C111.886 18.4622 111.663 19.7392 111.181 20.9432C110.736 22.0743 110.069 23.1324 109.253 24.0811C108.437 24.9568 107.436 25.6865 106.323 26.1973C105.211 26.7446 103.987 27 102.726 27ZM101.91 24.227C102.837 24.227 103.764 24.0446 104.58 23.6432C105.396 23.2784 106.101 22.7311 106.694 22.0743C107.287 21.4176 107.77 20.6514 108.066 19.8122C108.4 18.973 108.548 18.0608 108.548 17.1486C108.548 16.2365 108.4 15.3243 108.066 14.4851C107.77 13.6459 107.324 12.8797 106.768 12.1865C106.212 11.5297 105.544 10.9824 104.766 10.5811C103.987 10.1797 103.097 9.96081 102.17 9.9973C101.502 9.9973 100.835 10.1068 100.204 10.3622C99.5737 10.6176 99.0174 10.9459 98.4982 11.3108C97.979 11.7122 97.4969 12.1865 97.089 12.7338C96.681 13.2811 96.3102 13.8284 96.0135 14.4486V19.9581C96.1248 20.5784 96.4215 21.1622 96.7923 21.6365C97.2002 22.1473 97.6824 22.5851 98.2386 22.9865C98.7949 23.3514 99.3883 23.6432 100.019 23.8986C100.649 24.1176 101.28 24.227 101.91 24.227Z" fill="#1D1D1B"/>
<path d="M120.379 27C118.339 27 116.819 26.3432 115.78 24.9932C114.742 23.6432 114.223 21.673 114.223 19.0094V7.58917H117.486V18.3892C117.486 22.2932 118.858 24.227 121.603 24.227C122.938 24.227 124.273 23.7892 125.348 22.9865C126.535 22.1108 127.462 20.9067 127.944 19.5203V7.58917H131.208V22.6946C131.208 23.4608 131.541 23.8257 132.246 23.8621V26.6351C131.875 26.6716 131.579 26.7081 131.356 26.7446C131.134 26.7811 130.948 26.7446 130.763 26.7446C130.169 26.7446 129.613 26.5621 129.131 26.1608C128.723 25.7959 128.463 25.2851 128.426 24.7743L128.352 22.5486C127.536 23.9351 126.35 25.0662 124.94 25.8324C123.568 26.5986 121.973 27 120.379 27Z" fill="#1D1D1B"/>
<path d="M145.226 25.6865C145.04 25.7959 144.781 25.9054 144.447 26.0149C144.113 26.1243 143.742 26.2703 143.334 26.4162C142.889 26.5622 142.444 26.6716 141.999 26.7446C141.517 26.8176 140.998 26.8905 140.516 26.854C139.403 26.8905 138.328 26.5257 137.438 25.8689C136.585 25.2122 136.14 24.227 136.14 22.8405V10.1068H133.507V7.58919H136.14V1.24054H139.403V7.58919H143.742V10.1068H139.403V21.9284C139.403 22.5122 139.663 23.0595 140.108 23.4608C140.516 23.7892 141.072 23.9351 141.591 23.9351C142.185 23.9351 142.778 23.8257 143.372 23.6432C143.742 23.4973 144.113 23.3513 144.484 23.1689L145.226 25.6865Z" fill="#1D1D1B"/>
<path d="M146.783 4.01351V0H150.047V4.01351H146.783ZM146.783 26.6351V7.58919H150.047V26.6351H146.783Z" fill="#1D1D1B"/>
<path d="M167.477 26.6351L160.802 17.3311L157.093 20.7608V26.6351H153.83V0H157.093V17.5135L167.032 7.62568H170.629L162.915 15.5068L171 26.6351H167.477Z" fill="#1D1D1B"/>
</g>
<defs>
<clipPath id="clip0">
<rect width="171" height="27" fill="white"/>
</clipPath>
</defs>
</svg>
