<?xml version="1.0" encoding="UTF-8" ?>
<!DOCTYPE svg PUBLIC "-//W3C//DTD SVG 1.1//EN" "http://www.w3.org/Graphics/SVG/1.1/DTD/svg11.dtd">
<svg width="871pt" height="1000pt" viewBox="0 0 871 1000" version="1.1" xmlns="http://www.w3.org/2000/svg">
<g id="#175dffff">
<path fill="#175dff" opacity="1.00" d=" M 435.36 0.00 L 436.50 0.00 C 446.89 0.24 457.24 2.15 466.95 5.88 C 474.46 8.64 481.36 12.73 488.19 16.82 C 574.43 67.74 660.72 118.56 746.91 169.54 C 706.23 193.55 665.37 217.27 624.68 241.28 C 561.70 204.22 498.72 167.15 435.78 130.03 C 352.95 179.10 270.17 228.23 187.34 277.28 C 270.31 326.04 353.02 375.24 435.77 424.37 C 547.13 358.83 658.59 293.44 769.98 227.95 C 784.79 218.86 803.37 217.58 819.97 221.77 C 837.82 226.18 853.75 238.08 862.74 254.16 C 867.73 262.85 870.28 272.73 871.00 282.69 L 871.00 709.25 C 870.23 728.67 863.47 747.96 850.94 762.93 C 843.62 771.77 834.58 779.11 824.61 784.75 C 712.06 851.14 599.52 917.52 486.97 983.91 C 476.81 990.25 465.83 995.54 454.03 997.95 C 433.72 1002.45 411.96 999.06 393.70 989.21 C 385.03 984.35 376.55 979.14 367.96 974.14 C 272.54 917.86 177.12 861.58 81.71 805.29 C 67.73 796.92 53.51 788.95 39.71 780.29 C 15.75 764.58 0.70 736.64 0.54 708.01 C 0.47 599.78 0.51 491.54 0.52 383.30 C 41.87 407.70 83.37 431.86 124.76 456.20 C 124.79 532.71 124.74 609.22 124.78 685.74 C 228.47 746.83 332.08 808.06 435.81 869.07 C 539.45 807.92 643.12 746.84 746.76 685.70 C 746.79 585.19 746.83 484.68 746.74 384.17 C 661.02 434.69 575.20 485.05 489.45 535.51 C 480.71 540.77 471.80 545.97 461.96 548.89 C 438.40 556.51 411.84 553.12 390.61 540.52 C 271.23 470.20 151.87 399.83 32.50 329.50 C 27.51 326.65 22.59 323.56 18.47 319.53 C 4.07 306.09 -2.25 285.06 1.34 265.81 C 4.10 249.34 14.32 234.27 28.81 225.90 C 148.97 155.02 269.13 84.15 389.29 13.28 C 403.13 4.91 419.17 0.18 435.36 0.00 Z" />
</g>
</svg>
