<svg width="21" height="21" viewBox="0 0 21 21" fill="none" xmlns="http://www.w3.org/2000/svg">
<rect x="0.499939" y="0.298096" width="20" height="20" rx="10" fill="white" fill-opacity="0.15"/>
<path fill-rule="evenodd" clip-rule="evenodd" d="M11.8535 9.94452L8.67151 6.76254C8.47625 6.56727 8.15967 6.56727 7.9644 6.76254C7.76914 6.9578 7.76914 7.27438 7.9644 7.46964L10.2928 9.79807L5.49994 9.79807C5.2238 9.79807 4.99994 10.0219 4.99994 10.2981C4.99994 10.5742 5.2238 10.7981 5.49994 10.7981L10.2928 10.7981L7.96441 13.1265C7.76914 13.3218 7.76914 13.6383 7.96441 13.8336C8.15967 14.0289 8.47625 14.0289 8.67151 13.8336L11.8535 10.6516C12.0488 10.4564 12.0488 10.1398 11.8535 9.94452ZM14.4999 7.79807C14.4999 7.52193 14.2761 7.29807 13.9999 7.29807C13.7238 7.29807 13.4999 7.52193 13.4999 7.79807V12.7981C13.4999 13.0742 13.7238 13.2981 13.9999 13.2981C14.2761 13.2981 14.4999 13.0742 14.4999 12.7981V7.79807Z" fill="white"/>
</svg>
