<svg viewBox="0 0 230 37" fill="none" xmlns="http://www.w3.org/2000/svg">
<path d="M174.798 5.81421H178.828V15.224H188.219V5.81421H192.249V28.1408H188.219V18.9931H178.828V28.1408H174.798V5.81421Z" fill="#3A64FA"/>
<path d="M195.946 22.6957V12.4036H199.887V21.7064C199.887 23.6223 201.158 24.9365 202.979 24.9365C204.889 24.9365 206.25 23.4119 206.25 21.4369V12.4036H210.19V28.1408H206.433V26.2249H206.19C205.554 27.3914 203.977 28.5284 201.737 28.5284C198.163 28.5284 195.95 26.044 195.95 22.6957H195.946Z" fill="#3A64FA"/>
<path d="M217.484 26.1363V28.1408H213.607V5.81421H217.547V14.4377H217.761C218.276 13.6292 219.82 12.016 222.609 12.016C226.972 12.016 230 15.427 230 20.3627C230 25.2983 226.942 28.5284 222.486 28.5284C219.577 28.5284 218.123 26.7934 217.701 26.1363H217.484ZM225.996 20.3036C225.996 17.5202 224.269 15.5489 221.723 15.5489C219.177 15.5489 217.45 17.343 217.45 20.3036C217.45 22.9357 219.088 25.0288 221.693 25.0288C224.299 25.0288 225.996 23.1424 225.996 20.3036Z" fill="#3A64FA"/>
<path d="M91.526 28.1817C91.0512 27.6427 90.7072 27.0262 90.4979 26.3285C90.2848 25.6308 90.1839 24.6931 90.1839 23.5118V5.8145H94.113V23.0947C94.113 24.4347 94.2588 25.4684 94.5579 26.1993C94.857 26.9118 95.242 27.5209 95.7168 28.0266V28.1854H91.5222H91.526V28.1817Z" fill="#080216"/>
<path d="M100.382 28.1817C99.9749 27.7128 99.6534 27.148 99.4067 26.4872C99.1786 25.8265 99.0628 24.8334 99.0628 23.5118V15.6156H96.8982V12.5331H99.1151V8.20294H102.943V12.5331H105.553V15.6156H102.966V23.0689C102.966 24.4569 103.126 25.5201 103.441 26.251C103.758 26.9635 104.136 27.5541 104.577 28.0266V28.1854H100.382V28.1817Z" fill="#080216"/>
<path d="M46.1744 12.5184H49.9091V14.4232H50.1185C50.8101 13.2308 52.2569 12.1308 54.4252 12.1308C56.5936 12.1308 58.2198 13.0537 59.1245 14.5118H59.3675C60.4517 12.8765 62.0181 12.1308 64.0668 12.1308C67.5623 12.1308 69.8502 14.486 69.8502 17.7862V28.178H65.936V19.1263C65.936 16.9815 64.9416 15.7596 63.0761 15.7596C61.2106 15.7596 60.0031 17.0996 60.0031 19.2149V28.178H56.0851V18.8863C56.0851 16.9815 54.9412 15.7596 53.1355 15.7596C51.3298 15.7596 50.0961 17.1882 50.0961 19.1816V28.178H46.1819V12.5184H46.1744Z" fill="#080216"/>
<path d="M72.1083 20.4368C72.1083 15.4938 75.4505 12.1271 80.0899 12.1271C85.178 12.1271 87.9482 15.8519 87.9482 20.2596V21.4778H75.8991C76.0187 23.8589 77.6786 25.4684 80.2058 25.4684C82.1312 25.4684 83.6116 24.5713 84.1537 23.294H87.7987C87.0174 26.4836 84.1836 28.5656 80.0862 28.5656C75.4168 28.5656 72.1045 25.1103 72.1045 20.4331H72.1083V20.4368ZM84.2172 18.7423C84.0378 16.6271 82.3816 15.228 80.0899 15.228C77.7983 15.228 76.2057 16.7747 75.9627 18.7423H84.2172Z" fill="#080216"/>
<path d="M107.377 20.4368C107.377 15.5233 110.39 12.1271 114.727 12.1271C117.467 12.1271 119.004 13.7366 119.546 14.5377H119.755V12.511H123.673V28.1743H119.815V26.1808H119.606C119.153 26.8379 117.736 28.5619 114.847 28.5619C110.42 28.5619 107.377 25.2875 107.377 20.4294V20.4368ZM119.849 20.3814C119.849 17.4318 118.043 15.6451 115.572 15.6451C113.101 15.6451 111.355 17.609 111.355 20.3814C111.355 23.1538 113.071 25.0845 115.602 25.0845C118.133 25.0845 119.845 23.0024 119.845 20.3814H119.849Z" fill="#080216"/>
<path d="M126.929 12.5184H130.664V14.4232H130.874C131.505 13.2604 133.075 12.1308 135.334 12.1308C138.885 12.1308 141.053 14.6041 141.053 17.9376V28.1817H137.139V18.9491C137.139 17.0442 135.906 15.7596 134.096 15.7596C132.201 15.7596 130.844 17.251 130.844 19.2149V28.178H126.929V12.5184Z" fill="#080216"/>
<path d="M143.311 20.3482C143.311 15.7005 146.747 12.1271 151.745 12.1271C156.744 12.1271 160.18 15.7005 160.18 20.3482C160.18 24.9959 156.684 28.5693 151.745 28.5693C146.807 28.5693 143.311 25.0254 143.311 20.3482ZM156.205 20.3482C156.205 17.6386 154.336 15.6451 151.745 15.6451C149.155 15.6451 147.285 17.6386 147.285 20.3482C147.285 23.0578 149.155 25.0512 151.745 25.0512C154.336 25.0512 156.205 23.0873 156.205 20.3482Z" fill="#080216"/>
<path d="M39.1087 7.39079C37.6058 9.41008 34.3757 9.86414 34.0169 8.66069C33.6505 7.45724 35.5309 6.62295 36.5179 6.50851C30.8018 4.96175 31.8373 9.07784 28.6783 9.47284C30.4242 10.3293 32.2411 11.7579 33.4673 11.9314C35.5721 12.2341 38.5217 11.0787 39.1087 7.3871" fill="#080216"/>
<path fill-rule="evenodd" clip-rule="evenodd" d="M16.5619 2.22261C16.4535 1.58397 16.0048 1.38093 15.2945 1.09668H15.2908C19.9302 -1.07396 22.8911 0.491264 24.0874 1.46953C24.7491 2.01219 24.9996 2.52901 25.2389 3.01629C25.4296 3.4076 25.609 3.78045 25.9866 4.13484C26.5511 4.66642 27.6054 5.42319 28.0278 5.7259C28.0689 5.75543 28.1063 5.78127 28.1362 5.80342C28.4503 6.0323 28.5848 6.65986 28.297 7.09178C28.0091 7.52 27.2539 8.40228 26.3417 8.25462C25.4333 8.10696 23.4407 7.76364 21.7957 7.48308C20.1546 7.19883 19.0143 6.28702 19.0143 6.28702C18.8087 7.43509 19.5041 8.45027 20.8125 8.7899C21.0667 8.85635 21.3696 8.92279 21.7135 9.00032C23.2538 9.34732 25.5567 9.86783 27.4633 11.0787C30.0503 12.7214 32.099 15.3203 32.899 19.3109C33.6991 23.3014 32.7009 31.7551 25.5978 35.2252C18.4947 38.6952 11.7654 36.0078 11.7654 36.0078C18.132 35.7125 21.8593 33.1431 23.2837 31.4339C24.2818 30.2342 25.2239 28.0783 24.652 25.5939C24.0239 22.8695 21.7098 20.8022 19.3545 21.1492C16.9993 21.4963 16.0011 24.0287 15.56 25.258C15.1188 26.4872 14.4309 27.3954 13.829 27.495C13.2271 27.5947 12.3635 27.6279 11.6046 25.808C10.8457 23.9881 8.8232 20.7284 6.13897 21.954C3.45474 23.1759 2.96874 28.8425 2.96874 28.8425C-0.328607 23.6152 -1.16603 16.915 1.9257 10.4068C5.01743 3.89858 11.4663 1.50275 11.4663 1.50275C10.3111 2.99045 9.0363 7.49047 10.3336 11.5401C11.6308 15.5898 14.8309 17.6201 16.6665 17.8933C18.5021 18.1702 20.6892 17.0885 20.5695 14.8662C20.4723 13.0426 18.8947 11.7468 17.2236 10.9864C16.031 10.4437 14.8496 9.19597 14.7674 7.28005C14.6851 5.36044 15.53 4.1496 15.9413 3.66601C16.2665 3.28578 16.6479 2.76158 16.5544 2.21892L16.5619 2.22261ZM21.2163 4.0647C19.8629 4.0647 19.2461 4.74764 19.2461 4.74764C19.2498 4.71441 19.2536 4.6738 19.2611 4.62951C19.3171 4.14591 19.4368 3.13811 19.934 2.64714C20.4761 2.11186 21.392 1.70948 22.6818 2.64714C23.9715 3.58479 24.3753 5.29399 24.3753 5.29399C23.9229 4.91376 22.5734 4.0647 21.22 4.0647H21.2163Z" fill="#080216"/>
<path d="M168.224 0H166.153V36.8307H168.224V0Z" fill="#3A64FA"/>
</svg>
